<svg version="1.1" xmlns="http://www.w3.org/2000/svg" xmlns:xlink="http://www.w3.org/1999/xlink" width="17.52941" height="24" viewBox="0,0,17.52941,24"><g transform="translate(-235.25736,-159.99159)"><g data-paper-data="{&quot;isPaintingLayer&quot;:true}" stroke-width="0" stroke-linejoin="miter" stroke-miterlimit="10" stroke-dasharray="" stroke-dashoffset="0" style="mix-blend-mode: normal"><path d="M241.85032,176.09917c0.02333,0.424 0.10233,0.78467 0.237,1.082c0.05575,0.12492 0.12059,0.24557 0.194,0.361c0.11944,0.18995 0.26791,0.36001 0.44,0.504c0.25317,0.21445 0.55007,0.37109 0.87,0.459c0.32089,0.09024 0.65266,0.136 0.986,0.136c0.42333,0 0.804,-0.052 1.142,-0.156c0.33867,-0.104 0.62533,-0.257 0.86,-0.459c0.23363,-0.19433 0.41913,-0.44007 0.542,-0.718c0.06024,-0.13576 0.10583,-0.27757 0.136,-0.423c0.03675,-0.17729 0.05485,-0.35794 0.054,-0.539c0.00023,-0.04502 -0.00077,-0.09004 -0.003,-0.135c-0.01152,-0.23327 -0.06153,-0.46304 -0.148,-0.68c-0.04665,-0.11562 -0.10495,-0.22619 -0.174,-0.33c-0.08983,-0.13343 -0.19376,-0.25681 -0.31,-0.368c-0.02357,-0.02311 -0.04758,-0.04578 -0.072,-0.068c-0.21,-0.18933 -0.47233,-0.367 -0.787,-0.533c-0.03745,-0.01975 -0.07512,-0.03909 -0.113,-0.058c-0.16733,-0.08333 -0.348,-0.16367 -0.542,-0.241c-0.19596,-0.07777 -0.3944,-0.14914 -0.595,-0.214c-0.22993,-0.07123 -0.4577,-0.14927 -0.683,-0.234c-0.32662,-0.12276 -0.64641,-0.26296 -0.958,-0.42c-0.488,-0.24733 -0.90467,-0.54367 -1.25,-0.889c-0.3465,-0.33146 -0.62207,-0.72985 -0.81,-1.171c-0.10321,-0.24518 -0.17738,-0.50159 -0.221,-0.764c-0.04247,-0.25444 -0.06321,-0.51204 -0.062,-0.77c-0.00024,-0.1861 0.01011,-0.37207 0.031,-0.557c0.03442,-0.31676 0.10763,-0.6281 0.218,-0.927c0.15813,-0.42972 0.39863,-0.82443 0.708,-1.162c0.29933,-0.32533 0.66533,-0.589 1.098,-0.791c0.43333,-0.202 0.91367,-0.33567 1.441,-0.401v-2.148h1.455v2.148c0.11668,0.01624 0.23275,0.03658 0.348,0.061c0.32836,0.06695 0.6476,0.17269 0.951,0.315c0.00601,0.00298 0.01201,0.00598 0.018,0.009c0.37129,0.17613 0.70875,0.41611 0.997,0.709c0.16443,0.1734 0.31085,0.36304 0.437,0.566c0.17129,0.27776 0.30988,0.5744 0.413,0.884c0.10755,0.3228 0.18488,0.65489 0.231,0.992c0.04598,0.33004 0.07003,0.66277 0.072,0.996h-1.797c-0.00005,-0.13986 -0.00606,-0.27965 -0.018,-0.419c-0.0214,-0.26643 -0.0693,-0.53007 -0.143,-0.787c-0.03408,-0.11743 -0.07447,-0.23293 -0.121,-0.346c-0.0879,-0.21617 -0.20318,-0.42017 -0.343,-0.607c-0.20591,-0.25832 -0.46604,-0.46826 -0.762,-0.615c-0.29933,-0.14933 -0.641,-0.224 -1.025,-0.224c-0.026,-0.00023 -0.052,-0.00023 -0.078,0c-0.17933,0.00333 -0.34833,0.018 -0.507,0.044c-0.17199,0.02656 -0.34085,0.07045 -0.504,0.131c-0.0848,0.03204 -0.16761,0.06911 -0.248,0.111c-0.19123,0.09786 -0.36357,0.22889 -0.509,0.387c-0.04541,0.04899 -0.08814,0.1004 -0.128,0.154c-0.12318,0.16579 -0.21999,0.34963 -0.287,0.545c-0.04355,0.12573 -0.07666,0.25483 -0.099,0.386c-0.02909,0.17079 -0.04348,0.34375 -0.043,0.517c0,0.32533 0.05233,0.615 0.157,0.869c0.04619,0.11229 0.10383,0.21952 0.172,0.32c0.09355,0.13708 0.20298,0.26261 0.326,0.374c0.02841,0.02665 0.05741,0.05266 0.087,0.078c0.10733,0.09267 0.22833,0.182 0.363,0.268c0.13388,0.08538 0.27206,0.16381 0.414,0.235c0.35467,0.17867 0.78267,0.35267 1.284,0.522c0.25871,0.08499 0.51483,0.1777 0.768,0.278c0.29982,0.11863 0.59412,0.25077 0.882,0.396c0.17061,0.08597 0.33682,0.18042 0.498,0.283c0.26724,0.16914 0.51624,0.36553 0.743,0.586c0.33867,0.332 0.59733,0.716 0.776,1.152c0.09997,0.24699 0.17111,0.5047 0.212,0.768c0.03906,0.25008 0.05812,0.50289 0.057,0.756c0.00038,0.2046 -0.01232,0.40902 -0.038,0.612c-0.03836,0.31218 -0.11597,0.61826 -0.231,0.911c-0.17867,0.44933 -0.431,0.83367 -0.757,1.153c-0.11252,0.11233 -0.23282,0.21659 -0.36,0.312c-0.25487,0.1899 -0.53233,0.34743 -0.826,0.469c-0.18158,0.07584 -0.36759,0.14063 -0.557,0.194c-0.3243,0.09087 -0.65588,0.15344 -0.991,0.187v1.875h-1.455v-1.866c-0.50036,-0.0501 -0.99155,-0.16819 -1.46,-0.351c-0.46227,-0.18001 -0.88287,-0.45259 -1.236,-0.801c-0.16475,-0.15956 -0.31285,-0.33547 -0.442,-0.525c-0.16659,-0.24534 -0.30639,-0.50784 -0.417,-0.783c-0.02816,-0.06951 -0.05418,-0.13988 -0.078,-0.211c-0.16267,-0.48267 -0.244,-1.044 -0.244,-1.684h1.806c0.00007,0.09339 0.00274,0.18676 0.008,0.28z" fill="#ff0000" fill-rule="evenodd" stroke="#ff0000" stroke-linecap="round"/><path d="M235.25737,183.99159v-24h17.52941v24z" fill="none" fill-rule="nonzero" stroke="#000000" stroke-linecap="butt"/></g></g></svg>