<svg version="1.1" xmlns="http://www.w3.org/2000/svg" xmlns:xlink="http://www.w3.org/1999/xlink" width="17.52941" height="23.99999" viewBox="0,0,17.52941,23.99999"><g transform="translate(-235.25737,-159.99159)"><g data-paper-data="{&quot;isPaintingLayer&quot;:true}" stroke-width="0" stroke-linejoin="miter" stroke-miterlimit="10" stroke-dasharray="" stroke-dashoffset="0" style="mix-blend-mode: normal"><path d="M239.94202,173.83452c0.04114,-0.46864 0.12925,-0.93197 0.263,-1.383c0.06289,-0.21061 0.13733,-0.41759 0.223,-0.62c0.16241,-0.38739 0.37489,-0.75183 0.632,-1.084c0.35356,-0.46593 0.80744,-0.84633 1.328,-1.113c0.21231,-0.10866 0.43512,-0.19544 0.665,-0.259c0.35293,-0.0959 0.71728,-0.14334 1.083,-0.141c0.2622,-0.00135 0.52407,0.01872 0.783,0.06c0.30054,0.04766 0.59365,0.13404 0.872,0.257c0.47266,0.21193 0.89165,0.52737 1.226,0.923v-5.479h1.806v15h-1.66l-0.078,-1.113c-0.35133,0.43 -0.77133,0.75567 -1.26,0.977c-0.27274,0.12186 -0.55962,0.2092 -0.854,0.26c-0.28232,0.04918 -0.56843,0.07327 -0.855,0.072c-0.09809,0.00004 -0.19614,-0.0033 -0.294,-0.01c-0.5025,-0.03038 -0.9929,-0.1667 -1.439,-0.4c-0.518,-0.274 -0.959,-0.65167 -1.323,-1.133c-0.36467,-0.482 -0.648,-1.05 -0.85,-1.704c-0.06435,-0.20949 -0.11809,-0.42209 -0.161,-0.637c-0.0962,-0.48674 -0.14376,-0.98184 -0.142,-1.478v-0.205c-0.00039,-0.26373 0.01129,-0.52734 0.035,-0.79zM241.72002,175.11652c0.01505,0.39692 0.06864,0.79144 0.16,1.178c0.0303,0.12723 0.06633,0.25303 0.108,0.377c0.09864,0.29809 0.23615,0.58187 0.409,0.844c0.228,0.35133 0.521,0.62967 0.879,0.835c0.358,0.20533 0.78767,0.308 1.289,0.308c0.25667,0 0.49467,-0.02467 0.714,-0.074c0.28259,-0.06037 0.55085,-0.17481 0.79,-0.337c0.12994,-0.08911 0.25205,-0.18914 0.365,-0.299c0.23737,-0.23399 0.43437,-0.50566 0.583,-0.804v-4.902c-0.22828,-0.42294 -0.55307,-0.7861 -0.948,-1.06c-0.24436,-0.16816 -0.51969,-0.28611 -0.81,-0.347c-0.22156,-0.04687 -0.44754,-0.06967 -0.674,-0.068c-0.1955,-0.00119 -0.39068,0.01588 -0.583,0.051c-0.25335,0.04564 -0.49714,0.13389 -0.721,0.261c-0.35784,0.20496 -0.66105,0.49308 -0.884,0.84c-0.08877,0.13634 -0.16796,0.27868 -0.237,0.426c-0.12116,0.25956 -0.215,0.53102 -0.28,0.81c-0.02103,0.08755 -0.04003,0.17557 -0.057,0.264c-0.07393,0.39738 -0.11042,0.80081 -0.109,1.205v0.205c0.00003,0.0957 0.00203,0.19138 0.006,0.287z" fill="#ff0000" fill-rule="evenodd" stroke="#ff0000" stroke-linecap="round"/><path d="M235.25738,183.99159v-23.99999h17.52941v23.99999z" fill="none" fill-rule="nonzero" stroke="#000000" stroke-linecap="butt"/></g></g></svg>