<svg version="1.1" xmlns="http://www.w3.org/2000/svg" xmlns:xlink="http://www.w3.org/1999/xlink" width="17.52941" height="23.99999" viewBox="0,0,17.52941,23.99999"><g transform="translate(-235.25737,-159.99159)"><g data-paper-data="{&quot;isPaintingLayer&quot;:true}" stroke-width="0" stroke-linejoin="miter" stroke-miterlimit="10" stroke-dasharray="" stroke-dashoffset="0" style="mix-blend-mode: normal"><path d="M241.85852,180.0458h-1.797v-14.218h4.17c0.12344,0.00241 0.24681,0.00774 0.37,0.016c0.5101,0.03223 1.01494,0.1218 1.505,0.267c0.08163,0.02434 0.16266,0.05068 0.243,0.079c0.46989,0.16344 0.90925,0.40407 1.3,0.712c0.43994,0.35647 0.7923,0.80907 1.03,1.323c0.14132,0.30341 0.24186,0.6242 0.299,0.954c0.05276,0.30245 0.07852,0.60899 0.077,0.916c0.00035,0.14089 -0.00599,0.28171 -0.019,0.422c-0.02613,0.2889 -0.0869,0.57361 -0.181,0.848c-0.12863,0.37488 -0.31486,0.72744 -0.552,1.045c-0.234,0.312 -0.51367,0.58867 -0.839,0.83c-0.326,0.24067 -0.68433,0.44567 -1.075,0.615l3.018,6.074l-0.01,0.117h-1.904l-2.793,-5.8h-2.842zM244.39352,172.7578c0.35044,-0.01339 0.69722,-0.07635 1.03,-0.187c0.01671,-0.00553 0.03338,-0.0112 0.05,-0.017c0.32679,-0.11382 0.63057,-0.28518 0.897,-0.506c0.26865,-0.23 0.48514,-0.51467 0.635,-0.835c0.156,-0.32867 0.234,-0.70767 0.234,-1.137c0.0008,-0.18951 -0.01358,-0.37878 -0.043,-0.566c-0.03372,-0.21719 -0.09488,-0.42922 -0.182,-0.631c-0.14182,-0.33071 -0.35529,-0.62581 -0.625,-0.864c-0.09442,-0.08065 -0.1947,-0.15419 -0.3,-0.22c-0.20405,-0.12588 -0.4231,-0.22566 -0.652,-0.297c-0.14623,-0.04645 -0.29518,-0.08385 -0.446,-0.112c-0.25077,-0.04625 -0.50502,-0.071 -0.76,-0.074h-2.373v5.449h2.422c0.03768,-0.00049 0.07535,-0.00149 0.113,-0.003z" fill="#ff0000" fill-rule="evenodd" stroke="#ff0000" stroke-linecap="round"/><path d="M235.25738,183.99159v-23.99999h17.52941v23.99999z" fill="none" fill-rule="nonzero" stroke="#000000" stroke-linecap="butt"/></g></g></svg>