<svg version="1.1" xmlns="http://www.w3.org/2000/svg" xmlns:xlink="http://www.w3.org/1999/xlink" width="17.52941" height="23.99999" viewBox="0,0,17.52941,23.99999"><g transform="translate(-235.25737,-159.99159)"><g data-paper-data="{&quot;isPaintingLayer&quot;:true}" stroke-width="0" stroke-linejoin="miter" stroke-miterlimit="10" stroke-dasharray="" stroke-dashoffset="0" style="mix-blend-mode: normal"><path d="M242.31345,170.4105c0.176,-0.17867 0.36167,-0.33633 0.557,-0.473c0.31255,-0.22807 0.66054,-0.40308 1.03,-0.518c0.08221,-0.02575 0.16526,-0.04876 0.249,-0.069c0.3104,-0.07363 0.62801,-0.11253 0.947,-0.116c0.18672,-0.00027 0.37331,0.00941 0.559,0.029c0.32375,0.03285 0.64257,0.10333 0.95,0.21c0.4404,0.15177 0.83742,0.4081 1.157,0.747c0.16341,0.17436 0.30573,0.36735 0.424,0.575c0.128,0.22529 0.23319,0.46281 0.314,0.709c0.02047,0.06188 0.03947,0.12423 0.057,0.187c0.07,0.24867 0.12167,0.51767 0.155,0.807c0.03157,0.28122 0.04693,0.56402 0.046,0.847v6.65h-1.806v-6.669c0,-0.20867 -0.01233,-0.40467 -0.037,-0.588c-0.02236,-0.1731 -0.05915,-0.34403 -0.11,-0.511c-0.0348,-0.114 -0.07792,-0.2253 -0.129,-0.333c-0.07749,-0.16476 -0.17855,-0.31736 -0.3,-0.453c-0.202,-0.228 -0.456,-0.399 -0.762,-0.513c-0.15196,-0.05594 -0.30905,-0.0968 -0.469,-0.122c-0.164,-0.02667 -0.338,-0.04 -0.522,-0.04c-0.02134,0.00016 -0.04267,0.00049 -0.064,0.001c-0.01533,-0.0001 -0.03067,-0.0001 -0.046,0c-0.29908,0.00275 -0.59618,0.0489 -0.882,0.137c-0.288,0.08872 -0.56105,0.22019 -0.81,0.39c-0.19533,0.13067 -0.376,0.282 -0.542,0.454c-0.16781,0.17468 -0.31695,0.36638 -0.445,0.572v7.675h-1.806v-15h1.806v6.006c0.14333,-0.21467 0.303,-0.41167 0.479,-0.591z" fill="#ff0000" fill-rule="evenodd" stroke="#ff0000" stroke-linecap="round"/><path d="M235.25738,183.99159v-23.99999h17.52941v23.99999z" fill="none" fill-rule="nonzero" stroke="#000000" stroke-linecap="butt"/></g></g></svg>