<svg version="1.1" xmlns="http://www.w3.org/2000/svg" xmlns:xlink="http://www.w3.org/1999/xlink" width="17.52941" height="23.99999" viewBox="0,0,17.52941,23.99999"><g transform="translate(-235.25737,-159.99159)"><g data-paper-data="{&quot;isPaintingLayer&quot;:true}" stroke-width="0" stroke-linejoin="miter" stroke-miterlimit="10" stroke-dasharray="" stroke-dashoffset="0" style="mix-blend-mode: normal"><path d="M249.29352,175.7198c-0.00227,0.11181 -0.00794,0.22353 -0.017,0.335c-0.03791,0.51029 -0.15919,1.01093 -0.359,1.482c-0.238,0.55333 -0.562,1.02833 -0.972,1.425c-0.41,0.404 -0.89333,0.71833 -1.45,0.943c-0.18369,0.07412 -0.3721,0.13592 -0.564,0.185c-0.41097,0.10316 -0.83328,0.15423 -1.257,0.152c-0.21177,0.00017 -0.4234,-0.01085 -0.634,-0.033c-0.40242,-0.04037 -0.79817,-0.13108 -1.178,-0.27c-0.54333,-0.202 -1.01367,-0.49167 -1.411,-0.869c-0.06613,-0.0608 -0.13017,-0.12384 -0.192,-0.189c-0.3217,-0.34186 -0.58368,-0.73534 -0.775,-1.164c-0.0992,-0.21961 -0.18209,-0.44622 -0.248,-0.678c-0.1019,-0.36078 -0.1692,-0.73045 -0.201,-1.104h1.836c0.01933,0.39733 0.099,0.76533 0.239,1.104c0.14,0.338 0.33067,0.631 0.572,0.879c0.24267,0.25475 0.53735,0.45427 0.864,0.585c0.15543,0.06308 0.31648,0.1113 0.481,0.144c0.21308,0.04203 0.42981,0.0628 0.647,0.062c0.42933,0 0.81333,-0.08 1.152,-0.24c0.33133,-0.15408 0.6272,-0.37505 0.869,-0.649c0.23467,-0.27333 0.41533,-0.59067 0.542,-0.952c0.00201,-0.00566 0.00401,-0.01133 0.006,-0.017c0.12471,-0.36454 0.19349,-0.74586 0.204,-1.131v-9.892h1.846z" fill="#ff0000" fill-rule="evenodd" stroke="#ff0000" stroke-linecap="round"/><path d="M235.25738,183.99159v-23.99999h17.52941v23.99999z" fill="none" fill-rule="nonzero" stroke="#000000" stroke-linecap="butt"/></g></g></svg>