<svg version="1.1" xmlns="http://www.w3.org/2000/svg" xmlns:xlink="http://www.w3.org/1999/xlink" width="17.52941" height="24" viewBox="0,0,17.52941,24"><g transform="translate(-235.25736,-159.99159)"><g data-paper-data="{&quot;isPaintingLayer&quot;:true}" stroke-width="0" stroke-linejoin="miter" stroke-miterlimit="10" stroke-dasharray="" stroke-dashoffset="0" style="mix-blend-mode: normal"><path d="M247.98203,167.44017l1.084,0.606l-5.538,10.127l-1.083,-0.606zM245.94103,176.67317c0.00162,-0.347 0.05936,-0.69145 0.171,-1.02c0.11333,-0.332 0.28067,-0.625 0.502,-0.879c0.03496,-0.03993 0.07132,-0.07862 0.109,-0.116c0.20587,-0.20361 0.44715,-0.36797 0.712,-0.485c0.1706,-0.07589 0.34948,-0.1316 0.533,-0.166c0.19454,-0.03634 0.3921,-0.05409 0.59,-0.053c0.16803,-0.00057 0.33586,0.0118 0.502,0.037c0.21757,0.03198 0.42982,0.0932 0.631,0.182c0.01137,0.00525 0.0227,0.01059 0.034,0.016c0.3003,0.13743 0.56816,0.33678 0.786,0.585c0.22339,0.25739 0.39426,0.556 0.503,0.879c0.00722,0.02059 0.01422,0.04126 0.021,0.062c0.10127,0.3212 0.15188,0.65622 0.15,0.993v0.761c0.00006,0.01167 0.00006,0.02333 0,0.035c-0.00162,0.347 -0.05936,0.69145 -0.171,1.02c-0.114,0.332 -0.28167,0.62167 -0.503,0.869c-0.22533,0.25699 -0.50374,0.46204 -0.816,0.601c-0.322,0.14667 -0.69467,0.22 -1.118,0.22c-0.1667,0.00028 -0.33317,-0.01209 -0.498,-0.037c-0.22023,-0.03215 -0.43514,-0.09369 -0.639,-0.183c-0.02552,-0.0116 -0.05086,-0.02361 -0.076,-0.036c-0.28591,-0.13522 -0.54114,-0.32749 -0.75,-0.565c-0.22133,-0.24733 -0.38867,-0.537 -0.502,-0.869c-0.00722,-0.02059 -0.01422,-0.04126 -0.021,-0.062c-0.10127,-0.3212 -0.15188,-0.65622 -0.15,-0.993v-0.761c-0.00006,-0.01167 -0.00006,-0.02333 0,-0.035zM240.24203,167.28917c0.10793,-0.32486 0.27886,-0.62526 0.503,-0.884c0.06052,-0.07152 0.12566,-0.139 0.195,-0.202c0.18293,-0.16475 0.39085,-0.29942 0.616,-0.399c0.17092,-0.07596 0.35014,-0.13167 0.534,-0.166c0.19421,-0.03628 0.39143,-0.05402 0.589,-0.053c0.16701,-0.00066 0.33382,0.01137 0.499,0.036c0.22023,0.03215 0.43514,0.09369 0.639,0.183c0.02552,0.0116 0.05086,0.02361 0.076,0.036c0.28555,0.13533 0.54044,0.3276 0.749,0.565c0.03502,0.04158 0.0687,0.08427 0.101,0.128c0.16934,0.22999 0.30161,0.48508 0.392,0.756c0.114,0.33533 0.171,0.68833 0.171,1.059v0.752c0.00006,0.01167 0.00006,0.02333 0,0.035c-0.00162,0.347 -0.05936,0.69145 -0.171,1.02c-0.01049,0.03085 -0.02149,0.06152 -0.033,0.092c-0.10618,0.28416 -0.26193,0.54724 -0.46,0.777c-0.03464,0.03991 -0.07066,0.0786 -0.108,0.116c-0.20617,0.20372 -0.4478,0.36808 -0.713,0.485c-0.1706,0.07589 -0.34948,0.1316 -0.533,0.166c-0.19454,0.03634 -0.3921,0.05409 -0.59,0.053c-0.15254,0.00038 -0.30492,-0.00998 -0.456,-0.031c-0.23167,-0.03102 -0.45786,-0.0943 -0.672,-0.188c-0.02552,-0.0116 -0.05086,-0.02361 -0.076,-0.036c-0.28555,-0.13533 -0.54044,-0.3276 -0.749,-0.565c-0.22133,-0.24733 -0.389,-0.537 -0.503,-0.869c-0.00689,-0.02093 -0.01356,-0.04193 -0.02,-0.063c-0.10151,-0.32083 -0.15245,-0.6555 -0.151,-0.992v-0.752c0,-0.37067 0.057,-0.72367 0.171,-1.059zM247.36203,178.05517c0.01047,0.04077 0.02248,0.08113 0.036,0.121c0.04499,0.13467 0.11005,0.26177 0.193,0.377c0.09794,0.15024 0.23249,0.2731 0.391,0.357c0.01512,0.00809 0.03046,0.01576 0.046,0.023c0.08467,0.04 0.17833,0.069 0.281,0.087c0.08854,0.01501 0.1782,0.02237 0.268,0.022c0.10333,0 0.19967,-0.009 0.289,-0.027c0.10211,-0.01992 0.20058,-0.05533 0.292,-0.105c0.15641,-0.08497 0.28909,-0.20769 0.386,-0.357c0.098,-0.14267 0.16967,-0.30867 0.215,-0.498c0.04533,-0.18867 0.068,-0.384 0.068,-0.586v-0.761c0,-0.202 -0.02267,-0.39733 -0.068,-0.586c-0.00725,-0.02986 -0.01526,-0.05954 -0.024,-0.089c-0.04288,-0.14824 -0.10723,-0.2894 -0.191,-0.419c-0.10535,-0.14445 -0.24212,-0.2631 -0.4,-0.347c-0.09655,-0.05129 -0.20044,-0.08738 -0.308,-0.107c-0.09167,-0.01706 -0.18475,-0.02543 -0.278,-0.025c-0.11333,0 -0.218,0.01033 -0.314,0.031c-0.09678,0.01992 -0.19011,0.05395 -0.277,0.101c-0.15446,0.08328 -0.2868,0.20225 -0.386,0.347c-0.01712,0.02448 -0.03346,0.04949 -0.049,0.075c-0.08035,0.13443 -0.13938,0.28049 -0.175,0.433c-0.046,0.18867 -0.069,0.384 -0.069,0.586v0.761c0,0.202 0.02467,0.39733 0.074,0.586zM241.41903,169.11017c-0.00007,0.19236 0.02276,0.38404 0.068,0.571c0.00582,0.02314 0.01215,0.04615 0.019,0.069c0.04369,0.15216 0.11339,0.29561 0.206,0.424c0.10232,0.14828 0.23794,0.27054 0.396,0.357c0.096,0.05267 0.20533,0.08967 0.328,0.111c0.08658,0.01438 0.17423,0.02141 0.262,0.021c0.10333,0 0.19967,-0.009 0.289,-0.027c0.10211,-0.01992 0.20058,-0.05533 0.292,-0.105c0.15641,-0.08497 0.28909,-0.20769 0.386,-0.357c0.03386,-0.0497 0.06459,-0.10147 0.092,-0.155c0.05477,-0.1077 0.09769,-0.22103 0.128,-0.338c0.04867,-0.18533 0.073,-0.379 0.073,-0.581v-0.752c0,-0.20133 -0.02433,-0.39833 -0.073,-0.591c-0.0119,-0.04717 -0.02558,-0.09387 -0.041,-0.14c-0.04365,-0.13109 -0.1038,-0.25609 -0.179,-0.372c-0.10427,-0.14356 -0.23921,-0.26209 -0.395,-0.347c-0.096,-0.05267 -0.20567,-0.08967 -0.329,-0.111c-0.08658,-0.01438 -0.17423,-0.02141 -0.262,-0.021c-0.10333,0 -0.19967,0.009 -0.289,0.027c-0.10211,0.01992 -0.20058,0.05533 -0.292,0.105c-0.15446,0.08328 -0.2868,0.20225 -0.386,0.347c-0.0294,0.04214 -0.05644,0.08587 -0.081,0.131c-0.06464,0.12007 -0.11306,0.24819 -0.144,0.381c-0.04565,0.19367 -0.06847,0.39202 -0.068,0.591v0.752c-0.00001,0.00333 -0.00001,0.00667 0,0.01z" fill="#ff0000" fill-rule="evenodd" stroke="#ff0000" stroke-linecap="round"/><path d="M235.25737,183.99159v-24h17.52941v24z" fill="none" fill-rule="nonzero" stroke="#000000" stroke-linecap="butt"/></g></g></svg>