<svg version="1.1" xmlns="http://www.w3.org/2000/svg" xmlns:xlink="http://www.w3.org/1999/xlink" width="17.52941" height="23.99999" viewBox="0,0,17.52941,23.99999"><g transform="translate(-235.25737,-159.99159)"><g data-paper-data="{&quot;isPaintingLayer&quot;:true}" stroke-width="0" stroke-linejoin="miter" stroke-miterlimit="10" stroke-dasharray="" stroke-dashoffset="0" style="mix-blend-mode: normal"><path d="M243.24103,174.84717c0.01175,-0.10981 0.02911,-0.21896 0.052,-0.327c0.03468,-0.16734 0.08593,-0.33081 0.153,-0.488c0.04427,-0.09911 0.09539,-0.19501 0.153,-0.287c0.0875,-0.139 0.18687,-0.27015 0.297,-0.392c0.05852,-0.06539 0.11819,-0.12974 0.179,-0.193c0.16733,-0.17333 0.368,-0.36767 0.602,-0.583c0.22133,-0.228 0.44767,-0.46233 0.679,-0.703c0.23067,-0.24133 0.44367,-0.49533 0.639,-0.762c0.18747,-0.25788 0.34482,-0.53636 0.469,-0.83c0.124,-0.29361 0.18727,-0.60928 0.186,-0.928c0.00015,-0.14147 -0.00921,-0.28279 -0.028,-0.423c-0.02112,-0.16354 -0.05933,-0.32442 -0.114,-0.48c-0.01297,-0.03672 -0.02697,-0.07307 -0.042,-0.109c-0.08678,-0.20912 -0.21348,-0.39933 -0.373,-0.56c-0.09267,-0.09239 -0.19529,-0.17423 -0.306,-0.244c-0.14297,-0.08943 -0.29604,-0.1616 -0.456,-0.215c-0.17104,-0.05735 -0.34718,-0.0982 -0.526,-0.122c-0.17502,-0.02335 -0.35143,-0.03471 -0.528,-0.034c-0.30154,-0.00071 -0.60195,0.03692 -0.894,0.112c-0.06231,0.0161 -0.12402,0.03444 -0.185,0.055c-0.20715,0.06855 -0.40321,0.16691 -0.582,0.292c-0.22733,0.16267 -0.40933,0.366 -0.546,0.61c-0.07892,0.1427 -0.13494,0.29691 -0.166,0.457c-0.02711,0.13733 -0.04051,0.27702 -0.04,0.417h-1.806c0.00667,-0.54667 0.12067,-1.03833 0.342,-1.475c0.21686,-0.43059 0.52299,-0.81001 0.898,-1.113c0.15307,-0.12309 0.31594,-0.23346 0.487,-0.33c0.26512,-0.14876 0.54538,-0.26877 0.836,-0.358c0.51133,-0.16 1.06333,-0.24 1.656,-0.24c0.27943,-0.00055 0.55863,0.01615 0.836,0.05c0.31419,0.03733 0.62421,0.10395 0.926,0.199c0.14412,0.04601 0.28566,0.09976 0.424,0.161c0.32434,0.14157 0.62462,0.33287 0.89,0.567c0.35842,0.31969 0.63892,0.71717 0.82,1.162c0.09663,0.23607 0.1677,0.4818 0.212,0.733c0.04844,0.27399 0.0722,0.55177 0.071,0.83c0.00002,0.007 0.00002,0.014 0,0.021c0.00051,0.44541 -0.08225,0.887 -0.244,1.302c-0.16267,0.41333 -0.371,0.80233 -0.625,1.167c-0.25292,0.37001 -0.53875,0.71642 -0.854,1.035c-0.07811,0.07889 -0.15677,0.15723 -0.236,0.235c-0.22719,0.22342 -0.45958,0.44148 -0.697,0.654c-0.03077,0.02956 -0.06111,0.05956 -0.091,0.09c-0.152,0.156 -0.273,0.305 -0.363,0.447c-0.02155,0.03379 -0.04223,0.06814 -0.062,0.103c-0.07441,0.13089 -0.13379,0.26977 -0.177,0.414c-0.01332,0.0443 -0.02532,0.08899 -0.036,0.134c-0.03233,0.14073 -0.05307,0.28388 -0.062,0.428c-0.00183,0.02832 -0.00349,0.05666 -0.005,0.085c-0.01,0.17733 -0.015,0.37533 -0.015,0.594h-1.806c0.00667,-0.46933 0.026,-0.85533 0.058,-1.158zM243.25603,178.28017c0.0517,-0.05803 0.11128,-0.10852 0.177,-0.15c0.17133,-0.10867 0.39067,-0.163 0.658,-0.163c0.15067,0 0.28667,0.01733 0.408,0.052c0.16727,0.04427 0.31871,0.13472 0.437,0.261c0.10437,0.11231 0.18287,0.24611 0.23,0.392c0.03966,0.12581 0.05923,0.25709 0.058,0.389c0,0.29933 -0.096,0.55 -0.288,0.752c-0.05107,0.05387 -0.10888,0.10093 -0.172,0.14c-0.09933,0.06133 -0.214,0.10533 -0.344,0.132c-0.10834,0.02144 -0.21857,0.03182 -0.329,0.031c-0.16533,0 -0.31233,-0.02 -0.441,-0.06c-0.15071,-0.0443 -0.28677,-0.12821 -0.394,-0.243c-0.09834,-0.10608 -0.17299,-0.23186 -0.219,-0.369c-0.04037,-0.12361 -0.0603,-0.25297 -0.059,-0.383c0,-0.31267 0.09267,-0.573 0.278,-0.781z" fill="#ff0000" fill-rule="evenodd" stroke="#ff0000" stroke-linecap="round"/><path d="M235.25738,183.99159v-23.99999h17.52941v23.99999z" fill="none" fill-rule="nonzero" stroke="#000000" stroke-linecap="butt"/></g></g></svg>