<svg version="1.1" xmlns="http://www.w3.org/2000/svg" xmlns:xlink="http://www.w3.org/1999/xlink" width="17.52941" height="23.99999" viewBox="0,0,17.52941,23.99999"><g transform="translate(-235.25737,-159.99159)"><g data-paper-data="{&quot;isPaintingLayer&quot;:true}" stroke-width="0" stroke-linejoin="miter" stroke-miterlimit="10" stroke-dasharray="" stroke-dashoffset="0" style="mix-blend-mode: normal"><path d="M245.51188,179.7565c-0.26802,0.14656 -0.55461,0.25622 -0.852,0.326c-0.3193,0.07424 -0.64619,0.11082 -0.974,0.109c-0.18444,0.00017 -0.36874,-0.01018 -0.552,-0.031c-0.3257,-0.03544 -0.64558,-0.11205 -0.952,-0.228c-0.44461,-0.16952 -0.84037,-0.44641 -1.152,-0.806c-0.17668,-0.20399 -0.32749,-0.42903 -0.449,-0.67c-0.11687,-0.23146 -0.21324,-0.47272 -0.288,-0.721c-0.10267,-0.33467 -0.17467,-0.70867 -0.216,-1.122c-0.02943,-0.30076 -0.04379,-0.6028 -0.043,-0.905v-6.279h1.806v6.299c0,0.57267 0.04567,1.048 0.137,1.426c0.05,0.206 0.11367,0.389 0.191,0.549c0.0588,0.12466 0.13233,0.24183 0.219,0.349c0.18267,0.228 0.40567,0.38767 0.669,0.479c0.00067,0 0.00133,0 0.002,0c0.14,0.048 0.29133,0.08333 0.454,0.106c0.15146,0.02048 0.30416,0.03051 0.457,0.03c0.17475,0.0005 0.34938,-0.00918 0.523,-0.029c0.18985,-0.02127 0.37754,-0.05874 0.561,-0.112c0.10654,-0.03147 0.21135,-0.06852 0.314,-0.111c0.1825,-0.0746 0.35567,-0.17025 0.516,-0.285c0.19552,-0.13675 0.36858,-0.30307 0.513,-0.493c0.14756,-0.19407 0.2705,-0.40568 0.366,-0.63v-7.578h1.817v10.566h-1.641l-0.107,-1.455c-0.3352,0.50574 -0.78773,0.92293 -1.319,1.216z" fill="#ff0000" fill-rule="evenodd" stroke="#ff0000" stroke-linecap="round"/><path d="M235.25738,183.99159v-23.99999h17.52941v23.99999z" fill="none" fill-rule="nonzero" stroke="#000000" stroke-linecap="butt"/></g></g></svg>