<svg version="1.1" xmlns="http://www.w3.org/2000/svg" xmlns:xlink="http://www.w3.org/1999/xlink" width="17.52941" height="23.99999" viewBox="0,0,17.52941,23.99999"><g transform="translate(-235.25737,-159.99159)"><g data-paper-data="{&quot;isPaintingLayer&quot;:true}" stroke-width="0" stroke-linejoin="miter" stroke-miterlimit="10" stroke-dasharray="" stroke-dashoffset="0" style="mix-blend-mode: normal"><path d="M243.36645,169.73749c0.26723,-0.14858 0.55124,-0.26473 0.846,-0.346c0.39404,-0.10681 0.80075,-0.15963 1.209,-0.157c0.08402,-0.00008 0.16803,0.00126 0.252,0.004c0.26351,0.00926 0.52645,0.03061 0.788,0.064c0.03604,0.00471 0.07204,0.00971 0.108,0.015c0.308,0.04333 0.544,0.10033 0.708,0.171l-0.244,1.767c-0.12884,-0.0287 -0.2582,-0.05503 -0.388,-0.079c-0.20321,-0.03772 -0.40767,-0.0684 -0.613,-0.092c-0.07988,-0.00887 -0.15989,-0.01654 -0.24,-0.023c-0.25014,-0.02039 -0.50103,-0.0304 -0.752,-0.03c-0.17636,-0.00057 -0.35262,0.00845 -0.528,0.027c-0.22795,0.02404 -0.45322,0.0689 -0.673,0.134c-0.358,0.10733 -0.67033,0.265 -0.937,0.473c-0.0077,0.00596 -0.01537,0.01196 -0.023,0.018c-0.23557,0.18345 -0.44046,0.40319 -0.607,0.651c-0.04525,0.06655 -0.08828,0.13459 -0.129,0.204c-0.12606,0.21645 -0.23184,0.44408 -0.316,0.68v6.777h-1.816v-10.566h1.719l0.078,1.416l0.01,0.264c0.41145,-0.56322 0.93944,-1.03117 1.548,-1.372z" fill="#ff0000" fill-rule="evenodd" stroke="#ff0000" stroke-linecap="round"/><path d="M235.25738,183.99159v-23.99999h17.52941v23.99999z" fill="none" fill-rule="nonzero" stroke="#000000" stroke-linecap="butt"/></g></g></svg>