<svg version="1.1" xmlns="http://www.w3.org/2000/svg" xmlns:xlink="http://www.w3.org/1999/xlink" width="17.52941" height="23.99999" viewBox="0,0,17.52941,23.99999"><g transform="translate(-235.25736,-159.9916)"><g data-paper-data="{&quot;isPaintingLayer&quot;:true}" stroke-width="0" stroke-linejoin="miter" stroke-miterlimit="10" stroke-dasharray="" stroke-dashoffset="0" style="mix-blend-mode: normal"><path d="M240.19175,165.79017h1.816v9.619h-1.816zM240.29375,178.28017c0.052,-0.0581 0.11192,-0.1086 0.178,-0.15c0.17067,-0.10867 0.38967,-0.163 0.657,-0.163c0.15133,0 0.28767,0.01733 0.409,0.052c0.16691,0.04444 0.31798,0.13488 0.436,0.261c0.10437,0.11231 0.18287,0.24611 0.23,0.392c0.03966,0.12581 0.05923,0.25709 0.058,0.389c0,0.29933 -0.096,0.55 -0.288,0.752c-0.05107,0.05387 -0.10888,0.10093 -0.172,0.14c-0.09933,0.06133 -0.214,0.10533 -0.344,0.132c-0.10834,0.02144 -0.21857,0.03182 -0.329,0.031c-0.16533,0 -0.312,-0.02 -0.44,-0.06c-0.15107,-0.04413 -0.28749,-0.12806 -0.395,-0.243c-0.09834,-0.10608 -0.17299,-0.23186 -0.219,-0.369c-0.04037,-0.12361 -0.0603,-0.25297 -0.059,-0.383c0,-0.31267 0.09267,-0.573 0.278,-0.781z" fill="#ff0000" fill-rule="evenodd" stroke="#ff0000" stroke-linecap="round"/><path d="M235.25737,183.99159v-23.99999h17.52941v23.99999z" fill="none" fill-rule="nonzero" stroke="#000000" stroke-linecap="butt"/></g></g></svg>