<svg version="1.1" xmlns="http://www.w3.org/2000/svg" xmlns:xlink="http://www.w3.org/1999/xlink" width="17.52942" height="24" viewBox="0,0,17.52942,24"><g transform="translate(-235.25737,-159.99159)"><g data-paper-data="{&quot;isPaintingLayer&quot;:true}" stroke-width="0" stroke-linejoin="miter" stroke-miterlimit="10" stroke-dasharray="" stroke-dashoffset="0" style="mix-blend-mode: normal"><path d="M235.25738,183.9916v-24h17.52941v24z" fill="none" fill-rule="nonzero" stroke="#000000" stroke-linecap="butt"/><path d="M249.84639,175.2948c-0.0795,0.51006 -0.20536,1.0118 -0.376,1.499c-0.16933,0.482 -0.38567,0.93133 -0.649,1.348c-0.25781,0.40981 -0.57569,0.77858 -0.943,1.094c-0.37192,0.31678 -0.79629,0.56619 -1.254,0.737c-0.22758,0.08573 -0.46258,0.15034 -0.702,0.193c-0.29214,0.05171 -0.58832,0.07714 -0.885,0.076c-0.20384,0.0003 -0.40753,-0.01138 -0.61,-0.035c-0.33403,-0.03766 -0.66215,-0.11625 -0.977,-0.234c-0.45806,-0.17071 -0.88278,-0.42012 -1.255,-0.737c-0.36851,-0.31725 -0.68768,-0.68765 -0.947,-1.099c-0.26928,-0.42416 -0.48905,-0.87778 -0.655,-1.352c-0.17533,-0.482 -0.30533,-0.98 -0.39,-1.494c-0.08467,-0.51467 -0.13033,-1.026 -0.137,-1.534v-1.621c0.00667,-0.50733 0.05067,-1.02 0.132,-1.538c0.08133,-0.51733 0.21,-1.017 0.386,-1.499c0.16867,-0.48133 0.385,-0.932 0.649,-1.352c0.25809,-0.41373 0.57547,-0.78738 0.942,-1.109c0.37222,-0.31688 0.79694,-0.56629 1.255,-0.737c0.22758,-0.08573 0.46258,-0.15034 0.702,-0.193c0.29214,-0.05171 0.58832,-0.07714 0.885,-0.076c0.19544,-0.00026 0.39075,0.01042 0.585,0.032c0.34421,0.03684 0.68249,0.11646 1.007,0.237c0.0147,0.00559 0.02936,0.01126 0.044,0.017c0.44335,0.16905 0.85459,0.41255 1.216,0.72c0.36467,0.31267 0.67867,0.679 0.942,1.099c0.26671,0.42618 0.4876,0.87937 0.659,1.352c0.17104,0.48879 0.2969,0.99223 0.376,1.504c0.08056,0.51055 0.12467,1.02619 0.132,1.543v1.621c-0.00667,0.508 -0.05067,1.02067 -0.132,1.538zM248.12339,171.0568c-0.03976,-0.37011 -0.10525,-0.737 -0.196,-1.098c-0.09733,-0.35867 -0.22433,-0.70233 -0.381,-1.031c-0.156,-0.32867 -0.35133,-0.62 -0.586,-0.874c-0.234,-0.24733 -0.51067,-0.44433 -0.83,-0.591c-0.31867,-0.146 -0.68967,-0.219 -1.113,-0.219c-0.14989,-0.00064 -0.29963,0.00973 -0.448,0.031c-0.2266,0.03193 -0.44729,0.09696 -0.655,0.193c-0.31174,0.14462 -0.59334,0.34683 -0.83,0.596c-0.23848,0.25997 -0.43607,0.55466 -0.586,0.874c-0.15684,0.33046 -0.28109,0.67543 -0.371,1.03c-0.09692,0.36067 -0.16711,0.728 -0.21,1.099c-0.01323,0.11317 -0.02489,0.22651 -0.035,0.34c-0.02097,0.23616 -0.03398,0.47296 -0.039,0.71v1.64c0.00259,0.12742 0.00759,0.25477 0.015,0.382c0.01337,0.22484 0.03305,0.44926 0.059,0.673c0.04199,0.36949 0.1122,0.73522 0.21,1.094c0.09733,0.36467 0.224,0.713 0.38,1.045c0.01958,0.04104 0.03992,0.08171 0.061,0.122c0.13885,0.27254 0.31561,0.52404 0.525,0.747c0.23456,0.25387 0.51653,0.45939 0.83,0.605c0.17611,0.08192 0.36194,0.14106 0.553,0.176c0.18508,0.03365 0.37289,0.05005 0.561,0.049c0.15796,0.00057 0.31575,-0.0108 0.472,-0.034c0.22333,-0.0326 0.44085,-0.09691 0.646,-0.191c0.322,-0.14933 0.60033,-0.351 0.835,-0.605c0.04998,-0.05428 0.09801,-0.11031 0.144,-0.168c0.1695,-0.2142 0.31285,-0.44785 0.427,-0.696c0.15333,-0.32933 0.27867,-0.676 0.376,-1.04c0.09121,-0.35927 0.15473,-0.72501 0.19,-1.094c0.00918,-0.09326 0.01752,-0.18659 0.025,-0.28c0.02069,-0.26123 0.03369,-0.52301 0.039,-0.785v-1.64c-0.00667,-0.33867 -0.02933,-0.692 -0.068,-1.06z" fill="#ff0000" fill-rule="evenodd" stroke="#ff0000" stroke-linecap="round"/><path d="M235.25739,183.9916v-23.99999h17.52941v23.99999z" fill="none" fill-rule="nonzero" stroke="#000000" stroke-linecap="butt"/></g></g></svg>