<svg version="1.1" xmlns="http://www.w3.org/2000/svg" xmlns:xlink="http://www.w3.org/1999/xlink" width="17.52941" height="23.99999" viewBox="0,0,17.52941,23.99999"><g transform="translate(-235.25737,-159.99159)"><g data-paper-data="{&quot;isPaintingLayer&quot;:true}" stroke-width="0" stroke-linejoin="miter" stroke-miterlimit="10" stroke-dasharray="" stroke-dashoffset="0" style="mix-blend-mode: normal"><path d="M248.42088,179.03749c-0.24088,0.19788 -0.49701,0.37644 -0.766,0.534c-0.41667,0.24533 -0.891,0.418 -1.423,0.518c-0.38602,0.07001 -0.77769,0.10416 -1.17,0.102c-0.15951,0.00017 -0.31896,-0.00584 -0.478,-0.018c-0.53839,-0.03857 -1.06744,-0.16104 -1.568,-0.363c-0.01938,-0.00789 -0.03871,-0.01589 -0.058,-0.024c-0.57811,-0.23937 -1.10166,-0.59351 -1.539,-1.041c-0.04812,-0.04962 -0.09513,-0.1003 -0.141,-0.152c-0.38211,-0.43325 -0.68476,-0.93055 -0.894,-1.469c-0.24733,-0.62467 -0.371,-1.305 -0.371,-2.041v-0.41c-0.00064,-0.30826 0.01873,-0.61625 0.058,-0.922c0.05833,-0.46918 0.17663,-0.92894 0.352,-1.368c0.06683,-0.16518 0.1409,-0.32734 0.222,-0.486c0.22766,-0.45061 0.5216,-0.86455 0.872,-1.228c0.43678,-0.45345 0.95966,-0.81518 1.538,-1.064c0.576,-0.24733 1.167,-0.371 1.773,-0.371c0.30539,-0.00131 0.61039,0.0221 0.912,0.07c0.37476,0.05848 0.7398,0.16783 1.085,0.325c0.5509,0.24924 1.0371,0.62185 1.421,1.089c0.12427,0.15477 0.23786,0.31781 0.34,0.488c0.21716,0.3641 0.38656,0.75464 0.504,1.162c0.06751,0.23081 0.12226,0.46517 0.164,0.702c0.07783,0.44542 0.11631,0.89683 0.115,1.349v0.811h-7.549v0.068c0.01938,0.22955 0.05311,0.45766 0.101,0.683c0.04894,0.23055 0.11787,0.45641 0.206,0.675c0.15464,0.38257 0.37837,0.73341 0.66,1.035c0.28844,0.32048 0.64108,0.57669 1.035,0.752c0.15239,0.0685 0.31028,0.12403 0.472,0.166c0.28289,0.07262 0.57394,0.10858 0.866,0.107c0.17849,0.00025 0.35682,-0.01044 0.534,-0.032c0.41294,-0.04735 0.814,-0.16862 1.184,-0.358c0.50133,-0.26067 0.918,-0.606 1.25,-1.036l1.104,0.86c-0.20867,0.31667 -0.479,0.61233 -0.811,0.887zM247.51388,173.14349c-0.03331,-0.18137 -0.07942,-0.36015 -0.138,-0.535c-0.03394,-0.10307 -0.07265,-0.20452 -0.116,-0.304c-0.10301,-0.23969 -0.23789,-0.46438 -0.401,-0.668c-0.04884,-0.06014 -0.10057,-0.11787 -0.155,-0.173c-0.19825,-0.1998 -0.42798,-0.36567 -0.68,-0.491c-0.19771,-0.09811 -0.40855,-0.16715 -0.626,-0.205c-0.18814,-0.03341 -0.37891,-0.04981 -0.57,-0.049c-0.36467,0 -0.71,0.06667 -1.036,0.2c-0.32748,0.13507 -0.62566,0.33238 -0.878,0.581c-0.10773,0.10783 -0.20734,0.22347 -0.298,0.346c-0.13978,0.18995 -0.261,0.39288 -0.362,0.606c-0.17867,0.37467 -0.304,0.806 -0.376,1.294h5.684v-0.087c-0.00071,-0.17275 -0.01678,-0.34509 -0.048,-0.515z" fill="#ff0000" fill-rule="evenodd" stroke="#ff0000" stroke-linecap="round"/><path d="M235.25738,183.99159v-23.99999h17.52941v23.99999z" fill="none" fill-rule="nonzero" stroke="#000000" stroke-linecap="butt"/></g></g></svg>