<svg version="1.1" xmlns="http://www.w3.org/2000/svg" xmlns:xlink="http://www.w3.org/1999/xlink" width="509" height="99" viewBox="0,0,509,99"><g transform="translate(13.5,-276.5)"><g data-paper-data="{&quot;isPaintingLayer&quot;:true}" fill-rule="nonzero" stroke="none" stroke-linecap="butt" stroke-linejoin="miter" stroke-miterlimit="10" stroke-dasharray="" stroke-dashoffset="0" style="mix-blend-mode: normal"><path d="M-13.5,375.5v-99h509v99z" fill="#3df200" stroke-width="0"/><g><path d="M15.41079,316.3342c0,-17.26167 13.99335,-31.25501 31.25501,-31.25501c17.26167,0 31.25501,13.99335 31.25501,31.25501c0,17.26167 -13.99335,31.25501 -31.25501,31.25501c-17.26167,0 -31.25501,-13.99335 -31.25501,-31.25501z" fill="#ffffff" stroke-width="0"/><path d="M63.19565,307.64787l-19.33272,19.43861c-0.76673,0.77116 -1.78783,1.19571 -2.87574,1.19571c0,0 0,0 -0.00028,0c-0.67987,0 -1.35325,-0.1712 -1.94733,-0.49579c-0.05449,-0.02874 -0.1148,-0.06535 -0.17512,-0.10193l-0.03858,-0.02346c-0.03014,-0.01786 -0.06032,-0.03658 -0.08989,-0.05617c-0.25279,-0.16392 -0.49215,-0.35999 -0.70081,-0.57593l-6.1048,-6.32042c-1.55543,-1.61047 -1.51073,-4.18621 0.10002,-5.74225c0.7608,-0.73487 1.76241,-1.13959 2.82013,-1.13959c1.11193,0 2.14899,0.44051 2.92155,1.23984l3.24749,3.36202l16.41793,-16.50726c0.7678,-0.77228 1.79063,-1.19739 2.87965,-1.19739c1.08007,0 2.09702,0.41924 2.86259,1.18121c1.58757,1.57889 1.59458,4.15552 0.01592,5.7428z" fill="#284a00" stroke-width="0.59874"/><path d="M62.60101,307.05743l-19.33272,19.43861c-1.03431,1.04014 -2.60149,1.22445 -3.82762,0.55522c-0.05365,-0.02874 -0.10533,-0.06116 -0.15782,-0.09269c-0.02711,-0.01707 -0.05421,-0.03242 -0.08075,-0.04973c-0.2005,-0.13043 -0.39101,-0.28293 -0.56446,-0.46253l-6.10453,-6.31986c-1.23649,-1.28033 -1.20131,-3.32068 0.07931,-4.55745c1.27982,-1.2362 3.31984,-1.20075 4.55661,0.07958l3.84189,3.97704l17.02092,-17.11366c1.25519,-1.26219 3.29554,-1.26779 4.55689,-0.01283c1.26247,1.25547 1.26779,3.29582 0.01227,4.55828z" fill="#3cf300" stroke-width="0.59874"/></g><text transform="translate(97.56607,307.71256) scale(0.52865,0.52865)" font-size="40" xml:space="preserve" fill="#000000" fill-rule="nonzero" stroke="none" stroke-width="1" stroke-linecap="butt" stroke-linejoin="miter" stroke-miterlimit="10" stroke-dasharray="" stroke-dashoffset="0" font-family="Sans Serif" font-weight="normal" text-anchor="start" style="mix-blend-mode: normal"><tspan x="0" dy="0">The answer of the question is:</tspan></text></g></g></svg>