<svg version="1.1" xmlns="http://www.w3.org/2000/svg" xmlns:xlink="http://www.w3.org/1999/xlink" width="17.52941" height="24.27195" viewBox="0,0,17.52941,24.27195"><g transform="translate(-235.25737,-159.99159)"><g data-paper-data="{&quot;isPaintingLayer&quot;:true}" stroke-width="0" stroke-linejoin="miter" stroke-miterlimit="10" stroke-dasharray="" stroke-dashoffset="0" style="mix-blend-mode: normal"><path d="M245.06702,182.0495c-0.08275,0.15131 -0.17013,0.30005 -0.262,0.446c-0.192,0.306 -0.425,0.58933 -0.699,0.85c-0.05121,0.04893 -0.1039,0.09629 -0.158,0.142c-0.24381,0.2035 -0.51225,0.37552 -0.799,0.512c-0.18877,0.09036 -0.38793,0.15719 -0.593,0.199c-0.2192,0.04434 -0.44236,0.06612 -0.666,0.065c-0.03268,-0.00001 -0.06535,-0.00067 -0.098,-0.002c-0.07333,-0.00267 -0.15167,-0.009 -0.235,-0.019c-0.08801,-0.01019 -0.17571,-0.02286 -0.263,-0.038c-0.05036,-0.0085 -0.1007,-0.01717 -0.151,-0.026c-0.15467,-0.02733 -0.277,-0.051 -0.367,-0.071l0.293,-1.475c0.16122,0.01284 0.32256,0.02418 0.484,0.034c0.11933,0.00733 0.21967,0.012 0.301,0.014c0.025,0.00061 0.05,0.00095 0.075,0.001c0.24733,0 0.47333,-0.06833 0.678,-0.205c0.20535,-0.13679 0.39106,-0.30097 0.552,-0.488c0.00502,-0.00599 0.01002,-0.01199 0.015,-0.018c0.14608,-0.17778 0.27656,-0.36781 0.39,-0.568c0.01204,-0.02098 0.02404,-0.04198 0.036,-0.063c0.07,-0.12533 0.13,-0.23567 0.18,-0.331c0.01797,-0.03451 0.03563,-0.06918 0.053,-0.104l0.723,-1.407l-4.551,-10.068h2.021l2.901,6.816l0.469,1.28l0.498,-1.24l2.724,-6.856h2.022l-5.362,12.197c-0.06508,0.14356 -0.13547,0.28465 -0.211,0.423z" fill="#ff0000" fill-rule="evenodd" stroke="#ff0000" stroke-linecap="round"/><path d="M235.25738,183.99159v-23.99999h17.52941v23.99999z" fill="none" fill-rule="nonzero" stroke="#000000" stroke-linecap="butt"/></g></g></svg>