<svg version="1.1" xmlns="http://www.w3.org/2000/svg" xmlns:xlink="http://www.w3.org/1999/xlink" width="17.52941" height="23.99999" viewBox="0,0,17.52941,23.99999"><g transform="translate(-235.25737,-159.99159)"><g data-paper-data="{&quot;isPaintingLayer&quot;:true}" stroke-width="0" stroke-linejoin="miter" stroke-miterlimit="10" stroke-dasharray="" stroke-dashoffset="0" style="mix-blend-mode: normal"><path d="M240.04123,180.0458v-14.218h4.609c0.638,0.01267 1.242,0.11333 1.812,0.302c0.56933,0.18933 1.069,0.463 1.499,0.821c0.43305,0.36272 0.78124,0.81605 1.02,1.328c0.12768,0.27068 0.22236,0.55572 0.282,0.849c0.06421,0.31829 0.0957,0.64231 0.094,0.967c0.00106,0.24629 -0.01632,0.49231 -0.052,0.736c-0.05389,0.37278 -0.16309,0.73544 -0.324,1.076c-0.25067,0.524 -0.59067,0.965 -1.02,1.323c-0.43,0.358 -0.92967,0.63133 -1.499,0.82c-0.07121,0.02378 -0.14289,0.04612 -0.215,0.067c-0.51968,0.14711 -1.0569,0.22313 -1.597,0.226h-2.802v5.703zM244.96623,172.8418c0.28562,-0.0253 0.56688,-0.0868 0.837,-0.183c0.02445,-0.00903 0.04878,-0.01836 0.073,-0.028c0.31059,-0.1185 0.59695,-0.29268 0.845,-0.514c0.26261,-0.23768 0.4707,-0.52935 0.61,-0.855c0.07486,-0.17263 0.1302,-0.35308 0.165,-0.538c0.03751,-0.20081 0.05593,-0.40472 0.055,-0.609c0,-0.43 -0.07333,-0.81733 -0.22,-1.162c-0.01376,-0.03225 -0.0281,-0.06426 -0.043,-0.096c-0.13488,-0.2939 -0.32422,-0.55958 -0.558,-0.783c-0.26,-0.24133 -0.56733,-0.427 -0.922,-0.557c-0.11778,-0.04302 -0.23799,-0.07908 -0.36,-0.108c-0.26165,-0.06143 -0.52925,-0.09396 -0.798,-0.097h-2.802v5.547h2.802c0.10551,-0.00155 0.21093,-0.00722 0.316,-0.017z" fill="#ff0000" fill-rule="evenodd" stroke="#ff0000" stroke-linecap="round"/><path d="M235.25738,183.99159v-23.99999h17.52941v23.99999z" fill="none" fill-rule="nonzero" stroke="#000000" stroke-linecap="butt"/></g></g></svg>