<svg version="1.1" xmlns="http://www.w3.org/2000/svg" xmlns:xlink="http://www.w3.org/1999/xlink" width="17.52941" height="23.99999" viewBox="0,0,17.52941,23.99999"><g transform="translate(-235.25737,-159.99159)"><g data-paper-data="{&quot;isPaintingLayer&quot;:true}" stroke-width="0" stroke-linejoin="miter" stroke-miterlimit="10" stroke-dasharray="" stroke-dashoffset="0" style="mix-blend-mode: normal"><path d="M249.85438,176.10566c-0.08936,0.48931 -0.23918,0.96563 -0.446,1.418c-0.03157,0.06803 -0.06457,0.13537 -0.099,0.202c-0.22756,0.44906 -0.52758,0.85753 -0.888,1.209c-0.4168,0.40147 -0.90984,0.71532 -1.45,0.923c-0.24863,0.09669 -0.50529,0.17131 -0.767,0.223c-0.36001,0.07066 -0.72613,0.1055 -1.093,0.104c-0.2041,0.0004 -0.40806,-0.01028 -0.611,-0.032c-0.33579,-0.03495 -0.66656,-0.10775 -0.986,-0.217c-0.0449,-0.01568 -0.08957,-0.03201 -0.134,-0.049c-0.41053,-0.15369 -0.79502,-0.36955 -1.14,-0.64c-0.37651,-0.29163 -0.70456,-0.64094 -0.972,-1.035c-0.2741,-0.40472 -0.4987,-0.84083 -0.669,-1.299c-0.18432,-0.47643 -0.32001,-0.97027 -0.405,-1.474c-0.088,-0.51467 -0.13533,-1.03567 -0.142,-1.563v-1.982c0.00667,-0.52733 0.054,-1.04833 0.142,-1.563c0.08499,-0.50373 0.22068,-0.99757 0.405,-1.474c0.17095,-0.45946 0.3955,-0.89715 0.669,-1.304c0.26645,-0.3963 0.5946,-0.7474 0.972,-1.04c0.05202,-0.04128 0.10503,-0.0813 0.159,-0.12c0.34107,-0.24147 0.71483,-0.43307 1.11,-0.569c0.23207,-0.08009 0.47062,-0.13997 0.713,-0.179c0.29393,-0.04755 0.59125,-0.07096 0.889,-0.07c0.26647,-0.00063 0.5327,0.01607 0.797,0.05c0.37887,0.04764 0.75057,0.14099 1.107,0.278c0.02609,0.01011 0.05209,0.02044 0.078,0.031c0.50962,0.20462 0.97408,0.50735 1.367,0.891c0.08236,0.08216 0.16143,0.16756 0.237,0.256c0.30251,0.35813 0.55021,0.75916 0.735,1.19c0.08698,0.19962 0.16277,0.40394 0.227,0.612c0.12384,0.40551 0.20987,0.82162 0.257,1.243h-1.807c-0.01126,-0.08293 -0.02426,-0.16562 -0.039,-0.248c-0.05744,-0.32535 -0.14584,-0.64447 -0.264,-0.953c-0.01776,-0.04603 -0.03643,-0.09171 -0.056,-0.137c-0.12964,-0.3048 -0.30499,-0.58805 -0.52,-0.84c-0.24308,-0.28151 -0.5448,-0.50643 -0.884,-0.659c-0.00765,-0.00338 -0.01531,-0.00671 -0.023,-0.01c-0.18933,-0.08467 -0.39767,-0.14567 -0.625,-0.183c-0.19407,-0.03142 -0.3904,-0.0468 -0.587,-0.046c-0.16999,-0.00058 -0.33979,0.01145 -0.508,0.036c-0.21654,0.03097 -0.42825,0.08945 -0.63,0.174c-0.02044,0.00877 -0.04077,0.01777 -0.061,0.027c-0.29326,0.13034 -0.55926,0.31491 -0.784,0.544c-0.24067,0.24133 -0.44067,0.52133 -0.6,0.84c-0.16189,0.32509 -0.29119,0.66542 -0.386,1.016c-0.09733,0.358 -0.16733,0.724 -0.21,1.098c-0.00531,0.04663 -0.01031,0.0933 -0.015,0.14c-0.0317,0.31534 -0.04772,0.63207 -0.048,0.949v2.002c-0.00002,0.04567 0.00031,0.09134 0.001,0.137c0.00524,0.31815 0.02593,0.63586 0.062,0.952c0.04267,0.37467 0.11267,0.741 0.21,1.099c0.0062,0.0227 0.01254,0.04537 0.019,0.068c0.09127,0.32936 0.21244,0.64969 0.362,0.957c0.15068,0.31113 0.3521,0.59501 0.596,0.84c0.24172,0.24799 0.53031,0.44548 0.849,0.581c0.18715,0.07922 0.38326,0.13531 0.584,0.167c0.18486,0.02948 0.37181,0.04386 0.559,0.043c0.22467,0 0.435,-0.01667 0.631,-0.05c0.20756,-0.03418 0.41032,-0.09293 0.604,-0.175c0.33845,-0.14242 0.64057,-0.35909 0.884,-0.634c0.07949,-0.08858 0.15331,-0.1821 0.221,-0.28c0.14456,-0.20949 0.26373,-0.4354 0.355,-0.673c0.04072,-0.10433 0.07774,-0.21006 0.111,-0.317c0.08812,-0.28721 0.15234,-0.58121 0.192,-0.879h1.807c-0.01692,0.1319 -0.03759,0.26328 -0.062,0.394z" fill="#ff0000" fill-rule="evenodd" stroke="#ff0000" stroke-linecap="round"/><path d="M235.25738,183.99159v-23.99999h17.52941v23.99999z" fill="none" fill-rule="nonzero" stroke="#000000" stroke-linecap="butt"/></g></g></svg>