<svg version="1.1" xmlns="http://www.w3.org/2000/svg" xmlns:xlink="http://www.w3.org/1999/xlink" width="17.52941" height="23.99999" viewBox="0,0,17.52941,23.99999"><g transform="translate(-235.25737,-159.99159)"><g data-paper-data="{&quot;isPaintingLayer&quot;:true}" stroke-width="0" stroke-linejoin="miter" stroke-miterlimit="10" stroke-dasharray="" stroke-dashoffset="0" style="mix-blend-mode: normal"><path d="M240.06117,178.78117c0.00388,-0.34195 0.12816,-0.6716 0.351,-0.931c0.06259,-0.07321 0.13493,-0.13748 0.215,-0.191c0.21867,-0.146 0.50167,-0.219 0.849,-0.219c0.17933,0 0.34233,0.01967 0.489,0.059c0.22303,0.05609 0.42469,0.17639 0.58,0.346c0.12179,0.13335 0.21624,0.28929 0.278,0.459c0.06061,0.1711 0.09073,0.3515 0.089,0.533c0.00003,0.02067 -0.0003,0.04134 -0.001,0.062c-0.00491,0.33721 -0.13707,0.66012 -0.37,0.904c-0.05054,0.05327 -0.10613,0.10149 -0.166,0.144c-0.136,0.09667 -0.29567,0.165 -0.479,0.205c-0.1381,0.02898 -0.2789,0.04306 -0.42,0.042c-0.194,0 -0.36833,-0.02267 -0.523,-0.068c-0.20602,-0.05661 -0.39183,-0.17032 -0.536,-0.328c-0.11454,-0.12543 -0.20444,-0.2713 -0.265,-0.43c-0.06262,-0.16995 -0.0938,-0.34988 -0.092,-0.531c0.00005,-0.01867 0.00038,-0.03734 0.001,-0.056z" fill="#ff0000" fill-rule="evenodd" stroke="#ff0000" stroke-linecap="round"/><path d="M235.25738,183.99159v-23.99999h17.52941v23.99999z" fill="none" fill-rule="nonzero" stroke="#000000" stroke-linecap="butt"/></g></g></svg>