<svg version="1.1" xmlns="http://www.w3.org/2000/svg" xmlns:xlink="http://www.w3.org/1999/xlink" width="17.52941" height="24" viewBox="0,0,17.52941,24"><g transform="translate(-235.25736,-159.99159)"><g data-paper-data="{&quot;isPaintingLayer&quot;:true}" stroke-width="0" stroke-linejoin="miter" stroke-miterlimit="10" stroke-dasharray="" stroke-dashoffset="0" style="mix-blend-mode: normal"><path d="M247.13974,179.36417c-0.19867,0.13 -0.402,0.244 -0.61,0.342c-0.34503,0.16272 -0.70686,0.28713 -1.079,0.371c-0.38007,0.08531 -0.76848,0.12791 -1.158,0.127c-0.23358,0.00041 -0.46699,-0.01295 -0.699,-0.04c-0.35785,-0.04041 -0.70984,-0.12194 -1.049,-0.243c-0.12764,-0.04625 -0.25311,-0.0983 -0.376,-0.156c-0.34838,-0.16096 -0.66956,-0.37519 -0.952,-0.635c-0.36467,-0.33867 -0.646,-0.744 -0.844,-1.216c-0.06563,-0.1557 -0.12043,-0.31575 -0.164,-0.479c-0.09106,-0.34897 -0.13611,-0.70835 -0.134,-1.069c-0.00014,-0.10711 0.00386,-0.21419 0.012,-0.321c0.02197,-0.30337 0.08349,-0.60257 0.183,-0.89c0.13,-0.37133 0.31233,-0.71967 0.547,-1.045c0.01877,-0.02584 0.03777,-0.0515 0.057,-0.077c0.1941,-0.25176 0.40848,-0.48721 0.641,-0.704c0.264,-0.24733 0.55533,-0.49167 0.874,-0.733l0.352,-0.254c-0.08831,-0.11914 -0.17499,-0.23948 -0.26,-0.361c-0.13334,-0.1903 -0.26172,-0.38403 -0.385,-0.581c-0.18867,-0.30267 -0.345,-0.60067 -0.469,-0.894c-0.09637,-0.23727 -0.17297,-0.48211 -0.229,-0.732c-0.05565,-0.25017 -0.08348,-0.50572 -0.083,-0.762c-0.00069,-0.23086 0.01536,-0.46146 0.048,-0.69c0.03735,-0.26643 0.10478,-0.52776 0.201,-0.779c0.02036,-0.05286 0.04203,-0.10521 0.065,-0.157c0.15226,-0.34627 0.37068,-0.65946 0.643,-0.922c0.09585,-0.08988 0.19776,-0.17307 0.305,-0.249c0.24563,-0.17212 0.51426,-0.30879 0.798,-0.406c0.20802,-0.07178 0.4218,-0.12564 0.639,-0.161c0.26681,-0.04314 0.53673,-0.06421 0.807,-0.063c0.11987,-0.0002 0.23968,0.00548 0.359,0.017c0.31029,0.02845 0.61427,0.10503 0.901,0.227c0.04069,0.01755 0.08103,0.03588 0.121,0.055c0.31486,0.14814 0.60096,0.35095 0.845,0.599c0.26135,0.2811 0.46698,0.60924 0.606,0.967c0.14372,0.36699 0.21667,0.75787 0.215,1.152c0.00015,0.11524 -0.00586,0.2304 -0.018,0.345c-0.02093,0.20392 -0.06591,0.40465 -0.134,0.598c-0.10098,0.28288 -0.24064,0.55042 -0.415,0.795c-0.182,0.248 -0.39667,0.48267 -0.644,0.704c-0.04698,0.04174 -0.09431,0.08308 -0.142,0.124c-0.2135,0.18421 -0.43329,0.36098 -0.659,0.53l-0.918,0.781l2.998,3.936c0.228,-0.41667 0.407,-0.87233 0.537,-1.367c0.04944,-0.18924 0.08949,-0.38081 0.12,-0.574c0.05353,-0.34012 0.08194,-0.68371 0.085,-1.028h1.631c0.00023,0.20487 -0.00711,0.40967 -0.022,0.614c-0.04018,0.57999 -0.15238,1.15272 -0.334,1.705c-0.238,0.71333 -0.58467,1.35633 -1.04,1.929l1.767,2.314h-2.158l-0.811,-1.074c-0.18094,0.1554 -0.37166,0.29903 -0.571,0.43zM242.61374,174.56917c-0.02811,0.03498 -0.05578,0.07032 -0.083,0.106c-0.07933,0.10533 -0.15,0.20767 -0.212,0.307c-0.06049,0.09671 -0.11525,0.19688 -0.164,0.3c-0.01581,0.03244 -0.03114,0.06511 -0.046,0.098c-0.042,0.09267 -0.07733,0.18133 -0.106,0.266c-0.02833,0.08373 -0.05105,0.16925 -0.068,0.256c-0.036,0.18533 -0.054,0.34 -0.054,0.464c0.00011,0.05637 0.00178,0.11272 0.005,0.169c0.01298,0.25911 0.0642,0.51487 0.152,0.759c0.09987,0.27946 0.2561,0.53543 0.459,0.752c0.07596,0.08079 0.15859,0.15505 0.247,0.222c0.15507,0.11624 0.32446,0.21203 0.504,0.285c0.16944,0.06886 0.34628,0.11786 0.527,0.146c0.17132,0.02717 0.34454,0.04055 0.518,0.04c0.26733,0 0.531,-0.02933 0.791,-0.088c0.25887,-0.05809 0.51092,-0.14323 0.752,-0.254c0.17799,-0.07915 0.34951,-0.1721 0.513,-0.278c0.16803,-0.10919 0.32932,-0.2284 0.483,-0.357l-3.154,-4.209l-0.273,0.235c-0.326,0.26667 -0.58967,0.527 -0.791,0.781zM245.21074,170.40217c0.19733,-0.13467 0.36033,-0.27567 0.489,-0.423c0.0474,-0.05445 0.09212,-0.11119 0.134,-0.17c0.06496,-0.09084 0.12121,-0.1876 0.168,-0.289c0.072,-0.14933 0.12267,-0.30233 0.152,-0.459c0.00172,-0.00966 0.00339,-0.01932 0.005,-0.029c0.02551,-0.14192 0.03856,-0.2858 0.039,-0.43c0.00008,-0.19411 -0.03133,-0.38695 -0.093,-0.571c-0.00197,-0.00568 -0.00397,-0.01134 -0.006,-0.017c-0.05864,-0.17306 -0.1477,-0.33425 -0.263,-0.476c-0.12493,-0.13776 -0.27363,-0.25191 -0.439,-0.337c-0.07746,-0.04033 -0.15934,-0.07154 -0.244,-0.093c-0.10862,-0.02671 -0.22014,-0.03981 -0.332,-0.039c-0.10108,-0.00039 -0.20204,0.00696 -0.302,0.022c-0.15132,0.02213 -0.29836,0.06732 -0.436,0.134c-0.00635,0.00329 -0.01269,0.00663 -0.019,0.01c-0.19608,0.09755 -0.36792,0.23762 -0.503,0.41c-0.14333,0.176 -0.25067,0.37967 -0.322,0.611c-0.01575,0.0505 -0.02976,0.10153 -0.042,0.153c-0.04454,0.19145 -0.06669,0.38743 -0.066,0.584c0.00034,0.16553 0.01675,0.33064 0.049,0.493c0.03267,0.166 0.08167,0.33033 0.147,0.493c0.02483,0.06837 0.05151,0.13607 0.08,0.203c0.06593,0.15417 0.14003,0.30472 0.222,0.451c0.04768,0.08496 0.09702,0.16898 0.148,0.252c0.0898,0.1467 0.18384,0.29076 0.282,0.432l1.143,-0.908c0.003,-0.00233 0.006,-0.00466 0.009,-0.007z" fill="#ff0000" fill-rule="evenodd" stroke="#ff0000" stroke-linecap="round"/><path d="M235.25737,183.99159v-24h17.52941v24z" fill="none" fill-rule="nonzero" stroke="#000000" stroke-linecap="butt"/></g></g></svg>