<svg version="1.1" xmlns="http://www.w3.org/2000/svg" xmlns:xlink="http://www.w3.org/1999/xlink" width="17.52941" height="23.99999" viewBox="0,0,17.52941,23.99999"><g transform="translate(-235.25737,-159.99159)"><g data-paper-data="{&quot;isPaintingLayer&quot;:true}" stroke-width="0" stroke-linejoin="miter" stroke-miterlimit="10" stroke-dasharray="" stroke-dashoffset="0" style="mix-blend-mode: normal"><path d="M248.76989,169.54517c-0.00787,0.44305 -0.10019,0.88054 -0.272,1.289c-0.17157,0.40701 -0.4205,0.77685 -0.733,1.089c-0.00929,0.00905 -0.01862,0.01805 -0.028,0.027c-0.14633,0.14258 -0.30347,0.27364 -0.47,0.392c-0.18582,0.13248 -0.38176,0.25018 -0.586,0.352c0.00567,0.00232 0.01134,0.00466 0.017,0.007c0.34775,0.14914 0.67506,0.34203 0.974,0.574c0.29254,0.22715 0.55086,0.49523 0.767,0.796c0.20841,0.3 0.37118,0.62925 0.483,0.977c0.02342,0.07161 0.04443,0.14398 0.063,0.217c0.07324,0.29639 0.10952,0.6007 0.108,0.906c0.00054,0.21371 -0.01349,0.4272 -0.042,0.639c-0.04862,0.37366 -0.15453,0.7376 -0.314,1.079c-0.238,0.50133 -0.55867,0.92133 -0.962,1.26c-0.09636,0.08099 -0.19647,0.15741 -0.3,0.229c-0.34966,0.23977 -0.73233,0.4274 -1.136,0.557c-0.14609,0.04789 -0.29424,0.08926 -0.444,0.124c-0.43073,0.09813 -0.87124,0.14678 -1.313,0.145c-0.14746,-0.00008 -0.29487,-0.00508 -0.442,-0.015c-0.45545,-0.02824 -0.90577,-0.11186 -1.341,-0.249c-0.08483,-0.02727 -0.16886,-0.05695 -0.252,-0.089c-0.42944,-0.16142 -0.82791,-0.3955 -1.178,-0.692c-0.41291,-0.34201 -0.74343,-0.77268 -0.967,-1.26c-0.11984,-0.25856 -0.20846,-0.53048 -0.264,-0.81c-0.05992,-0.30229 -0.0894,-0.60983 -0.088,-0.918c0.00017,-0.03734 0.00084,-0.07468 0.002,-0.112c0.00745,-0.34462 0.06264,-0.68654 0.164,-1.016c0.1083,-0.34998 0.26986,-0.6812 0.479,-0.982c0.208,-0.29267 0.45867,-0.55633 0.752,-0.791c0.29267,-0.234 0.62133,-0.42933 0.986,-0.586c-0.30501,-0.15134 -0.59017,-0.33977 -0.849,-0.561c-0.24978,-0.21329 -0.46707,-0.46192 -0.645,-0.738c-0.176,-0.26667 -0.31267,-0.55967 -0.41,-0.879c-0.098,-0.31867 -0.147,-0.65367 -0.147,-1.005c-0.00057,-0.22341 0.01413,-0.4466 0.044,-0.668c0.04471,-0.33996 0.13519,-0.6723 0.269,-0.988c0.208,-0.48467 0.49767,-0.893 0.869,-1.225c0.36467,-0.332 0.80267,-0.586 1.314,-0.762c0.19422,-0.06676 0.39265,-0.12055 0.594,-0.161c0.3557,-0.07003 0.71748,-0.10453 1.08,-0.103c0.12911,0.00006 0.25818,0.0044 0.387,0.013c0.43686,0.02674 0.86827,0.11114 1.283,0.251c0.06588,0.02248 0.13123,0.04648 0.196,0.072c0.41788,0.16187 0.80433,0.39537 1.142,0.69c0.03532,0.03094 0.06999,0.06262 0.104,0.095c0.33365,0.32119 0.60044,0.70523 0.785,1.13c0.10586,0.24131 0.185,0.49348 0.236,0.752c0.05862,0.29773 0.08743,0.60056 0.086,0.904c-0.00025,0.01467 -0.00059,0.02934 -0.001,0.044zM247.08689,177.23017c-0.08691,0.21315 -0.20375,0.41282 -0.347,0.593c-0.06311,0.07897 -0.1316,0.15348 -0.205,0.223c-0.21999,0.20036 -0.47488,0.35865 -0.752,0.467c-0.03572,0.01407 -0.07173,0.0274 -0.108,0.04c-0.24171,0.08442 -0.49296,0.1385 -0.748,0.161c-0.11471,0.01028 -0.22983,0.01528 -0.345,0.015c-0.21099,0.00106 -0.42171,-0.01533 -0.63,-0.049c-0.16932,-0.02804 -0.33593,-0.07053 -0.498,-0.127c-0.20113,-0.06873 -0.39267,-0.16283 -0.57,-0.28c-0.10116,-0.0676 -0.19649,-0.14353 -0.285,-0.227c-0.21473,-0.20459 -0.38583,-0.45053 -0.503,-0.723c-0.01361,-0.03074 -0.02661,-0.06175 -0.039,-0.093c-0.0775,-0.1996 -0.13088,-0.40774 -0.159,-0.62c-0.02127,-0.15877 -0.03163,-0.31881 -0.031,-0.479c-0.00127,-0.23458 0.02287,-0.46861 0.072,-0.698c0.02946,-0.13442 0.0689,-0.26645 0.118,-0.395c0.10706,-0.28588 0.26531,-0.54985 0.467,-0.779c0.02438,-0.02757 0.04938,-0.05458 0.075,-0.081c0.21416,-0.21225 0.46617,-0.38252 0.743,-0.502c0.03535,-0.01574 0.07103,-0.03074 0.107,-0.045c0.22628,-0.08743 0.4629,-0.14524 0.704,-0.172c0.13577,-0.01558 0.27234,-0.02326 0.409,-0.023c0.2484,-0.00128 0.49609,0.02658 0.738,0.083c0.12275,0.02905 0.24336,0.06647 0.361,0.112c0.33533,0.13067 0.62333,0.313 0.864,0.547c0.24398,0.24538 0.43523,0.53803 0.562,0.86c0.13333,0.332 0.2,0.69633 0.2,1.093c0.00092,0.19544 -0.01582,0.39057 -0.05,0.583c-0.03155,0.17684 -0.08183,0.34981 -0.15,0.516zM246.77889,170.52617c-0.11733,0.29933 -0.28,0.55333 -0.488,0.762c-0.21664,0.21592 -0.47625,0.38389 -0.762,0.493c-0.2428,0.09308 -0.49844,0.14839 -0.758,0.164c-0.06624,0.00453 -0.13261,0.00687 -0.199,0.007c-0.35133,0 -0.672,-0.057 -0.962,-0.171c-0.28162,-0.10858 -0.53644,-0.27675 -0.747,-0.493c-0.20934,-0.20434 -0.37294,-0.45076 -0.48,-0.723c-0.00442,-0.0113 -0.00875,-0.02263 -0.013,-0.034c-0.07318,-0.19295 -0.12254,-0.3941 -0.147,-0.599c-0.0163,-0.13337 -0.02432,-0.26763 -0.024,-0.402c-0.00092,-0.19927 0.01716,-0.39817 0.054,-0.594c0.02711,-0.14206 0.06625,-0.28157 0.117,-0.417c0.114,-0.30267 0.275,-0.56133 0.483,-0.776c0.20867,-0.21467 0.456,-0.379 0.742,-0.493c0.20429,-0.0804 0.4186,-0.13255 0.637,-0.155c0.1063,-0.01104 0.21312,-0.01638 0.32,-0.016c0.21036,-0.00127 0.42013,0.02223 0.625,0.07c0.11668,0.02773 0.23103,0.06451 0.342,0.11c0.29333,0.12067 0.54733,0.28833 0.762,0.503c0.20183,0.21607 0.36307,0.46674 0.476,0.74c0.00578,0.01395 0.01145,0.02795 0.017,0.042c0.12067,0.29933 0.181,0.628 0.181,0.986c0.00087,0.20149 -0.0189,0.40254 -0.059,0.6c-0.02779,0.13506 -0.06693,0.26753 -0.117,0.396z" fill="#ff0000" fill-rule="evenodd" stroke="#ff0000" stroke-linecap="round"/><path d="M235.25738,183.99159v-23.99999h17.52941v23.99999z" fill="none" fill-rule="nonzero" stroke="#000000" stroke-linecap="butt"/></g></g></svg>