<svg version="1.1" xmlns="http://www.w3.org/2000/svg" xmlns:xlink="http://www.w3.org/1999/xlink" width="17.52941" height="23.99999" viewBox="0,0,17.52941,23.99999"><g transform="translate(-235.25737,-159.99159)"><g data-paper-data="{&quot;isPaintingLayer&quot;:true}" stroke-width="0" stroke-linejoin="miter" stroke-miterlimit="10" stroke-dasharray="" stroke-dashoffset="0" style="mix-blend-mode: normal"><path d="M243.67988,178.29217c0.27781,-0.04757 0.55111,-0.11849 0.817,-0.212c0.60867,-0.218 1.09833,-0.52567 1.469,-0.923c0.12639,-0.13699 0.24428,-0.2816 0.353,-0.433c0.2508,-0.34406 0.43901,-0.72962 0.556,-1.139c0.15746,-0.56761 0.25235,-1.15075 0.283,-1.739v-0.019c-0.0109,0.01374 -0.02191,0.02741 -0.033,0.041c-0.15275,0.18473 -0.3214,0.35571 -0.504,0.511c-0.03827,0.03223 -0.07728,0.06357 -0.117,0.094c-0.17732,0.13747 -0.36715,0.258 -0.567,0.36c-0.08882,0.04526 -0.17958,0.08663 -0.272,0.124c-0.18618,0.07518 -0.37771,0.13635 -0.573,0.183c-0.12864,0.03109 -0.25882,0.05546 -0.39,0.073c-0.20555,0.02708 -0.41267,0.04045 -0.62,0.04c-0.27151,0.0011 -0.54259,-0.02199 -0.81,-0.069c-0.35365,-0.06053 -0.69532,-0.17734 -1.012,-0.346c-0.51067,-0.27667 -0.932,-0.63967 -1.264,-1.089c-0.33659,-0.45823 -0.58514,-0.97499 -0.733,-1.524c-0.156,-0.566 -0.234,-1.13567 -0.234,-1.709c-0.00012,-0.08302 0.00122,-0.16603 0.004,-0.249c0.01713,-0.55978 0.10928,-1.11473 0.274,-1.65c0.186,-0.596 0.46433,-1.11867 0.835,-1.568c0.07403,-0.08952 0.15211,-0.17561 0.234,-0.258c0.33022,-0.33072 0.71525,-0.60173 1.138,-0.801c0.30299,-0.14371 0.62333,-0.24757 0.953,-0.309c0.31853,-0.05943 0.64198,-0.08856 0.966,-0.087c0.72933,0 1.36267,0.13533 1.9,0.406c0.53667,0.27 0.98733,0.62633 1.352,1.069c0.22813,0.27878 0.42248,0.58356 0.579,0.908c0.16108,0.33398 0.29097,0.68213 0.388,1.04c0.21467,0.778 0.322,1.55433 0.322,2.329v0.655c-0.00134,1.1142 -0.11897,2.22522 -0.351,3.315c-0.23467,1.11 -0.736,2.09467 -1.504,2.954c-0.26733,0.30133 -0.594,0.56933 -0.98,0.804c-0.2993,0.18012 -0.61345,0.33435 -0.939,0.461c-0.14129,0.05567 -0.28474,0.10571 -0.43,0.15c-0.37933,0.11533 -0.79167,0.20067 -1.237,0.256c-0.43699,0.05283 -0.87683,0.07854 -1.317,0.077h-0.185v-1.611h0.185c0.54133,0 1.02933,-0.03833 1.464,-0.115zM246.95788,169.41317c-0.0616,-0.21044 -0.1371,-0.41656 -0.226,-0.617c-0.09973,-0.22606 -0.22202,-0.44149 -0.365,-0.643c-0.06569,-0.08782 -0.13578,-0.17226 -0.21,-0.253c-0.19153,-0.21053 -0.41574,-0.38881 -0.664,-0.528c-0.32051,-0.18037 -0.68223,-0.27476 -1.05,-0.274c-0.12775,-0.0002 -0.25537,0.00815 -0.382,0.025c-0.25844,0.03267 -0.50919,0.11016 -0.741,0.229c-0.32211,0.16663 -0.60241,0.40387 -0.82,0.694c-0.228,0.29933 -0.40067,0.65233 -0.518,1.059c-0.03871,0.13534 -0.07075,0.27251 -0.096,0.411c-0.05409,0.29794 -0.08087,0.60019 -0.08,0.903c-0.0001,0.41336 0.05266,0.82503 0.157,1.225c0.01911,0.07429 0.04046,0.14799 0.064,0.221c0.0963,0.3015 0.23575,0.58746 0.414,0.849c0.20867,0.312 0.474,0.564 0.796,0.756c0.17464,0.10348 0.3642,0.17937 0.562,0.225c0.18892,0.04317 0.38221,0.06431 0.576,0.063c0.306,0 0.60367,-0.05033 0.893,-0.151c0.29005,-0.10085 0.56214,-0.24736 0.806,-0.434c0.24067,-0.18267 0.457,-0.39933 0.649,-0.65c0.192,-0.25067 0.34333,-0.529 0.454,-0.835v-0.586c0,-0.63133 -0.073,-1.19433 -0.219,-1.689z" fill="#ff0000" fill-rule="evenodd" stroke="#ff0000" stroke-linecap="round"/><path d="M235.25738,183.99159v-23.99999h17.52941v23.99999z" fill="none" fill-rule="nonzero" stroke="#000000" stroke-linecap="butt"/></g></g></svg>