<svg version="1.1" xmlns="http://www.w3.org/2000/svg" xmlns:xlink="http://www.w3.org/1999/xlink" width="17.52941" height="23.99999" viewBox="0,0,17.52941,23.99999"><g transform="translate(-235.25737,-159.99159)"><g data-paper-data="{&quot;isPaintingLayer&quot;:true}" stroke-width="0" stroke-linejoin="miter" stroke-miterlimit="10" stroke-dasharray="" stroke-dashoffset="0" style="mix-blend-mode: normal"><path d="M245.43488,178.43349h3.448v1.562h-8.848v-1.562h3.594v-7.432h-3.594v-1.572h5.4zM243.39588,166.59749c0.00448,-0.12992 0.02876,-0.2584 0.072,-0.381c0.04699,-0.13372 0.12554,-0.25412 0.229,-0.351c0.04537,-0.04502 0.09608,-0.08431 0.151,-0.117c0.05585,-0.03355 0.11479,-0.06167 0.176,-0.084c0.06941,-0.02512 0.14107,-0.04354 0.214,-0.055c0.07939,-0.01238 0.15965,-0.0184 0.24,-0.018c0.16933,0 0.31933,0.02433 0.45,0.073c0.0432,0.01622 0.08529,0.03526 0.126,0.057c0.0721,0.03803 0.13816,0.08656 0.196,0.144c0.01985,0.01709 0.03887,0.03511 0.057,0.054c0.0774,0.08302 0.13756,0.18057 0.177,0.287c0.052,0.13667 0.078,0.28667 0.078,0.45c0.00028,0.03369 -0.00072,0.06738 -0.003,0.101c-0.0135,0.23542 -0.10903,0.45868 -0.27,0.631c-0.05148,0.0552 -0.11038,0.10299 -0.175,0.142c-0.16667,0.10067 -0.37867,0.151 -0.636,0.151c-0.36467,0 -0.63633,-0.09767 -0.815,-0.293c-0.09715,-0.10533 -0.17018,-0.23057 -0.214,-0.367c-0.03732,-0.11804 -0.05588,-0.2412 -0.055,-0.365c0.00027,-0.01968 0.00094,-0.03935 0.002,-0.059z" fill="#ff0000" fill-rule="evenodd" stroke="#ff0000" stroke-linecap="round"/><path d="M235.25738,183.99159v-23.99999h17.52941v23.99999z" fill="none" fill-rule="nonzero" stroke="#000000" stroke-linecap="butt"/></g></g></svg>