<svg version="1.1" xmlns="http://www.w3.org/2000/svg" xmlns:xlink="http://www.w3.org/1999/xlink" width="17.52941" height="23.99999" viewBox="0,0,17.52941,23.99999"><g transform="translate(-235.25737,-159.99159)"><g data-paper-data="{&quot;isPaintingLayer&quot;:true}" stroke-width="0" stroke-linejoin="miter" stroke-miterlimit="10" stroke-dasharray="" stroke-dashoffset="0" style="mix-blend-mode: normal"><path d="M241.74459,170.39149c0.20039,-0.34296 0.48373,-0.63008 0.824,-0.835c0.20551,-0.12124 0.42947,-0.20806 0.663,-0.257c0.19797,-0.04183 0.39966,-0.06361 0.602,-0.065c0.1179,-0.00023 0.23573,0.00578 0.353,0.018c0.13645,0.01366 0.27157,0.03841 0.404,0.074c0.06837,0.01909 0.13578,0.04145 0.202,0.067c0.13734,0.0514 0.26795,0.11922 0.389,0.202c0.02107,0.01582 0.04174,0.03216 0.062,0.049c0.10175,0.08366 0.19367,0.1786 0.274,0.283c0.02071,0.02647 0.04071,0.05348 0.06,0.081c0.07773,0.11299 0.14437,0.23321 0.199,0.359c0.09238,-0.15112 0.20066,-0.29192 0.323,-0.42c0.12333,-0.13067 0.25667,-0.24467 0.4,-0.342c0.05182,-0.03141 0.10486,-0.06077 0.159,-0.088c0.14459,-0.07244 0.29556,-0.13136 0.451,-0.176c0.22467,-0.06533 0.47067,-0.101 0.738,-0.107c0.13199,-0.00049 0.26388,0.00686 0.395,0.022c0.20174,0.02318 0.40008,0.06983 0.591,0.139c0.02957,0.01072 0.05891,0.02206 0.088,0.034c0.24591,0.09972 0.46857,0.24918 0.654,0.439c0.1255,0.13426 0.23214,0.28498 0.317,0.448c0.07776,0.14918 0.14169,0.30516 0.191,0.466c0.06667,0.21333 0.11433,0.44833 0.143,0.705c0.02245,0.20523 0.03347,0.41155 0.033,0.618v7.89h-1.719v-7.91c0.0001,-0.01367 0.0001,-0.02733 0,-0.041c-0.002,-0.09533 -0.00867,-0.18567 -0.02,-0.271c-0.01171,-0.09278 -0.03111,-0.18443 -0.058,-0.274c-0.0201,-0.06548 -0.04517,-0.12934 -0.075,-0.191c-0.03934,-0.08281 -0.08981,-0.15985 -0.15,-0.229c-0.03906,-0.03908 -0.08156,-0.07456 -0.127,-0.106c-0.07997,-0.05449 -0.16714,-0.09757 -0.259,-0.128c-0.00499,-0.0017 -0.00999,-0.00337 -0.015,-0.005c-0.14933,-0.04867 -0.32167,-0.073 -0.517,-0.073c-0.017,-0.00019 -0.034,-0.00019 -0.051,0c-0.19333,0.00467 -0.36167,0.034 -0.505,0.088c-0.05658,0.02098 -0.1117,0.0457 -0.165,0.074c-0.08201,0.04321 -0.15799,0.09701 -0.226,0.16c-0.10301,0.10264 -0.18578,0.22375 -0.244,0.357c-0.02239,0.05081 -0.04176,0.1029 -0.058,0.156c-0.02808,0.09408 -0.04782,0.19045 -0.059,0.288v0.093v0.102v7.91h-1.719v-7.919c0.0001,-0.014 0.0001,-0.028 0,-0.042c-0.00333,-0.204 -0.02767,-0.38533 -0.073,-0.544c-0.0153,-0.05393 -0.03434,-0.10673 -0.057,-0.158c-0.04252,-0.09644 -0.10101,-0.18502 -0.173,-0.262c-0.09733,-0.10467 -0.21933,-0.18133 -0.366,-0.23c-0.14667,-0.04867 -0.31767,-0.073 -0.513,-0.073c-0.021,0.00009 -0.042,0.00042 -0.063,0.001c-0.09067,0.002 -0.176,0.00867 -0.256,0.02c-0.08191,0.01095 -0.16282,0.02834 -0.242,0.052c-0.05557,0.01686 -0.11001,0.03723 -0.163,0.061c-0.08726,0.03865 -0.16898,0.08876 -0.243,0.149c-0.08467,0.072 -0.15767,0.15333 -0.219,0.244c-0.06215,0.09127 -0.11318,0.18963 -0.152,0.293v8.408h-1.718v-10.566h1.621l0.049,0.996c0.00659,-0.01138 0.01325,-0.02271 0.02,-0.034z" fill="#ff0000" fill-rule="evenodd" stroke="#ff0000" stroke-linecap="round"/><path d="M235.25738,183.99159v-23.99999h17.52941v23.99999z" fill="none" fill-rule="nonzero" stroke="#000000" stroke-linecap="butt"/></g></g></svg>