<svg version="1.1" xmlns="http://www.w3.org/2000/svg" xmlns:xlink="http://www.w3.org/1999/xlink" width="17.52941" height="23.99999" viewBox="0,0,17.52941,23.99999"><g transform="translate(-235.25737,-159.99159)"><g data-paper-data="{&quot;isPaintingLayer&quot;:true}" stroke-width="0" stroke-linejoin="miter" stroke-miterlimit="10" stroke-dasharray="" stroke-dashoffset="0" style="mix-blend-mode: normal"><path d="M246.82803,167.40117c-0.11337,0.00008 -0.22672,0.00241 -0.34,0.007c-0.33333,0.01333 -0.64533,0.04633 -0.936,0.099c-0.31179,0.05514 -0.61707,0.14226 -0.911,0.26c-0.18187,0.0737 -0.35919,0.15818 -0.531,0.253c-0.35329,0.19297 -0.675,0.43881 -0.954,0.729c-0.41,0.42933 -0.72067,0.94033 -0.932,1.533c-0.212,0.59267 -0.33733,1.20133 -0.376,1.826c0.02099,-0.02529 0.04232,-0.0503 0.064,-0.075c0.15877,-0.17763 0.3335,-0.34031 0.522,-0.486c0.22133,-0.17267 0.462,-0.32433 0.722,-0.455c0.05213,-0.02517 0.10481,-0.04917 0.158,-0.072c0.21592,-0.09282 0.43898,-0.16807 0.667,-0.225c0.29667,-0.07533 0.60767,-0.113 0.933,-0.113c0.28359,-0.00141 0.56673,0.02269 0.846,0.072c0.3451,0.06022 0.67896,0.17285 0.99,0.334c0.514,0.27 0.93733,0.62633 1.27,1.069c0.33597,0.45111 0.58427,0.96128 0.732,1.504c0.156,0.56 0.234,1.12967 0.234,1.709c0.00018,0.09269 -0.00148,0.18538 -0.005,0.278c-0.01923,0.54214 -0.11105,1.07926 -0.273,1.597c-0.01799,0.05667 -0.037,0.11301 -0.057,0.169c-0.17387,0.49836 -0.43755,0.96065 -0.778,1.364c-0.37689,0.44713 -0.8491,0.80419 -1.382,1.045c-0.30305,0.13822 -0.62219,0.23799 -0.95,0.297c-0.31643,0.05727 -0.63744,0.08538 -0.959,0.084c-0.24129,0.00067 -0.4823,-0.01671 -0.721,-0.052c-0.42011,-0.06016 -0.82691,-0.19137 -1.203,-0.388c-0.53867,-0.28098 -1.01384,-0.66969 -1.396,-1.142c-0.11275,-0.1368 -0.21791,-0.27968 -0.315,-0.428c-0.27545,-0.42547 -0.48861,-0.88816 -0.633,-1.374c-0.208,-0.68667 -0.312,-1.375 -0.312,-2.065v-0.85c0,-1.18467 0.14,-2.35 0.42,-3.496c0.26173,-1.11379 0.8298,-2.13216 1.64,-2.94c0.15727,-0.15708 0.32463,-0.30372 0.501,-0.439c0.46647,-0.35472 0.98626,-0.63318 1.54,-0.825c0.41654,-0.14577 0.84572,-0.25256 1.282,-0.319c0.47755,-0.07249 0.95999,-0.10792 1.443,-0.106h0.156v1.621zM241.87703,175.63617c0.03433,0.28193 0.09322,0.56032 0.176,0.832c0.06183,0.20366 0.13768,0.40281 0.227,0.596c0.10301,0.22297 0.22974,0.43419 0.378,0.63c0.06208,0.08124 0.12816,0.15933 0.198,0.234c0.1955,0.21191 0.42583,0.38879 0.681,0.523c0.32204,0.17016 0.68077,0.25907 1.045,0.259c0.42333,0 0.79767,-0.08167 1.123,-0.245c0.32533,-0.16267 0.602,-0.387 0.83,-0.673c0.22133,-0.28667 0.389,-0.63033 0.503,-1.031c0.04326,-0.15261 0.07798,-0.30752 0.104,-0.464c0.04548,-0.27733 0.06789,-0.55796 0.067,-0.839c0,-0.41667 -0.052,-0.822 -0.156,-1.216c-0.01781,-0.06687 -0.03748,-0.13323 -0.059,-0.199c-0.09669,-0.30306 -0.23826,-0.58991 -0.42,-0.851c-0.21093,-0.30233 -0.48793,-0.55265 -0.81,-0.732c-0.17717,-0.09867 -0.36787,-0.17078 -0.566,-0.214c-0.18956,-0.04102 -0.38305,-0.06114 -0.577,-0.06c-0.30242,-0.00049 -0.60283,0.04919 -0.889,0.147c-0.286,0.09733 -0.55267,0.234 -0.8,0.41c-0.24733,0.17533 -0.46567,0.387 -0.655,0.635c-0.18867,0.24733 -0.33833,0.52067 -0.449,0.82v0.605c-0.00101,0.27842 0.01536,0.55662 0.049,0.833z" fill="#ff0000" fill-rule="evenodd" stroke="#ff0000" stroke-linecap="round"/><path d="M235.25738,183.99159v-23.99999h17.52941v23.99999z" fill="none" fill-rule="nonzero" stroke="#000000" stroke-linecap="butt"/></g></g></svg>