<svg version="1.1" xmlns="http://www.w3.org/2000/svg" xmlns:xlink="http://www.w3.org/1999/xlink" width="58.38178" height="58.38178" viewBox="0,0,58.38178,58.38178"><defs><linearGradient x1="210.80911" y1="180" x2="269.19089" y2="180" gradientUnits="userSpaceOnUse" id="color-1"><stop offset="0" stop-color="#8cface"/><stop offset="1" stop-color="#17b551"/></linearGradient></defs><g transform="translate(-210.80911,-150.80911)"><g data-paper-data="{&quot;isPaintingLayer&quot;:true}" stroke="none" stroke-width="1" stroke-linecap="butt" stroke-linejoin="miter" stroke-miterlimit="10" stroke-dasharray="" stroke-dashoffset="0" style="mix-blend-mode: normal"><path d="M269.19089,180c0,16.12067 -13.07022,29.19089 -29.19089,29.19089c-16.12067,0 -29.19089,-13.07022 -29.19089,-29.19089c0,-16.12067 13.07022,-29.19089 29.19089,-29.19089c16.12067,0 29.19089,13.07022 29.19089,29.19089z" fill="url(#color-1)" fill-rule="nonzero"/><path d="M249.37238,167.67816c0.22521,-0.08051 0.76345,-0.07664 1.00145,0.00721c0.31567,0.11116 0.50226,0.26758 0.92869,0.77862c2.40377,2.88063 3.82337,6.27249 4.17552,9.97659c0.07826,0.82293 0.0887,2.45519 0.0208,3.24583c-0.30433,3.54251 -1.62289,6.88681 -3.83287,9.72134c-0.60307,0.77349 -0.91559,0.97219 -1.5292,0.97219c-0.4367,0 -0.74445,-0.12737 -1.09092,-0.45151c-0.39789,-0.37219 -0.53589,-0.64499 -0.56017,-1.10731c-0.02701,-0.51473 0.05448,-0.72955 0.48132,-1.26837c1.96991,-2.48666 3.02193,-5.12636 3.29712,-8.27324c0.06263,-0.71635 0.0249,-2.27342 -0.07253,-2.99252c-0.39163,-2.89085 -1.52154,-5.48068 -3.34984,-7.67796c-0.525,-0.63094 -0.60676,-0.79528 -0.62689,-1.25959c-0.02098,-0.48385 0.09118,-0.78529 0.42711,-1.14815c0.26214,-0.28307 0.46475,-0.42823 0.7304,-0.52315M238.17866,169.20943c0.11918,-0.03903 0.30459,-0.05488 0.49605,-0.04242c0.57115,0.03723 1.04468,0.3589 1.28602,0.87367c0.11923,0.2543 0.11923,0.2543 0.11923,10.09235c0,9.83805 0,9.83805 -0.10405,10.09564c-0.13184,0.32639 -0.43031,0.63594 -0.76404,0.79235c-0.36025,0.16884 -0.86592,0.16975 -1.22559,0.00216c-0.23706,-0.1104 -0.78345,-0.55633 -6.43863,-5.25469c-1.55338,-1.29052 -1.55338,-1.29052 -3.80464,-1.31303c-2.25127,-0.02252 -2.25127,-0.02252 -2.48919,-0.14786c-0.30279,-0.15957 -0.54971,-0.40649 -0.68858,-0.68858c-0.1091,-0.22166 -0.1091,-0.22166 -0.1091,-3.46349c0,-3.24183 0,-3.24183 0.10409,-3.45313c0.13765,-0.27947 0.40082,-0.54467 0.69357,-0.69892c0.23791,-0.12535 0.23791,-0.12535 2.48919,-0.14786c2.25127,-0.02252 2.25127,-0.02252 3.57952,-1.12743c0.73054,-0.60766 2.16909,-1.80191 3.1968,-2.65384c1.02771,-0.85193 2.15649,-1.78845 2.50846,-2.08117c0.6897,-0.57358 0.85674,-0.68736 1.15089,-0.78375M244.5778,172.49489c0.11058,-0.0362 0.32292,-0.0547 0.52873,-0.04606c0.66845,0.02805 1.00731,0.30275 1.75861,1.42569c1.23108,1.84001 1.88197,4.01221 1.88215,6.28132c0.0001,1.40056 -0.22869,2.69482 -0.70343,3.97957c-0.36826,0.99664 -1.23779,2.53151 -1.69071,2.98442c-0.28483,0.28483 -0.61703,0.41711 -1.05121,0.41865c-0.31752,0.00112 -0.3969,-0.01635 -0.65688,-0.14436c-0.36105,-0.17772 -0.71753,-0.53999 -0.88668,-0.90109c-0.1001,-0.2136 -0.12138,-0.3222 -0.12138,-0.61924c-0.00004,-0.44256 0.03521,-0.5313 0.48159,-1.21204c0.60623,-0.92451 0.95701,-1.73767 1.17827,-2.73124c0.52571,-2.36068 0.01044,-4.73631 -1.44536,-6.66403c-0.39447,-0.5223 -0.47511,-0.71973 -0.4769,-1.16773c-0.00108,-0.26961 0.02188,-0.3888 0.11292,-0.58533c0.20469,-0.44174 0.67732,-0.88331 1.09029,-1.01852" fill="#ffffff" fill-rule="evenodd"/></g></g></svg>