<svg version="1.1" xmlns="http://www.w3.org/2000/svg" xmlns:xlink="http://www.w3.org/1999/xlink" width="17.52941" height="23.99999" viewBox="0,0,17.52941,23.99999"><g transform="translate(-235.25737,-159.99159)"><g data-paper-data="{&quot;isPaintingLayer&quot;:true}" stroke-width="0" stroke-linejoin="miter" stroke-miterlimit="10" stroke-dasharray="" stroke-dashoffset="0" style="mix-blend-mode: normal"><path d="M248.58102,169.4295v1.397h-4.023v5.742c0,0.41 0.052,0.74833 0.156,1.015c0.03698,0.0965 0.08179,0.18981 0.134,0.279c0.07847,0.1341 0.17847,0.25438 0.296,0.356c0.18002,0.16165 0.39546,0.27879 0.629,0.342c0.05621,0.01521 0.11291,0.02855 0.17,0.04c0.19322,0.039 0.38988,0.05843 0.587,0.058c0.02767,-0.00011 0.05534,-0.00044 0.083,-0.001c0.17477,-0.00324 0.34929,-0.01459 0.523,-0.034c0.20567,-0.02244 0.41074,-0.05011 0.615,-0.083c0.07175,-0.01184 0.14342,-0.02417 0.215,-0.037c0.11261,-0.02022 0.22495,-0.04189 0.337,-0.065c0.12933,-0.02667 0.24133,-0.051 0.336,-0.073c0.0297,-0.00653 0.05936,-0.0132 0.089,-0.02l0.253,1.279c-0.084,0.05133 -0.17833,0.099 -0.283,0.143c-0.08617,0.03625 -0.17393,0.06861 -0.263,0.097c-0.21533,0.068 -0.45,0.125 -0.704,0.171c-0.06415,0.01295 -0.12849,0.02495 -0.193,0.036c-0.20282,0.03524 -0.40699,0.06227 -0.612,0.081c-0.28092,0.02592 -0.56289,0.03893 -0.845,0.039c-0.09039,-0.00009 -0.18076,-0.00276 -0.271,-0.008c-0.35421,-0.01839 -0.7045,-0.08294 -1.042,-0.192c-0.39823,-0.12814 -0.76115,-0.34726 -1.06,-0.64c-0.29933,-0.28667 -0.53533,-0.65933 -0.708,-1.118c-0.10267,-0.27267 -0.17467,-0.579 -0.216,-0.919c-0.02943,-0.24757 -0.04379,-0.49669 -0.043,-0.746v-5.742h-2.773v-1.397h2.773v-2.559h1.817v2.559z" fill="#ff0000" fill-rule="evenodd" stroke="#ff0000" stroke-linecap="round"/><path d="M235.25738,183.99159v-23.99999h17.52941v23.99999z" fill="none" fill-rule="nonzero" stroke="#000000" stroke-linecap="butt"/></g></g></svg>