<svg version="1.1" xmlns="http://www.w3.org/2000/svg" xmlns:xlink="http://www.w3.org/1999/xlink" width="17.52941" height="23.99999" viewBox="0,0,17.52941,23.99999"><g transform="translate(-235.25737,-159.99159)"><g data-paper-data="{&quot;isPaintingLayer&quot;:true}" stroke-width="0" stroke-linejoin="miter" stroke-miterlimit="10" stroke-dasharray="" stroke-dashoffset="0" style="mix-blend-mode: normal"><path d="M241.94059,176.28949c0.10067,0.45267 0.26833,0.858 0.503,1.216c0.22778,0.36464 0.5412,0.6681 0.913,0.884c0.0457,0.02677 0.0924,0.05179 0.14,0.075c0.19733,0.09733 0.41733,0.16733 0.66,0.21c0.20508,0.03548 0.41288,0.05288 0.621,0.052c0.32372,0.00035 0.64532,-0.05234 0.952,-0.156c0.02175,-0.00742 0.04342,-0.01509 0.065,-0.023c0.27395,-0.09757 0.53053,-0.23835 0.76,-0.417c0.2349,-0.17555 0.43242,-0.39619 0.581,-0.649c0.14667,-0.25067 0.22333,-0.52267 0.23,-0.816h1.709c-0.00709,0.47133 -0.13298,0.93325 -0.366,1.343c-0.24158,0.43105 -0.56496,0.81081 -0.952,1.118c-0.06838,0.05606 -0.13842,0.11009 -0.21,0.162c-0.35638,0.25648 -0.74594,0.46337 -1.158,0.615c-0.51529,0.19217 -1.06104,0.28974 -1.611,0.288c-0.31076,0.00094 -0.6211,-0.02314 -0.928,-0.072c-0.40577,-0.06271 -0.80045,-0.18327 -1.172,-0.358c-0.00935,-0.0043 -0.01868,-0.00864 -0.028,-0.013c-0.5674,-0.27023 -1.06803,-0.6626 -1.466,-1.149c-0.40333,-0.482 -0.706,-1.04033 -0.908,-1.675c-0.00643,-0.01964 -0.01276,-0.0393 -0.019,-0.059c-0.19155,-0.63148 -0.28728,-1.28812 -0.284,-1.948v-0.41c0,-0.69667 0.101,-1.364 0.303,-2.002c0.202,-0.638 0.50467,-1.201 0.908,-1.689c0.08064,-0.09785 0.16573,-0.19195 0.255,-0.282c0.35954,-0.35978 0.77875,-0.65448 1.239,-0.871c0.33227,-0.15688 0.68356,-0.26983 1.045,-0.336c0.348,-0.06383 0.7012,-0.09497 1.055,-0.093c0.15385,-0.00037 0.30765,0.00563 0.461,0.018c0.43203,0.03373 0.85719,0.12798 1.263,0.28c0.09687,0.0367 0.19258,0.07638 0.287,0.119c0.39064,0.17359 0.75301,0.40484 1.075,0.686c0.37733,0.34533 0.67367,0.75233 0.889,1.221c0.21467,0.46867 0.322,0.97 0.322,1.504h-1.709c-0.00506,-0.3125 -0.07665,-0.62033 -0.21,-0.903c-0.13333,-0.28333 -0.314,-0.53267 -0.542,-0.748c-0.06441,-0.06045 -0.13218,-0.11721 -0.203,-0.17c-0.18787,-0.13942 -0.39374,-0.25278 -0.612,-0.337c-0.07412,-0.02911 -0.14953,-0.0548 -0.226,-0.077c-0.25852,-0.07372 -0.52618,-0.11042 -0.795,-0.109c-0.03234,-0.00005 -0.06467,0.00028 -0.097,0.001c-0.22533,0.00533 -0.43567,0.02967 -0.631,0.073c-0.24014,0.05099 -0.47068,0.13976 -0.683,0.263c-0.37143,0.21561 -0.68747,0.51487 -0.923,0.874c-0.23467,0.36467 -0.40233,0.77167 -0.503,1.221c-0.10067,0.44933 -0.151,0.90167 -0.151,1.357v0.41c0,0.46267 0.05033,0.92 0.151,1.372z" fill="#ff0000" fill-rule="evenodd" stroke="#ff0000" stroke-linecap="round"/><path d="M235.25738,183.99159v-23.99999h17.52941v23.99999z" fill="none" fill-rule="nonzero" stroke="#000000" stroke-linecap="butt"/></g></g></svg>