<svg version="1.1" xmlns="http://www.w3.org/2000/svg" xmlns:xlink="http://www.w3.org/1999/xlink" width="17.52941" height="26.52941" viewBox="0,0,17.52941,26.52941"><g transform="translate(-235.25737,-159.99159)"><g data-paper-data="{&quot;isPaintingLayer&quot;:true}" stroke-width="0" stroke-linejoin="miter" stroke-miterlimit="10" stroke-dasharray="" stroke-dashoffset="0" style="mix-blend-mode: normal"><path d="M246.28445,180.0645c0.00113,0.30107 -0.01926,0.60184 -0.061,0.9c-0.04231,0.30548 -0.115,0.60597 -0.217,0.897c-0.04033,0.11364 -0.0857,0.22541 -0.136,0.335c-0.16331,0.36156 -0.38987,0.69107 -0.669,0.973c-0.10085,0.10078 -0.20807,0.19497 -0.321,0.282c-0.29799,0.2279 -0.62962,0.40805 -0.983,0.534c-0.26579,0.09514 -0.54002,0.16479 -0.819,0.208c-0.30567,0.04768 -0.61464,0.07109 -0.924,0.07c-0.02533,0.00005 -0.05067,0.00005 -0.076,0c-0.17004,-0.00075 -0.34006,-0.00409 -0.51,-0.01c-0.18583,-0.00624 -0.37153,-0.01591 -0.557,-0.029c-0.15,-0.01333 -0.29967,-0.03133 -0.449,-0.054c-0.03801,-0.00563 -0.07601,-0.01129 -0.114,-0.017c-0.11839,-0.01834 -0.23672,-0.037 -0.355,-0.056l0.127,-1.484c0.00566,0.00102 0.01133,0.00202 0.017,0.003c0.108,0.018 0.24233,0.03467 0.403,0.05c0.17229,0.01675 0.34503,0.02842 0.518,0.035c0.021,0.0014 0.042,0.00274 0.063,0.004c0.14315,0.01023 0.28652,0.0169 0.43,0.02c0.11933,0.00267 0.21967,0.00433 0.301,0.005c0.025,0.00009 0.05,0.00009 0.075,0c0.0627,-0.00011 0.12538,-0.00178 0.188,-0.005c0.26045,-0.01184 0.51858,-0.05447 0.769,-0.127c0.29199,-0.08366 0.55976,-0.23588 0.781,-0.444c0.12119,-0.11515 0.22646,-0.24597 0.313,-0.389c0.08368,-0.13854 0.15367,-0.2849 0.209,-0.437c0.12733,-0.34133 0.191,-0.76267 0.191,-1.264v-9.063h-3.526v-1.572h5.332zM244.22646,166.56448c0.01019,-0.2448 0.10247,-0.47904 0.262,-0.665c0.05326,-0.06244 0.11603,-0.1161 0.186,-0.159c0.09133,-0.056 0.197,-0.096 0.317,-0.12c0.10111,-0.01991 0.20395,-0.02962 0.307,-0.029c0.36467,0 0.638,0.10267 0.82,0.308c0.08797,0.09803 0.15682,0.21165 0.203,0.335c0.04817,0.13197 0.07222,0.27152 0.071,0.412c-0.00015,0.02769 -0.00115,0.05537 -0.003,0.083c-0.01031,0.24315 -0.10631,0.47482 -0.271,0.654c-0.12533,0.13667 -0.29367,0.22633 -0.505,0.269c-0.10378,0.02008 -0.2093,0.0298 -0.315,0.029c-0.36467,0 -0.63467,-0.09933 -0.81,-0.298c-0.09513,-0.10651 -0.1667,-0.23191 -0.21,-0.368c-0.03694,-0.11947 -0.05516,-0.24395 -0.054,-0.369c-0.00013,-0.02735 0.00054,-0.05469 0.002,-0.082z" fill="#ff0000" fill-rule="evenodd" stroke="#ff0000" stroke-linecap="round"/><path d="M235.25738,186.52101v-26.52941h17.52941v26.52941z" fill="none" fill-rule="nonzero" stroke="#000000" stroke-linecap="butt"/></g></g></svg>