<svg version="1.1" xmlns="http://www.w3.org/2000/svg" xmlns:xlink="http://www.w3.org/1999/xlink" width="17.52941" height="23.99999" viewBox="0,0,17.52941,23.99999"><g transform="translate(-235.25737,-159.99159)"><g data-paper-data="{&quot;isPaintingLayer&quot;:true}" stroke-width="0" stroke-linejoin="miter" stroke-miterlimit="10" stroke-dasharray="" stroke-dashoffset="0" style="mix-blend-mode: normal"><path d="M240.32817,178.71017l4.658,-5.176c0.09468,-0.10506 0.18868,-0.21073 0.282,-0.317c0.15,-0.17067 0.28967,-0.33367 0.419,-0.489c0.11689,-0.13985 0.23157,-0.28154 0.344,-0.425c0.15733,-0.20133 0.29733,-0.39433 0.42,-0.579c0.09016,-0.13558 0.17489,-0.27469 0.254,-0.417c0.16933,-0.29933 0.28967,-0.584 0.361,-0.854c0.07177,-0.27251 0.10774,-0.5532 0.107,-0.835c0.00002,-0.02734 -0.00032,-0.05467 -0.001,-0.082c-0.00626,-0.31029 -0.0637,-0.61742 -0.17,-0.909c-0.11333,-0.30933 -0.27767,-0.578 -0.493,-0.806c-0.02921,-0.03013 -0.05922,-0.05948 -0.09,-0.088c-0.20774,-0.19046 -0.44652,-0.344 -0.706,-0.454c-0.30867,-0.13333 -0.65833,-0.2 -1.049,-0.2c-0.02967,0.00006 -0.05934,0.00039 -0.089,0.001c-0.204,0.00333 -0.39633,0.02 -0.577,0.05c-0.19486,0.03126 -0.38591,0.08288 -0.57,0.154c-0.07544,0.02931 -0.14951,0.06201 -0.222,0.098c-0.24135,0.11887 -0.45892,0.28087 -0.642,0.478c-0.08059,0.0874 -0.15415,0.18102 -0.22,0.28c-0.13007,0.19746 -0.23173,0.41223 -0.302,0.638c-0.05484,0.17351 -0.09597,0.35105 -0.123,0.531c-0.03285,0.22181 -0.0489,0.44578 -0.048,0.67h-1.817c0,-0.59867 0.10433,-1.16333 0.313,-1.694c0.20258,-0.52209 0.51184,-0.99618 0.908,-1.392c0.14772,-0.14988 0.30723,-0.28765 0.477,-0.412c0.29806,-0.21681 0.62145,-0.39647 0.963,-0.535c0.29479,-0.12017 0.60151,-0.20866 0.915,-0.264c0.34136,-0.06007 0.6874,-0.08952 1.034,-0.088c0.24364,-0.00026 0.48708,0.0141 0.729,0.043c0.3694,0.04237 0.73255,0.12795 1.082,0.255c0.13559,0.05 0.26874,0.1064 0.399,0.169c0.35313,0.16731 0.67803,0.38863 0.963,0.656c0.37133,0.352 0.65633,0.76867 0.855,1.25c0.06223,0.15114 0.11467,0.30613 0.157,0.464c0.09557,0.36186 0.14298,0.73474 0.141,1.109c-0.00074,0.42743 -0.07342,0.85169 -0.215,1.255c-0.14333,0.41333 -0.33533,0.82167 -0.576,1.225c-0.03896,0.06345 -0.07862,0.12645 -0.119,0.189c-0.22611,0.3493 -0.47184,0.68551 -0.736,1.007c-0.322,0.394 -0.662,0.78633 -1.02,1.177l-3.819,4.141h7.139v1.474h-9.316z" fill="#ff0000" fill-rule="evenodd" stroke="#ff0000" stroke-linecap="round"/><path d="M235.25738,183.99159v-23.99999h17.52941v23.99999z" fill="none" fill-rule="nonzero" stroke="#000000" stroke-linecap="butt"/></g></g></svg>