<svg version="1.1" xmlns="http://www.w3.org/2000/svg" xmlns:xlink="http://www.w3.org/1999/xlink" width="41.67647" height="24.08824" viewBox="0,0,41.67647,24.08824"><g transform="translate(-219.16176,-167.95588)"><g data-paper-data="{&quot;isPaintingLayer&quot;:true}" stroke="#ff0000" stroke-linejoin="miter" stroke-miterlimit="10" stroke-dasharray="" stroke-dashoffset="0" style="mix-blend-mode: normal"><g fill="#ff0000" fill-rule="evenodd" stroke-width="0" stroke-linecap="round"><path d="M225.20725,187.5111h-1.807l4.59,-14.218h1.514l4.512,14.218h-1.797l-1.123,-3.681h-4.746zM228.74225,176.0861l-1.904,6.172h3.779z"/><path d="M245.3868,182.46781c-0.00649,0.38855 -0.04024,0.77617 -0.101,1.16c-0.01682,0.10538 -0.03582,0.21041 -0.057,0.315c-0.06007,0.29916 -0.1406,0.59386 -0.241,0.882c-0.176,0.488 -0.40567,0.92567 -0.689,1.313c-0.28267,0.38733 -0.62267,0.708 -1.02,0.962c-0.01361,0.00843 -0.02728,0.01676 -0.041,0.025c-0.28271,0.16688 -0.58592,0.2963 -0.902,0.385c-0.12177,0.03477 -0.24527,0.06314 -0.37,0.085c-0.24374,0.04201 -0.49067,0.06276 -0.738,0.062c-0.172,0.00006 -0.34388,-0.00862 -0.515,-0.026c-0.24715,-0.02392 -0.49154,-0.07079 -0.73,-0.14c-0.37467,-0.11067 -0.71167,-0.27033 -1.011,-0.479c-0.144,-0.10491 -0.28096,-0.21916 -0.41,-0.342c-0.00804,-0.00763 -0.01604,-0.0153 -0.024,-0.023c-0.1244,-0.12089 -0.24034,-0.2502 -0.347,-0.387l-0.088,1.201h-1.66v-15h1.807v5.567c0.14824,-0.18739 0.31509,-0.35927 0.498,-0.513c0.18093,-0.15187 0.37734,-0.28427 0.586,-0.395c0.06651,-0.03501 0.13422,-0.0677 0.203,-0.098c0.21141,-0.09217 0.43105,-0.16416 0.656,-0.215c0.12224,-0.02773 0.24571,-0.04975 0.37,-0.066c0.21419,-0.0279 0.43,-0.0416 0.646,-0.041c0.13886,-0.00016 0.27767,0.00584 0.416,0.018c0.28668,0.02406 0.56976,0.08007 0.844,0.167c0.37244,0.11827 0.72453,0.29297 1.044,0.518c0.02186,0.01608 0.04353,0.03241 0.065,0.049c0.25952,0.20434 0.49057,0.44245 0.687,0.708c0.05574,0.07451 0.10943,0.15054 0.161,0.228c0.16084,0.24317 0.30292,0.49824 0.425,0.763c0.06722,0.1572 0.12728,0.31736 0.18,0.48c0.09284,0.28879 0.16633,0.58344 0.22,0.882c0.09133,0.498 0.137,1.02367 0.137,1.577v0.205c0.00021,0.05767 -0.00013,0.11534 -0.001,0.173zM243.5178,181.11881c-0.00836,-0.06381 -0.0177,-0.12748 -0.028,-0.191c-0.03871,-0.2376 -0.09282,-0.47243 -0.162,-0.703c-0.00751,-0.02139 -0.01517,-0.04272 -0.023,-0.064c-0.10928,-0.3108 -0.25568,-0.60728 -0.436,-0.883c-0.02064,-0.03115 -0.04198,-0.06182 -0.064,-0.092c-0.16785,-0.23516 -0.3823,-0.43327 -0.63,-0.582c-0.05333,-0.03331 -0.10804,-0.06433 -0.164,-0.093c-0.15028,-0.07551 -0.30773,-0.13581 -0.47,-0.18c-0.11389,-0.03164 -0.22983,-0.05536 -0.347,-0.071c-0.14424,-0.01863 -0.28956,-0.02765 -0.435,-0.027c-0.1045,-0.00028 -0.20895,0.0044 -0.313,0.014c-0.18526,0.01692 -0.36825,0.05311 -0.546,0.108c-0.26067,0.08133 -0.49167,0.19367 -0.693,0.337c-0.20685,0.14812 -0.39256,0.32374 -0.552,0.522c-0.15933,0.19867 -0.29433,0.41533 -0.405,0.65v4.619c0.11482,0.2305 0.25394,0.44807 0.415,0.649c0.15906,0.19855 0.34443,0.3745 0.551,0.523c0.02629,0.01856 0.05296,0.03656 0.08,0.054c0.19303,0.12591 0.40273,0.2242 0.623,0.292c0.11264,0.03522 0.22758,0.06262 0.344,0.082c0.17058,0.02786 0.34316,0.04157 0.516,0.041c0.29933,0 0.57267,-0.03767 0.82,-0.113c0.24733,-0.07467 0.46867,-0.18367 0.664,-0.327c0.26285,-0.18445 0.48565,-0.42018 0.655,-0.693c0.04687,-0.07498 0.0909,-0.1517 0.132,-0.23c0.11817,-0.22624 0.21428,-0.46333 0.287,-0.708c0.02689,-0.08256 0.05124,-0.16594 0.073,-0.25c0.04973,-0.19416 0.08747,-0.3912 0.113,-0.59c0.03933,-0.29933 0.059,-0.60533 0.059,-0.918v-0.205c0,-0.332 -0.02133,-0.65567 -0.064,-0.971z"/><path d="M249.46576,183.75479c0.10067,0.45267 0.26833,0.858 0.503,1.216c0.22778,0.36464 0.5412,0.6681 0.913,0.884c0.0457,0.02677 0.0924,0.05179 0.14,0.075c0.19733,0.09733 0.41733,0.16733 0.66,0.21c0.20508,0.03548 0.41288,0.05288 0.621,0.052c0.32372,0.00035 0.64532,-0.05234 0.952,-0.156c0.02175,-0.00742 0.04342,-0.01509 0.065,-0.023c0.27395,-0.09757 0.53053,-0.23835 0.76,-0.417c0.2349,-0.17555 0.43242,-0.39619 0.581,-0.649c0.14667,-0.25067 0.22333,-0.52267 0.23,-0.816h1.709c-0.00709,0.47133 -0.13298,0.93325 -0.366,1.343c-0.24158,0.43105 -0.56496,0.81081 -0.952,1.118c-0.06838,0.05606 -0.13842,0.11009 -0.21,0.162c-0.35638,0.25648 -0.74594,0.46337 -1.158,0.615c-0.51529,0.19217 -1.06104,0.28974 -1.611,0.288c-0.31076,0.00094 -0.6211,-0.02314 -0.928,-0.072c-0.40577,-0.06271 -0.80045,-0.18327 -1.172,-0.358c-0.00935,-0.0043 -0.01868,-0.00864 -0.028,-0.013c-0.5674,-0.27023 -1.06803,-0.6626 -1.466,-1.149c-0.40333,-0.482 -0.706,-1.04033 -0.908,-1.675c-0.00643,-0.01964 -0.01276,-0.0393 -0.019,-0.059c-0.19155,-0.63148 -0.28728,-1.28812 -0.284,-1.948v-0.41c0,-0.69667 0.101,-1.364 0.303,-2.002c0.202,-0.638 0.50467,-1.201 0.908,-1.689c0.08064,-0.09785 0.16573,-0.19195 0.255,-0.282c0.35954,-0.35978 0.77875,-0.65448 1.239,-0.871c0.33227,-0.15688 0.68356,-0.26983 1.045,-0.336c0.348,-0.06383 0.7012,-0.09497 1.055,-0.093c0.15385,-0.00037 0.30765,0.00563 0.461,0.018c0.43203,0.03373 0.85719,0.12798 1.263,0.28c0.09687,0.0367 0.19258,0.07638 0.287,0.119c0.39064,0.17359 0.75301,0.40484 1.075,0.686c0.37733,0.34533 0.67367,0.75233 0.889,1.221c0.21467,0.46867 0.322,0.97 0.322,1.504h-1.709c-0.00506,-0.3125 -0.07665,-0.62033 -0.21,-0.903c-0.13333,-0.28333 -0.314,-0.53267 -0.542,-0.748c-0.06441,-0.06045 -0.13218,-0.11721 -0.203,-0.17c-0.18787,-0.13942 -0.39374,-0.25278 -0.612,-0.337c-0.07412,-0.02911 -0.14953,-0.0548 -0.226,-0.077c-0.25852,-0.07372 -0.52618,-0.11042 -0.795,-0.109c-0.03234,-0.00005 -0.06467,0.00028 -0.097,0.001c-0.22533,0.00533 -0.43567,0.02967 -0.631,0.073c-0.24014,0.05099 -0.47068,0.13976 -0.683,0.263c-0.37143,0.21561 -0.68747,0.51487 -0.923,0.874c-0.23467,0.36467 -0.40233,0.77167 -0.503,1.221c-0.10067,0.44933 -0.151,0.90167 -0.151,1.357v0.41c0,0.46267 0.05033,0.92 0.151,1.372z"/></g><path d="M219.91176,191.29412v-22.58824h40.17647v22.58824z" fill="none" fill-rule="nonzero" stroke-width="1.5" stroke-linecap="butt"/></g></g></svg>