<svg version="1.1" xmlns="http://www.w3.org/2000/svg" xmlns:xlink="http://www.w3.org/1999/xlink" width="17.52941" height="23.99999" viewBox="0,0,17.52941,23.99999"><g transform="translate(-235.25737,-159.99159)"><g data-paper-data="{&quot;isPaintingLayer&quot;:true}" stroke-width="0" stroke-linejoin="miter" stroke-miterlimit="10" stroke-dasharray="" stroke-dashoffset="0" style="mix-blend-mode: normal"><path d="M248.5036,165.79017v1.758h-5.772l-0.4,3.789c0.02219,-0.01324 0.04453,-0.02624 0.067,-0.039c0.266,-0.14667 0.579,-0.277 0.939,-0.391c0.01994,-0.00652 0.03994,-0.01286 0.06,-0.019c0.19667,-0.058 0.40867,-0.101 0.636,-0.129c0.21936,-0.02605 0.4401,-0.03874 0.661,-0.038c0.21865,-0.00027 0.43709,0.01343 0.654,0.041c0.3838,0.04663 0.75894,0.148 1.114,0.301c0.50728,0.21812 0.96059,0.54478 1.328,0.957c0.14364,0.16467 0.27342,0.34094 0.388,0.527c0.18805,0.30703 0.33974,0.6349 0.452,0.977c0.08851,0.26836 0.15605,0.54318 0.202,0.822c0.06171,0.37382 0.09215,0.75213 0.091,1.131c-0.00012,0.17652 -0.00679,0.35297 -0.02,0.529c-0.03208,0.46028 -0.11731,0.91531 -0.254,1.356c-0.03358,0.10695 -0.07094,0.21269 -0.112,0.317c-0.16628,0.43027 -0.40582,0.82848 -0.708,1.177c-0.37133,0.42333 -0.837,0.75367 -1.397,0.991c-0.31467,0.134 -0.66033,0.23033 -1.037,0.289c-0.30946,0.04662 -0.62205,0.06936 -0.935,0.068c-0.07202,-0.00005 -0.14403,-0.00138 -0.216,-0.004c-0.48369,-0.01494 -0.9631,-0.09568 -1.425,-0.24c-0.514,-0.16333 -0.96967,-0.40767 -1.367,-0.733c-0.10721,-0.08641 -0.20937,-0.1789 -0.306,-0.277c-0.27472,-0.28161 -0.50563,-0.60285 -0.685,-0.953c-0.13217,-0.25643 -0.2374,-0.52587 -0.314,-0.804c-0.0834,-0.30282 -0.14028,-0.61232 -0.17,-0.925h1.719c0.00545,0.04075 0.01145,0.08142 0.018,0.122c0.046,0.28 0.116,0.535 0.21,0.765c0.14207,0.36549 0.37059,0.69112 0.666,0.949c0.29995,0.25632 0.65634,0.43794 1.04,0.53c0.27176,0.06541 0.55049,0.09731 0.83,0.095c0.15457,0.00049 0.30897,-0.0102 0.462,-0.032c0.23496,-0.03263 0.46398,-0.09898 0.68,-0.197c0.3284,-0.15024 0.61633,-0.37647 0.84,-0.66c0.22133,-0.27933 0.389,-0.61767 0.503,-1.015c0.05497,-0.19315 0.09608,-0.38999 0.123,-0.589c0.03281,-0.24495 0.04885,-0.49186 0.048,-0.739c0.00012,-0.08538 -0.00222,-0.17075 -0.007,-0.256c-0.01784,-0.33499 -0.07971,-0.66616 -0.184,-0.985c-0.12667,-0.384 -0.31033,-0.719 -0.551,-1.005c-0.24493,-0.28291 -0.54821,-0.50943 -0.889,-0.664c-0.18079,-0.08334 -0.37077,-0.14509 -0.566,-0.184c-0.21244,-0.04171 -0.42851,-0.06215 -0.645,-0.061c-0.04434,0.00017 -0.08868,0.00084 -0.133,0.002c-0.244,0.00533 -0.45833,0.026 -0.643,0.062c-0.07968,0.01527 -0.15874,0.03361 -0.237,0.055c-0.12097,0.03314 -0.2393,0.07525 -0.354,0.126c-0.176,0.078 -0.34033,0.17233 -0.493,0.283c-0.06021,0.04349 -0.11956,0.08816 -0.178,0.134c-0.10094,0.07957 -0.19965,0.16193 -0.296,0.247l-1.445,-0.371l0.713,-7.09z" fill="#ff0000" fill-rule="evenodd" stroke="#ff0000" stroke-linecap="round"/><path d="M235.25738,183.99159v-23.99999h17.52941v23.99999z" fill="none" fill-rule="nonzero" stroke="#000000" stroke-linecap="butt"/></g></g></svg>