<svg version="1.1" xmlns="http://www.w3.org/2000/svg" xmlns:xlink="http://www.w3.org/1999/xlink" width="17.52941" height="26.52941" viewBox="0,0,17.52941,26.52941"><g transform="translate(-235.25737,-159.99159)"><g data-paper-data="{&quot;isPaintingLayer&quot;:true}" stroke-width="0" stroke-linejoin="miter" stroke-miterlimit="10" stroke-dasharray="" stroke-dashoffset="0" style="mix-blend-mode: normal"><path d="M245.32617,175.19118c-0.02881,0.5939 -0.09494,1.1854 -0.198,1.771c-0.14667,0.82 -0.34367,1.57833 -0.591,2.275c-0.07952,0.22617 -0.16488,0.45025 -0.256,0.672c-0.17425,0.42724 -0.37394,0.84365 -0.598,1.247c-0.1224,0.21881 -0.25078,0.43423 -0.385,0.646c-0.1938,0.30749 -0.40273,0.60519 -0.626,0.892c-0.358,0.456 -0.71767,0.84167 -1.079,1.157c-0.02983,0.02587 -0.05983,0.05154 -0.09,0.077c-0.16067,0.13667 -0.31767,0.26 -0.471,0.37c-0.15103,0.10856 -0.30794,0.20871 -0.47,0.3l-0.38,-1.103c0.27333,-0.202 0.55,-0.46233 0.83,-0.781c0.11653,-0.13338 0.22794,-0.27115 0.334,-0.413c0.1664,-0.22268 0.32191,-0.45328 0.466,-0.691c0.24133,-0.42333 0.47433,-0.90033 0.699,-1.431c0.0785,-0.18591 0.15087,-0.37434 0.217,-0.565c0.13318,-0.38614 0.24468,-0.77942 0.334,-1.178c0.15,-0.586 0.26567,-1.219 0.347,-1.899c0.0313,-0.26136 0.05631,-0.52344 0.075,-0.786c0.03216,-0.46497 0.04784,-0.93092 0.047,-1.397v-0.137c0.00066,-0.39427 -0.01101,-0.78846 -0.035,-1.182c-0.02462,-0.40495 -0.06666,-0.80866 -0.126,-1.21c-0.02414,-0.16224 -0.04981,-0.32425 -0.077,-0.486c-0.08667,-0.51 -0.17967,-0.95667 -0.279,-1.34c-0.07957,-0.30248 -0.16996,-0.602 -0.271,-0.898c-0.1189,-0.35089 -0.25677,-0.69506 -0.413,-1.031c-0.002,-0.00433 -0.004,-0.00867 -0.006,-0.013c-0.13133,-0.28 -0.26433,-0.54233 -0.399,-0.787c-0.129,-0.23516 -0.26745,-0.46501 -0.415,-0.689c-0.08444,-0.13097 -0.17281,-0.25936 -0.265,-0.385c-0.12452,-0.16974 -0.25769,-0.33296 -0.399,-0.489c-0.10846,-0.11969 -0.22086,-0.23575 -0.337,-0.348c-0.10502,-0.1017 -0.21411,-0.19911 -0.327,-0.292l0.38,-1.103c0.326,0.182 0.67133,0.43233 1.036,0.751c0.16799,0.14757 0.32916,0.30273 0.483,0.465c0.20796,0.21969 0.40519,0.44929 0.591,0.688c0.10378,0.13163 0.20447,0.26567 0.302,0.402c0.2614,0.36701 0.50276,0.7479 0.723,1.141c0.13319,0.23685 0.25663,0.47905 0.37,0.726c0.1771,0.38761 0.33398,0.78414 0.47,1.188c0.08195,0.23965 0.15764,0.4814 0.227,0.725c0.14005,0.49353 0.25817,0.99302 0.354,1.497c0.15333,0.79733 0.23,1.694 0.23,2.69v0.098c-0.00006,0.28547 -0.00739,0.5709 -0.022,0.856z" fill="#ff0000" fill-rule="evenodd" stroke="#ff0000" stroke-linecap="round"/><path d="M235.25738,186.52101v-26.52941h17.52941v26.52941z" fill="none" fill-rule="nonzero" stroke="#000000" stroke-linecap="butt"/></g></g></svg>