<svg version="1.1" xmlns="http://www.w3.org/2000/svg" xmlns:xlink="http://www.w3.org/1999/xlink" width="17.52941" height="23.99999" viewBox="0,0,17.52941,23.99999"><g transform="translate(-235.25737,-159.99159)"><g data-paper-data="{&quot;isPaintingLayer&quot;:true}" stroke-width="0" stroke-linejoin="miter" stroke-miterlimit="10" stroke-dasharray="" stroke-dashoffset="0" style="mix-blend-mode: normal"><path d="M249.20947,174.61017c-0.00133,0.42333 -0.02567,0.824 -0.073,1.202c-0.04758,0.3939 -0.12752,0.78322 -0.239,1.164c-0.08021,0.27289 -0.18014,0.53959 -0.299,0.798c-0.15825,0.34582 -0.35987,0.67009 -0.6,0.965c-0.38247,0.47571 -0.87498,0.85118 -1.435,1.094c-0.29234,0.12637 -0.59791,0.21962 -0.911,0.278c-0.34064,0.06346 -0.68651,0.0946 -1.033,0.093c-0.24135,0.0004 -0.48249,-0.01429 -0.722,-0.044c-0.42,-0.05 -0.83097,-0.15838 -1.221,-0.322c-0.57267,-0.24467 -1.05767,-0.611 -1.455,-1.099c-0.20383,-0.24552 -0.37989,-0.5128 -0.525,-0.797c-0.15744,-0.30938 -0.28566,-0.63279 -0.383,-0.966c-0.0037,-0.01166 -0.00737,-0.02332 -0.011,-0.035c-0.20133,-0.69133 -0.302,-1.482 -0.302,-2.372v-3.33c-0.00002,-0.01367 -0.00002,-0.02733 0,-0.041c0.002,-0.42333 0.02667,-0.824 0.074,-1.202c0.04758,-0.3939 0.12752,-0.78322 0.239,-1.164c0.07453,-0.25322 0.16607,-0.50112 0.274,-0.742c0.16461,-0.37029 0.37782,-0.71701 0.634,-1.031c0.38442,-0.47678 0.87847,-0.85349 1.44,-1.098c0.57,-0.25067 1.21633,-0.376 1.939,-0.376c0.26322,-0.001 0.5262,0.01637 0.787,0.052c0.40007,0.05402 0.79077,0.16305 1.161,0.324c0.5635,0.24594 1.06049,0.62228 1.45,1.098c0.39067,0.482 0.69033,1.073 0.899,1.773c0.00337,0.01166 0.0067,0.02332 0.01,0.035c0.20133,0.69133 0.302,1.482 0.302,2.372v3.33c0.00002,0.01367 0.00002,0.02733 0,0.041zM247.35347,169.94917c-0.026,-0.23067 -0.062,-0.448 -0.108,-0.652c-0.04358,-0.19791 -0.10037,-0.39268 -0.17,-0.583c-0.04449,-0.12149 -0.09659,-0.24006 -0.156,-0.355c-0.10255,-0.19974 -0.23247,-0.38418 -0.386,-0.548c-0.22133,-0.24733 -0.493,-0.43267 -0.815,-0.556c-0.17964,-0.068 -0.36603,-0.11661 -0.556,-0.145c-0.18601,-0.02798 -0.3739,-0.04169 -0.562,-0.041c-0.17903,-0.00076 -0.35787,0.01195 -0.535,0.038c-0.20667,0.03009 -0.40907,0.08446 -0.603,0.162c-0.31933,0.12685 -0.60507,0.32567 -0.835,0.581c-0.00469,0.00564 -0.00936,0.01131 -0.014,0.017c-0.148,0.176 -0.275,0.37933 -0.381,0.61c-0.08904,0.19644 -0.16097,0.4002 -0.215,0.609c-0.01196,0.04451 -0.02329,0.08918 -0.034,0.134c-0.11067,0.47333 -0.166,1.013 -0.166,1.619v2.382v0.489v0.498l5.537,-4.248c-0.00033,-0.00367 -0.00066,-0.00733 -0.001,-0.011zM247.39346,172.37717v-0.689l-5.527,4.229c0.058,0.47533 0.162,0.89367 0.312,1.255c0.05065,0.12262 0.1091,0.24186 0.175,0.357c0.11137,0.19694 0.24971,0.37735 0.411,0.536c0.04224,0.04221 0.08628,0.08258 0.132,0.121c0.19878,0.16571 0.42526,0.29503 0.669,0.382c0.312,0.114 0.66333,0.171 1.054,0.171c0.16557,0.00053 0.33097,-0.0105 0.495,-0.033c0.20489,-0.02776 0.40589,-0.0791 0.599,-0.153c0.01505,-0.00552 0.03005,-0.01119 0.045,-0.017c0.28975,-0.11624 0.55103,-0.29361 0.766,-0.52c0.1738,-0.18766 0.31842,-0.40036 0.429,-0.631c0.09603,-0.19861 0.17304,-0.40587 0.23,-0.619c0.01769,-0.06532 0.03403,-0.131 0.049,-0.197c0.10733,-0.47 0.161,-1.00967 0.161,-1.619v-2.012z" fill="#ff0000" fill-rule="evenodd" stroke="#ff0000" stroke-linecap="round"/><path d="M235.25738,183.99159v-23.99999h17.52941v23.99999z" fill="none" fill-rule="nonzero" stroke="#000000" stroke-linecap="butt"/></g></g></svg>