<svg version="1.1" xmlns="http://www.w3.org/2000/svg" xmlns:xlink="http://www.w3.org/1999/xlink" width="17.52941" height="23.99999" viewBox="0,0,17.52941,23.99999"><g transform="translate(-235.25737,-159.99159)"><g data-paper-data="{&quot;isPaintingLayer&quot;:true}" stroke-width="0" stroke-linejoin="miter" stroke-miterlimit="10" stroke-dasharray="" stroke-dashoffset="0" style="mix-blend-mode: normal"><path d="M250.02952,175.1638c-0.08467,0.53333 -0.21167,1.04767 -0.381,1.543c-0.17196,0.48653 -0.39628,0.95293 -0.669,1.391c-0.27,0.43333 -0.59367,0.80933 -0.971,1.128l2.451,2.041l-1.24,1.182l-2.813,-2.383c-0.20642,0.05961 -0.41701,0.10374 -0.63,0.132c-0.02032,0.0028 -0.04065,0.00547 -0.061,0.008c-0.20476,0.02437 -0.4108,0.03639 -0.617,0.036c-0.21962,0.00029 -0.43904,-0.01307 -0.657,-0.04c-0.33319,-0.03972 -0.66027,-0.11998 -0.974,-0.239c-0.482,-0.18533 -0.90867,-0.43733 -1.28,-0.756c-0.38136,-0.32362 -0.71056,-0.70408 -0.976,-1.128c-0.27568,-0.43752 -0.50174,-0.9044 -0.674,-1.392c-0.176,-0.49467 -0.30633,-1.00733 -0.391,-1.538c-0.08362,-0.52166 -0.12907,-1.04873 -0.136,-1.577v-1.25c0.006,-0.52067 0.05133,-1.048 0.136,-1.582c0.08467,-0.534 0.215,-1.04833 0.391,-1.543c0.17155,-0.48615 0.39412,-0.95275 0.664,-1.392c0.26183,-0.42656 0.58801,-0.81009 0.967,-1.137c0.04645,-0.04006 0.0938,-0.07907 0.142,-0.117c0.3463,-0.26957 0.73131,-0.48533 1.142,-0.64c0.23395,-0.08888 0.47566,-0.15583 0.722,-0.2c0.30167,-0.05374 0.60758,-0.08018 0.914,-0.079c0.21928,-0.0002 0.43837,0.01316 0.656,0.04c0.33513,0.03974 0.6642,0.11999 0.98,0.239c0.47067,0.17748 0.90786,0.43343 1.293,0.757c0.37607,0.3246 0.70047,0.70463 0.962,1.127c0.27279,0.43839 0.4971,0.90513 0.669,1.392c0.16933,0.49467 0.29633,1.01067 0.381,1.548c0.0837,0.52503 0.12948,1.0554 0.137,1.587v1.25c-0.00667,0.52733 -0.05233,1.058 -0.137,1.592zM248.30652,171.1838c-0.03589,-0.38644 -0.09972,-0.76978 -0.191,-1.147c-0.09733,-0.37133 -0.226,-0.72633 -0.386,-1.065c-0.001,-0.00267 -0.002,-0.00533 -0.003,-0.008c-0.15245,-0.32538 -0.35378,-0.62551 -0.597,-0.89c-0.24511,-0.25713 -0.53877,-0.4631 -0.864,-0.606c-0.19239,-0.0844 -0.39465,-0.14421 -0.602,-0.178c-0.19003,-0.03149 -0.38238,-0.04688 -0.575,-0.046c-0.17782,-0.00067 -0.35539,0.01305 -0.531,0.041c-0.21786,0.03386 -0.43013,0.0971 -0.631,0.188c-0.3232,0.14663 -0.61517,0.35406 -0.86,0.611c-0.00737,0.00796 -0.01471,0.01596 -0.022,0.024c-0.23504,0.26098 -0.42985,0.55556 -0.578,0.874c-0.16,0.33867 -0.28867,0.69333 -0.386,1.064c-0.09757,0.37711 -0.16775,0.76077 -0.21,1.148c-0.01185,0.10718 -0.02219,0.21453 -0.031,0.322c-0.0212,0.26147 -0.03187,0.52368 -0.032,0.786v1.27c-0.00004,0.11169 0.00196,0.22338 0.006,0.335c0.00968,0.25827 0.02869,0.5161 0.057,0.773c0.04267,0.38733 0.11267,0.77 0.21,1.148c0.09733,0.37733 0.226,0.73533 0.386,1.074c0.001,0.00267 0.002,0.00533 0.003,0.008c0.15245,0.32538 0.35378,0.62551 0.597,0.89c0.24133,0.26067 0.52967,0.46733 0.865,0.62c0.18482,0.0837 0.3793,0.14417 0.579,0.18c0.19409,0.03439 0.39089,0.05112 0.588,0.05c0.18623,0.00073 0.3722,-0.01399 0.556,-0.044c0.21393,-0.03453 0.42239,-0.09707 0.62,-0.186c0.33533,-0.15267 0.62367,-0.35933 0.865,-0.62c0.03741,-0.0397 0.07375,-0.08038 0.109,-0.122c0.19632,-0.23187 0.35984,-0.48961 0.486,-0.766c0.15667,-0.33867 0.28367,-0.697 0.381,-1.075c0.09128,-0.37722 0.15511,-0.76056 0.191,-1.147c0.00883,-0.09593 0.01683,-0.19193 0.024,-0.288c0.02082,-0.27624 0.03383,-0.55302 0.039,-0.83v-1.27c-0.00667,-0.358 -0.02767,-0.73067 -0.063,-1.118z" fill="#ff0000" fill-rule="evenodd" stroke="#ff0000" stroke-linecap="round"/><path d="M235.25738,183.99159v-23.99999h17.52941v23.99999z" fill="none" fill-rule="nonzero" stroke="#000000" stroke-linecap="butt"/></g></g></svg>