<svg version="1.1" xmlns="http://www.w3.org/2000/svg" xmlns:xlink="http://www.w3.org/1999/xlink" width="17.52941" height="23.99999" viewBox="0,0,17.52941,23.99999"><g transform="translate(-235.25737,-159.99159)"><g data-paper-data="{&quot;isPaintingLayer&quot;:true}" stroke-width="0" stroke-linejoin="miter" stroke-miterlimit="10" stroke-dasharray="" stroke-dashoffset="0" style="mix-blend-mode: normal"><path d="M242.11446,177.68149c0.1686,0.25013 0.39017,0.46009 0.649,0.615c0.04867,0.03005 0.09836,0.0584 0.149,0.085c0.22107,0.11448 0.457,0.19761 0.701,0.247c0.30482,0.06439 0.61546,0.09723 0.927,0.098c0.03467,-0.00003 0.06934,-0.00036 0.104,-0.001c0.43867,-0.00733 0.824,-0.064 1.156,-0.17c0.0396,-0.01253 0.07894,-0.02587 0.118,-0.04c0.13733,-0.05 0.262,-0.107 0.374,-0.171c0.12712,-0.07189 0.24414,-0.16033 0.348,-0.263c0.01152,-0.01148 0.02286,-0.02315 0.034,-0.035c0.104,-0.10971 0.18824,-0.23658 0.249,-0.375c0.06533,-0.14933 0.098,-0.30867 0.098,-0.478c0.00003,-0.05244 -0.00264,-0.10484 -0.008,-0.157c-0.01418,-0.14728 -0.05447,-0.29085 -0.119,-0.424c-0.05133,-0.104 -0.12333,-0.20267 -0.216,-0.296c-0.06623,-0.06521 -0.13782,-0.12475 -0.214,-0.178c-0.04994,-0.03543 -0.10132,-0.06879 -0.154,-0.1c-0.17733,-0.10533 -0.393,-0.20367 -0.647,-0.295c-0.332,-0.12067 -0.74533,-0.23 -1.24,-0.328c-0.25624,-0.05199 -0.511,-0.11101 -0.764,-0.177c-0.30062,-0.07835 -0.59787,-0.1691 -0.891,-0.272c-0.24933,-0.088 -0.48,-0.18467 -0.692,-0.29c-0.20276,-0.10013 -0.39765,-0.21546 -0.583,-0.345c-0.09282,-0.06222 -0.18228,-0.12931 -0.268,-0.201c-0.22292,-0.18431 -0.41295,-0.40511 -0.562,-0.653c-0.09826,-0.16656 -0.17202,-0.34641 -0.219,-0.534c-0.05024,-0.20077 -0.0751,-0.40704 -0.074,-0.614c0,-0.42933 0.101,-0.83133 0.303,-1.206c0.05991,-0.11128 0.12705,-0.21851 0.201,-0.321c0.18303,-0.25044 0.40167,-0.47279 0.649,-0.66c0.16485,-0.1264 0.33977,-0.23911 0.523,-0.337c0.24969,-0.13212 0.51074,-0.24156 0.78,-0.327c0.21368,-0.06845 0.43188,-0.12191 0.653,-0.16c0.33461,-0.05717 0.67354,-0.08528 1.013,-0.084c0.25895,-0.00077 0.51772,0.01359 0.775,0.043c0.33348,0.03782 0.66242,0.10849 0.982,0.211c0.18135,0.0582 0.35901,0.12732 0.532,0.207c0.28521,0.13106 0.55267,0.29772 0.796,0.496c0.00568,0.00465 0.01135,0.00932 0.017,0.014c0.34589,0.28315 0.62806,0.6362 0.828,1.036c0.19905,0.40213 0.30111,0.84531 0.298,1.294h-1.807c0,-0.228 -0.05833,-0.451 -0.175,-0.669c-0.11733,-0.21867 -0.28033,-0.41233 -0.489,-0.581c-0.10079,-0.0816 -0.20853,-0.15421 -0.322,-0.217c-0.13894,-0.07679 -0.28412,-0.14169 -0.434,-0.194c-0.14864,-0.0515 -0.30158,-0.08966 -0.457,-0.114c-0.17992,-0.0285 -0.36184,-0.04254 -0.544,-0.042c-0.38467,0 -0.72167,0.04233 -1.011,0.127c-0.01805,0.00517 -0.03605,0.01051 -0.054,0.016c-0.124,0.03867 -0.23833,0.083 -0.343,0.133c-0.11331,0.0532 -0.22087,0.11787 -0.321,0.193c-0.05488,0.04016 -0.10731,0.08357 -0.157,0.13c-0.1144,0.1056 -0.20979,0.23008 -0.282,0.368c-0.001,0.00133 -0.002,0.00266 -0.003,0.004c-0.09417,0.17957 -0.14357,0.37923 -0.144,0.582c0,0.208 0.039,0.39333 0.117,0.556c0.04933,0.102 0.121,0.19767 0.215,0.287c0.06063,0.05633 0.12586,0.10751 0.195,0.153c0.18933,0.13 0.445,0.247 0.767,0.351c0.09636,0.03108 0.19339,0.06009 0.291,0.087c0.134,0.03733 0.279,0.074 0.435,0.11c0.16609,0.03801 0.33278,0.07334 0.5,0.106c0.31039,0.06479 0.61885,0.13848 0.925,0.221c0.27721,0.07466 0.55172,0.15905 0.823,0.253c0.26067,0.09067 0.50067,0.19033 0.72,0.299c0.20107,0.0984 0.3943,0.21207 0.578,0.34c0.10187,0.07325 0.19937,0.15238 0.292,0.237c0.20461,0.18509 0.37815,0.40185 0.514,0.642c0.09397,0.16892 0.16429,0.34994 0.209,0.538c0.04727,0.20154 0.07043,0.40799 0.069,0.615c0.00019,0.03267 -0.00014,0.06534 -0.001,0.098c-0.00935,0.41328 -0.11772,0.81828 -0.316,1.181c-0.04281,0.07777 -0.08919,0.15352 -0.139,0.227c-0.20197,0.29468 -0.45413,0.55158 -0.745,0.759c-0.18604,0.13397 -0.38385,0.25078 -0.591,0.349c-0.24682,0.11674 -0.50307,0.21241 -0.766,0.286c-0.21918,0.0621 -0.44192,0.11086 -0.667,0.146c-0.35141,0.05385 -0.70649,0.08026 -1.062,0.079c-0.29989,0.00068 -0.59952,-0.01802 -0.897,-0.056c-0.34593,-0.043 -0.68665,-0.12072 -1.017,-0.232c-0.21863,-0.07448 -0.4321,-0.16334 -0.639,-0.266c-0.27743,-0.13652 -0.53816,-0.30464 -0.777,-0.501c-0.04242,-0.03375 -0.0841,-0.06842 -0.125,-0.104c-0.31942,-0.27552 -0.58053,-0.61212 -0.768,-0.99c-0.20205,-0.40324 -0.3075,-0.84797 -0.308,-1.299h1.807c0.026,0.37133 0.12533,0.684 0.298,0.938z" fill="#ff0000" fill-rule="evenodd" stroke="#ff0000" stroke-linecap="round"/><path d="M235.25738,183.99159v-23.99999h17.52941v23.99999z" fill="none" fill-rule="nonzero" stroke="#000000" stroke-linecap="butt"/></g></g></svg>