<svg version="1.1" xmlns="http://www.w3.org/2000/svg" xmlns:xlink="http://www.w3.org/1999/xlink" width="17.52941" height="23.99999" viewBox="0,0,17.52941,23.99999"><g transform="translate(-235.25737,-159.99159)"><g data-paper-data="{&quot;isPaintingLayer&quot;:true}" stroke-width="0" stroke-linejoin="miter" stroke-miterlimit="10" stroke-dasharray="" stroke-dashoffset="0" style="mix-blend-mode: normal"><path d="M244.8506,171.98917c0.20466,-0.02822 0.40599,-0.07679 0.601,-0.145c0.348,-0.12333 0.64267,-0.29233 0.884,-0.507c0.234,-0.21533 0.413,-0.47267 0.537,-0.772c0.04668,-0.11322 0.08446,-0.22991 0.113,-0.349c0.04905,-0.20875 0.07322,-0.42257 0.072,-0.637c0.00022,-0.02633 0.00022,-0.05267 0,-0.079c-0.00333,-0.182 -0.017,-0.354 -0.041,-0.516c-0.02541,-0.17488 -0.06726,-0.34698 -0.125,-0.514c-0.02517,-0.07236 -0.05387,-0.14345 -0.086,-0.213c-0.09758,-0.21412 -0.23387,-0.40838 -0.402,-0.573c-0.09205,-0.08911 -0.19328,-0.16822 -0.302,-0.236c-0.14856,-0.09165 -0.30773,-0.16485 -0.474,-0.218c-0.16753,-0.05391 -0.33955,-0.09273 -0.514,-0.116c-0.18099,-0.02411 -0.36341,-0.0358 -0.546,-0.035c-0.12256,-0.0003 -0.24506,0.0057 -0.367,0.018c-0.23305,0.02299 -0.46241,0.07437 -0.683,0.153c-0.31533,0.114 -0.58367,0.27833 -0.805,0.493c-0.22916,0.21625 -0.40921,0.47917 -0.528,0.771c-0.05581,0.13634 -0.09867,0.27763 -0.128,0.422c-0.03885,0.19222 -0.05795,0.3879 -0.057,0.584h-1.817c-0.00273,-0.52604 0.10564,-1.04673 0.318,-1.528c0.20885,-0.47492 0.51276,-0.90203 0.893,-1.255c0.13641,-0.12471 0.28144,-0.23966 0.434,-0.344c0.29552,-0.20049 0.61374,-0.36531 0.948,-0.491c0.24019,-0.09109 0.48777,-0.16135 0.74,-0.21c0.34669,-0.0665 0.69899,-0.09932 1.052,-0.098c0.21438,-0.00028 0.42864,0.01006 0.642,0.031c0.37584,0.03566 0.74669,0.11211 1.106,0.228c0.09756,0.03189 0.19396,0.06725 0.289,0.106c0.39186,0.15688 0.75356,0.38053 1.069,0.661c0.09713,0.0871 0.18896,0.17993 0.275,0.278c0.25349,0.29205 0.45721,0.62381 0.603,0.982c0.11407,0.27808 0.19594,0.5683 0.244,0.865c0.04706,0.2886 0.07014,0.58059 0.069,0.873c-0.00005,0.09553 -0.00506,0.19099 -0.015,0.286c-0.02059,0.19061 -0.05807,0.37902 -0.112,0.563c-0.01121,0.03924 -0.02321,0.07825 -0.036,0.117c-0.08723,0.25821 -0.20649,0.50447 -0.355,0.733c-0.06274,0.09994 -0.13084,0.19642 -0.204,0.289c-0.14284,0.17949 -0.30148,0.34582 -0.474,0.497c-0.11466,0.10109 -0.2363,0.19398 -0.364,0.278c-0.19879,0.12984 -0.40899,0.2413 -0.628,0.333c0.00367,0.001 0.00733,0.002 0.011,0.003c0.21267,0.06933 0.409,0.14833 0.589,0.237c0.19726,0.09571 0.38423,0.21131 0.558,0.345c0.07115,0.05575 0.14019,0.11412 0.207,0.175c0.20816,0.18639 0.38984,0.40037 0.54,0.636c0.17919,0.29252 0.30924,0.61243 0.385,0.947c0.0742,0.32378 0.1121,0.65482 0.113,0.987c0.00052,0.24052 -0.01585,0.48078 -0.049,0.719c-0.04866,0.36122 -0.14727,0.71392 -0.293,1.048c-0.21565,0.49775 -0.53909,0.94142 -0.947,1.299c-0.10423,0.0925 -0.21339,0.17929 -0.327,0.26c-0.3388,0.23813 -0.71078,0.42513 -1.104,0.555c-0.17356,0.0585 -0.35015,0.10757 -0.529,0.147c-0.41163,0.08937 -0.83178,0.13363 -1.253,0.132c-0.09671,-0.00017 -0.1934,-0.00251 -0.29,-0.007c-0.50022,-0.02 -0.99556,-0.10642 -1.473,-0.257c-0.55,-0.176 -1.027,-0.433 -1.431,-0.771c-0.40333,-0.33867 -0.72367,-0.75233 -0.961,-1.241c-0.11489,-0.23712 -0.2018,-0.4868 -0.259,-0.744c-0.06679,-0.3041 -0.09966,-0.61466 -0.098,-0.926h1.807c-0.00032,0.0938 0.00368,0.18757 0.012,0.281c0.02186,0.25259 0.08187,0.5004 0.178,0.735c0.12087,0.29711 0.30595,0.56382 0.542,0.781c0.09648,0.0883 0.20055,0.16794 0.311,0.238c0.17072,0.10732 0.35326,0.19456 0.544,0.26c0.15184,0.05275 0.30768,0.09321 0.466,0.121c0.2153,0.03742 0.43347,0.05583 0.652,0.055c0.16037,0.00052 0.32063,-0.00817 0.48,-0.026c0.21495,-0.02394 0.42699,-0.06916 0.633,-0.135c0.332,-0.10733 0.61533,-0.27167 0.85,-0.493c0.08452,-0.07997 0.16213,-0.16695 0.232,-0.26c0.12903,-0.17305 0.23336,-0.36321 0.31,-0.565c0.072,-0.18667 0.12333,-0.39233 0.154,-0.617c0.0246,-0.18229 0.03663,-0.36606 0.036,-0.55c0,-0.44267 -0.07333,-0.82533 -0.22,-1.148c-0.13866,-0.31171 -0.34741,-0.5872 -0.61,-0.805c-0.11873,-0.0956 -0.24631,-0.17964 -0.381,-0.251c-0.18487,-0.09675 -0.37967,-0.1732 -0.581,-0.228c-0.16853,-0.04663 -0.33988,-0.08237 -0.513,-0.107c-0.23919,-0.0335 -0.48047,-0.04988 -0.722,-0.049h-1.289v-1.465h1.289c0.20238,0.00066 0.40456,-0.01304 0.605,-0.041z" fill="#ff0000" fill-rule="evenodd" stroke="#ff0000" stroke-linecap="round"/><path d="M235.25738,183.99159v-23.99999h17.52941v23.99999z" fill="none" fill-rule="nonzero" stroke="#000000" stroke-linecap="butt"/></g></g></svg>