<svg version="1.1" xmlns="http://www.w3.org/2000/svg" xmlns:xlink="http://www.w3.org/1999/xlink" width="17.52941" height="23.99999" viewBox="0,0,17.52941,23.99999"><g transform="translate(-235.25737,-159.99159)"><g data-paper-data="{&quot;isPaintingLayer&quot;:true}" stroke-width="0" stroke-linejoin="miter" stroke-miterlimit="10" stroke-dasharray="" stroke-dashoffset="0" style="mix-blend-mode: normal"><path d="M247.41631,179.67617c-0.21161,0.09243 -0.43032,0.16767 -0.654,0.225c-0.22701,0.06507 -0.45869,0.11254 -0.693,0.142c-0.08614,0.01053 -0.17249,0.0192 -0.259,0.026c-0.1347,0.01147 -0.26981,0.01748 -0.405,0.018c-0.03167,-0.00015 -0.06334,-0.00048 -0.095,-0.001c-0.41267,-0.00467 -0.8,-0.04133 -1.162,-0.11c-0.41871,-0.07606 -0.82533,-0.2079 -1.209,-0.392c-0.66919,-0.32031 -1.24568,-0.80593 -1.675,-1.411c-0.20838,-0.29065 -0.38695,-0.60155 -0.533,-0.928c-0.17683,-0.39748 -0.31384,-0.8115 -0.409,-1.236c-0.192,-0.836 -0.272,-1.75233 -0.24,-2.749c0.00063,-0.016 0.0013,-0.032 0.002,-0.048c0.0372,-0.99281 0.21255,-1.97559 0.521,-2.92c0.10266,-0.31328 0.22148,-0.62102 0.356,-0.922c0.23757,-0.53569 0.53586,-1.04234 0.889,-1.51c0.03085,-0.04037 0.06219,-0.08038 0.094,-0.12c0.45369,-0.57649 1.01766,-1.05683 1.659,-1.413c0.14899,-0.08209 0.30258,-0.15554 0.46,-0.22c0.56256,-0.22726 1.16429,-0.34176 1.771,-0.337c0.24039,-0.0006 0.48056,0.01443 0.719,0.045c0.48686,0.06019 0.96012,0.20183 1.4,0.419c0.61867,0.30933 1.13967,0.75033 1.563,1.323c0.20696,0.28643 0.38515,0.59258 0.532,0.914c0.16904,0.37117 0.30457,0.75671 0.405,1.152c0.08287,0.3219 0.14631,0.64849 0.19,0.978c0.05867,0.43733 0.088,0.89667 0.088,1.378c0.0001,0.10801 -0.00124,0.21602 -0.004,0.324c-0.00148,0.03468 -0.00315,0.06934 -0.005,0.104c-0.02508,0.50131 -0.08556,1.00022 -0.181,1.493c-0.03245,0.17036 -0.07114,0.33948 -0.116,0.507c-0.08834,0.3341 -0.20614,0.65971 -0.352,0.973c-0.05927,0.1221 -0.12503,0.24093 -0.197,0.356c-0.16864,0.27381 -0.3792,0.51947 -0.624,0.728c-0.332,0.27933 -0.73867,0.419 -1.22,0.419c-0.08152,0.00045 -0.16299,-0.00389 -0.244,-0.013c-0.13369,-0.01518 -0.26501,-0.04676 -0.391,-0.094c-0.18309,-0.06795 -0.34949,-0.17434 -0.488,-0.312c-0.00335,-0.00332 -0.00668,-0.00665 -0.01,-0.01c-0.09535,-0.0978 -0.17739,-0.20775 -0.244,-0.327c-0.02527,-0.04465 -0.04863,-0.09036 -0.07,-0.137c-0.04224,-0.09332 -0.07766,-0.18957 -0.106,-0.288c-0.102,0.15975 -0.21813,0.31001 -0.347,0.449c-0.12301,0.13315 -0.25864,0.25405 -0.405,0.361c-0.17539,0.11717 -0.36622,0.20938 -0.567,0.274c-0.20495,0.06532 -0.41889,0.09805 -0.634,0.097c-0.04906,0.00012 -0.09811,-0.00188 -0.147,-0.006c-0.24604,-0.01799 -0.48236,-0.10345 -0.683,-0.247c-0.12347,-0.08964 -0.23357,-0.19637 -0.327,-0.317c-0.09465,-0.12255 -0.17516,-0.25539 -0.24,-0.396c-0.14933,-0.306 -0.25167,-0.67067 -0.307,-1.094c-0.0094,-0.07084 -0.0174,-0.14185 -0.024,-0.213c-0.02,-0.218 -0.028,-0.44667 -0.024,-0.686c0.00256,-0.1662 0.01023,-0.33227 0.023,-0.498c0.02436,-0.30417 0.06206,-0.60713 0.113,-0.908c0.05938,-0.35518 0.14257,-0.70597 0.249,-1.05c0.07664,-0.24789 0.16882,-0.4907 0.276,-0.727c0.12073,-0.26731 0.26673,-0.52246 0.436,-0.762c0.06993,-0.09863 0.14468,-0.19375 0.224,-0.285c0.22197,-0.25857 0.48643,-0.47738 0.782,-0.647c0.38707,-0.21926 0.82517,-0.3324 1.27,-0.328c0.436,0 0.79733,0.08633 1.084,0.259c0.09517,0.05724 0.18668,0.12037 0.274,0.189c0.15537,0.12088 0.29304,0.26293 0.409,0.422l-0.429,4.921c-0.00381,0.04828 -0.00681,0.09662 -0.009,0.145c-0.00733,0.20133 0.002,0.36967 0.028,0.505c0.00854,0.04308 0.01888,0.08579 0.031,0.128c0.014,0.05067 0.03033,0.097 0.049,0.139c0.01823,0.04184 0.04068,0.08171 0.067,0.119c0.05867,0.09733 0.13333,0.16233 0.224,0.195c0.02073,0.00719 0.04175,0.01352 0.063,0.019c0.07502,0.02004 0.15235,0.03012 0.23,0.03c0.13215,0.00097 0.26267,-0.02917 0.381,-0.088c0.09613,-0.04918 0.18361,-0.11369 0.259,-0.191c0.02451,-0.02454 0.04819,-0.04988 0.071,-0.076c0.082,-0.094 0.15767,-0.20233 0.227,-0.325c0.06365,-0.11426 0.11912,-0.23289 0.166,-0.355c0.01101,-0.02787 0.02168,-0.05587 0.032,-0.084c0.056,-0.15333 0.10567,-0.31867 0.149,-0.496c0.04139,-0.17315 0.07542,-0.34797 0.102,-0.524c0.02046,-0.13425 0.0378,-0.26895 0.052,-0.404c0.03287,-0.31365 0.05122,-0.62865 0.055,-0.944c0.00377,-0.11229 0.00577,-0.22464 0.006,-0.337c0,-0.30267 -0.01333,-0.59367 -0.04,-0.873c-0.03209,-0.34239 -0.08924,-0.68197 -0.171,-1.016c-0.06462,-0.26542 -0.14851,-0.52578 -0.251,-0.779c-0.12714,-0.31571 -0.292,-0.61489 -0.491,-0.891c-0.32329,-0.44297 -0.74865,-0.80144 -1.24,-1.045c-0.23501,-0.11541 -0.48268,-0.20301 -0.738,-0.261c-0.3059,-0.0684 -0.61856,-0.10195 -0.932,-0.1c-0.04901,-0.0002 -0.09802,0.00046 -0.147,0.002c-0.5516,0.01424 -1.092,0.15885 -1.577,0.422c-0.21466,0.11812 -0.41845,0.25499 -0.609,0.409c-0.29,0.2352 -0.55235,0.50258 -0.782,0.797c-0.20941,0.27034 -0.3932,0.55959 -0.549,0.864c-0.19039,0.3728 -0.3467,0.76205 -0.467,1.163c-0.09956,0.32901 -0.1797,0.66359 -0.24,1.002c-0.09341,0.52856 -0.1469,1.06341 -0.16,1.6c-0.018,0.47933 -0.008,0.93 0.03,1.352c0.02908,0.34041 0.08086,0.67849 0.155,1.012c0.06184,0.2779 0.14474,0.55069 0.248,0.816c0.12786,0.33076 0.29721,0.64393 0.504,0.932c0.33753,0.47527 0.79367,0.85384 1.323,1.098c0.00266,0.00134 0.00533,0.00267 0.008,0.004c0.3,0.13933 0.63,0.23933 0.99,0.3c0.29811,0.04928 0.59985,0.07336 0.902,0.072c0.19533,0 0.394,-0.01467 0.596,-0.044c0.20128,-0.02899 0.40015,-0.07278 0.595,-0.131c0.19054,-0.05056 0.37679,-0.1161 0.557,-0.196c0.04852,-0.02154 0.09654,-0.04421 0.144,-0.068c0.11554,-0.05751 0.22712,-0.12265 0.334,-0.195l0.313,1.142c-0.16267,0.124 -0.34833,0.23133 -0.557,0.322zM246.50331,169.95017c-0.094,-0.01933 -0.19,-0.029 -0.288,-0.029c-0.07617,-0.00039 -0.15229,0.00362 -0.228,0.012c-0.24035,0.02554 -0.47144,0.10668 -0.675,0.237c-0.12211,0.07892 -0.23454,0.17189 -0.335,0.277c-0.12107,0.12756 -0.22679,0.26885 -0.315,0.421c-0.01296,0.02284 -0.02562,0.04584 -0.038,0.069c-0.158,0.292 -0.28667,0.63833 -0.386,1.039c-0.05609,0.22704 -0.10313,0.45622 -0.141,0.687c-0.04141,0.25317 -0.07443,0.50764 -0.099,0.763c-0.0008,0.02766 -0.00146,0.05533 -0.002,0.083c-0.00933,0.29867 -0.002,0.569 0.022,0.811c0.01533,0.15667 0.03867,0.29767 0.07,0.423c0.01977,0.08035 0.04517,0.15921 0.076,0.236c0.00911,0.0229 0.01878,0.04557 0.029,0.068c0.03,0.06667 0.063,0.12633 0.099,0.179c0.0422,0.06281 0.09303,0.11937 0.151,0.168c0.0483,0.04051 0.10262,0.07324 0.161,0.097c0.07768,0.03055 0.16053,0.04583 0.244,0.045c0.1913,0.00051 0.3812,-0.03267 0.561,-0.098c0.05695,-0.02048 0.11242,-0.04487 0.166,-0.073c0.11989,-0.06407 0.23028,-0.14451 0.328,-0.239c0.03565,-0.03576 0.07,-0.07278 0.103,-0.111c0.05679,-0.06625 0.1102,-0.13534 0.16,-0.207c0.08467,-0.12 0.163,-0.25833 0.235,-0.415l0.009,-0.097l0.372,-4.248c-0.09133,-0.046 -0.18433,-0.07867 -0.279,-0.098z" fill="#ff0000" fill-rule="evenodd" stroke="#ff0000" stroke-linecap="round"/><path d="M235.25738,183.99159v-23.99999h17.52941v23.99999z" fill="none" fill-rule="nonzero" stroke="#000000" stroke-linecap="butt"/></g></g></svg>