<svg version="1.1" xmlns="http://www.w3.org/2000/svg" xmlns:xlink="http://www.w3.org/1999/xlink" width="17.52941" height="23.99999" viewBox="0,0,17.52941,23.99999"><g transform="translate(-235.25737,-159.99159)"><g data-paper-data="{&quot;isPaintingLayer&quot;:true}" stroke-width="0" stroke-linejoin="miter" stroke-miterlimit="10" stroke-dasharray="" stroke-dashoffset="0" style="mix-blend-mode: normal"><path d="M249.34352,175.5808c-0.00984,0.59688 -0.1288,1.18693 -0.351,1.741c-0.22264,0.56158 -0.55052,1.07546 -0.966,1.514c-0.41067,0.436 -0.899,0.77933 -1.465,1.03c-0.19565,0.08646 -0.39756,0.158 -0.604,0.214c-0.41126,0.10985 -0.83533,0.16433 -1.261,0.162c-0.16893,0.00023 -0.33778,-0.00744 -0.506,-0.023c-0.47531,-0.04154 -0.94089,-0.15903 -1.379,-0.348c-0.55121,-0.23685 -1.04681,-0.58633 -1.455,-1.026c-0.05671,-0.06046 -0.11174,-0.12248 -0.165,-0.186c-0.3318,-0.39822 -0.59598,-0.8482 -0.782,-1.332c-0.02874,-0.07302 -0.05575,-0.14671 -0.081,-0.221c-0.1772,-0.53182 -0.26867,-1.08844 -0.271,-1.649l0.019,-9.629h1.719l0.039,9.629c0.00511,0.4144 0.07253,0.82566 0.2,1.22c0.12733,0.39067 0.31133,0.73567 0.552,1.035c0.23822,0.30277 0.53999,0.54957 0.884,0.723c0.18145,0.09255 0.37402,0.16145 0.573,0.205c0.21448,0.04687 0.43346,0.07001 0.653,0.069c0.1546,0.00025 0.30901,-0.01078 0.462,-0.033c0.26385,-0.03678 0.5199,-0.1165 0.758,-0.236c0.34614,-0.17454 0.64964,-0.42307 0.889,-0.728c0.05861,-0.07505 0.11367,-0.1528 0.165,-0.233c0.15888,-0.24973 0.28396,-0.51941 0.372,-0.802c0.124,-0.39067 0.19233,-0.79733 0.205,-1.22l0.029,-9.629h1.749l0.019,9.629c0.00013,0.04134 -0.00021,0.08267 -0.001,0.124z" fill="#ff0000" fill-rule="evenodd" stroke="#ff0000" stroke-linecap="round"/><path d="M235.25738,183.99159v-23.99999h17.52941v23.99999z" fill="none" fill-rule="nonzero" stroke="#000000" stroke-linecap="butt"/></g></g></svg>