<svg version="1.1" xmlns="http://www.w3.org/2000/svg" xmlns:xlink="http://www.w3.org/1999/xlink" width="17.52941" height="24.06689" viewBox="0,0,17.52941,24.06689"><g transform="translate(-235.25737,-159.99159)"><g data-paper-data="{&quot;isPaintingLayer&quot;:true}" stroke-width="0" stroke-linejoin="miter" stroke-miterlimit="10" stroke-dasharray="" stroke-dashoffset="0" style="mix-blend-mode: normal"><path d="M241.71302,169.42949l0.088,1.152c0.1402,-0.17896 0.29725,-0.34405 0.469,-0.493c0.16933,-0.14667 0.35167,-0.272 0.547,-0.376c0.07789,-0.04468 0.15762,-0.08605 0.239,-0.124c0.2165,-0.09928 0.44226,-0.17698 0.674,-0.232c0.11168,-0.02704 0.22445,-0.0494 0.338,-0.067c0.24522,-0.03738 0.49295,-0.05577 0.741,-0.055c0.20935,-0.00048 0.4185,0.01321 0.626,0.041c0.4079,0.05223 0.80391,0.17364 1.171,0.359c0.52067,0.26733 0.95667,0.63833 1.308,1.113c0.352,0.47533 0.619,1.04333 0.801,1.704c0.08142,0.29707 0.14388,0.59901 0.187,0.904c0.05871,0.42043 0.08745,0.8445 0.086,1.269v0.205c0.00023,0.19749 -0.00611,0.39493 -0.019,0.592c-0.03219,0.51504 -0.11731,1.02539 -0.254,1.523c-0.182,0.654 -0.449,1.222 -0.801,1.704c-0.34126,0.47299 -0.78719,0.86074 -1.303,1.133c-0.24605,0.12929 -0.50699,0.22802 -0.777,0.294c-0.32606,0.07897 -0.66052,0.11792 -0.996,0.116c-0.40333,0 -0.77933,-0.04233 -1.128,-0.127c-0.09624,-0.02332 -0.19163,-0.05001 -0.286,-0.08c-0.22757,-0.07176 -0.44734,-0.16624 -0.656,-0.282c-0.16933,-0.09733 -0.329,-0.20633 -0.479,-0.327c-0.15005,-0.12056 -0.29047,-0.25263 -0.42,-0.395v5.078h-1.806v-14.629zM247.17902,174.43349c-0.01054,-0.43075 -0.06686,-0.85916 -0.168,-1.278c-0.03112,-0.12821 -0.06782,-0.25499 -0.11,-0.38c-0.10094,-0.30164 -0.23971,-0.58927 -0.413,-0.856c-0.23447,-0.34574 -0.54509,-0.6331 -0.908,-0.84c-0.21281,-0.1198 -0.44338,-0.20487 -0.683,-0.252c-0.20578,-0.041 -0.41518,-0.0611 -0.625,-0.06c-0.08976,-0.00026 -0.1795,0.00307 -0.269,0.01c-0.17171,0.01337 -0.34179,0.04283 -0.508,0.088c-0.04401,0.01182 -0.08769,0.02482 -0.131,0.039c-0.17918,0.05901 -0.34994,0.14103 -0.508,0.244c-0.20818,0.12343 -0.39605,0.27825 -0.557,0.459c-0.16508,0.18529 -0.30928,0.38818 -0.43,0.605v5.088c0.11067,0.19533 0.23767,0.37767 0.381,0.547c0.1403,0.16688 0.30479,0.31182 0.488,0.43c0.20867,0.13667 0.44167,0.244 0.699,0.322c0.11792,0.03551 0.23823,0.06258 0.36,0.081c0.16351,0.02454 0.32866,0.03657 0.494,0.036c0.17927,0.00093 0.35829,-0.01379 0.535,-0.044c0.2688,-0.04511 0.52748,-0.13754 0.764,-0.273c0.36467,-0.212 0.664,-0.497 0.898,-0.855c0.09671,-0.14811 0.18228,-0.3032 0.256,-0.464c0.11377,-0.24947 0.20318,-0.50934 0.267,-0.776c0.01426,-0.05879 0.02759,-0.11779 0.04,-0.177c0.0885,-0.42696 0.1324,-0.86196 0.131,-1.298v-0.205c-0.00011,-0.06368 -0.00111,-0.12735 -0.003,-0.191z" fill="#ff0000" fill-rule="evenodd" stroke="#ff0000" stroke-linecap="round"/><path d="M235.25738,183.99159v-23.99999h17.52941v23.99999z" fill="none" fill-rule="nonzero" stroke="#000000" stroke-linecap="butt"/></g></g></svg>