<svg version="1.1" xmlns="http://www.w3.org/2000/svg" xmlns:xlink="http://www.w3.org/1999/xlink" width="17.52941" height="23.99999" viewBox="0,0,17.52941,23.99999"><g transform="translate(-235.25737,-159.99159)"><g data-paper-data="{&quot;isPaintingLayer&quot;:true}" stroke-width="0" stroke-linejoin="miter" stroke-miterlimit="10" stroke-dasharray="" stroke-dashoffset="0" style="mix-blend-mode: normal"><path d="M240.45516,182.4085c0.23697,-0.04529 0.45997,-0.14566 0.651,-0.293c0.07506,-0.05863 0.14621,-0.1221 0.213,-0.19c0.17533,-0.1796 0.32113,-0.38582 0.432,-0.611c0.06492,-0.13331 0.12137,-0.27058 0.169,-0.411c0.07342,-0.21785 0.12927,-0.44123 0.167,-0.668c0.06867,-0.40067 0.103,-0.80267 0.103,-1.206v-1.651c-0.00019,-0.12613 0.00448,-0.25223 0.014,-0.378c0.026,-0.35726 0.09862,-0.70958 0.216,-1.048c0.14703,-0.42618 0.38914,-0.81329 0.708,-1.132c0.17355,-0.17278 0.36496,-0.32664 0.571,-0.459c0.05318,-0.03465 0.10719,-0.06799 0.162,-0.1c0.17254,-0.09934 0.35162,-0.18687 0.536,-0.262c-0.0335,-0.01326 -0.06683,-0.02693 -0.1,-0.041c-0.21532,-0.09158 -0.42212,-0.20201 -0.618,-0.33c-0.04057,-0.02649 -0.08058,-0.05383 -0.12,-0.082c-0.16321,-0.11657 -0.31431,-0.24923 -0.451,-0.396c-0.31145,-0.32409 -0.54801,-0.71255 -0.693,-1.138c-0.05237,-0.15089 -0.09545,-0.30484 -0.129,-0.461c-0.06536,-0.3124 -0.09753,-0.63084 -0.096,-0.95v-1.66c-0.00006,-0.40116 -0.02109,-0.80204 -0.063,-1.201c-0.01454,-0.13824 -0.03557,-0.27573 -0.063,-0.412c-0.04579,-0.23363 -0.1148,-0.46209 -0.206,-0.682c-0.13798,-0.31234 -0.35304,-0.58452 -0.625,-0.791c-0.06888,-0.05217 -0.14254,-0.09771 -0.22,-0.136c-0.13133,-0.066 -0.27967,-0.11533 -0.445,-0.148c-0.14772,-0.02857 -0.29758,-0.04463 -0.448,-0.048l0.195,-1.123c0.63133,0.01933 1.17333,0.15267 1.626,0.4c0.45267,0.24733 0.82533,0.56967 1.118,0.967c0.332,0.44933 0.57133,0.954 0.718,1.514c0.0044,0.01732 0.00873,0.03465 0.013,0.052c0.13562,0.5253 0.20516,1.06548 0.207,1.608v1.66c0,0.20733 0.01033,0.40167 0.031,0.583c0.01722,0.15061 0.04427,0.29993 0.081,0.447c0.02687,0.10727 0.06027,0.2128 0.1,0.316c0.06067,0.15927 0.14024,0.31069 0.237,0.451c0.09326,0.13318 0.20467,0.25266 0.331,0.355c0.16874,0.13494 0.35863,0.24104 0.562,0.314c0.0577,0.02089 0.11606,0.0399 0.175,0.057c0.18,0.05333 0.375,0.09267 0.585,0.118c0.20345,0.0239 0.40815,0.03559 0.613,0.035v1.416c-0.04634,0.00048 -0.09268,0.00148 -0.139,0.003c-0.41133,0.01533 -0.77367,0.07133 -1.087,0.168c-0.10035,0.03044 -0.19857,0.06753 -0.294,0.111c-0.20968,0.09476 -0.39992,0.22769 -0.561,0.392c-0.21467,0.22133 -0.374,0.498 -0.478,0.83c-0.01336,0.0427 -0.0257,0.08571 -0.037,0.129c-0.04133,0.15667 -0.072,0.326 -0.092,0.508c-0.01882,0.18071 -0.02783,0.36231 -0.027,0.544v1.651c-0.00027,0.016 -0.0006,0.032 -0.001,0.048c-0.0057,0.51672 -0.07762,1.03057 -0.214,1.529c-0.13728,0.51757 -0.36184,1.00793 -0.664,1.45c-0.306,0.436 -0.69033,0.794 -1.153,1.074c-0.25373,0.15253 -0.52923,0.2655 -0.817,0.335c-0.27293,0.06568 -0.55231,0.10089 -0.833,0.105l-0.205,-1.123c0.11589,-0.00334 0.23129,-0.01638 0.345,-0.039z" fill="#ff0000" fill-rule="evenodd" stroke="#ff0000" stroke-linecap="round"/><path d="M235.25738,183.99159v-23.99999h17.52941v23.99999z" fill="none" fill-rule="nonzero" stroke="#000000" stroke-linecap="butt"/></g></g></svg>