<svg version="1.1" xmlns="http://www.w3.org/2000/svg" xmlns:xlink="http://www.w3.org/1999/xlink" width="17.52941" height="24.0669" viewBox="0,0,17.52941,24.0669"><g transform="translate(-235.25737,-159.99159)"><g data-paper-data="{&quot;isPaintingLayer&quot;:true}" stroke-width="0" stroke-linejoin="miter" stroke-miterlimit="10" stroke-dasharray="" stroke-dashoffset="0" style="mix-blend-mode: normal"><path d="M239.98202,173.76549c0.04101,-0.44454 0.12269,-0.88438 0.244,-1.314c0.05976,-0.21048 0.1312,-0.41747 0.214,-0.62c0.15639,-0.38703 0.36354,-0.75156 0.616,-1.084c0.36467,-0.47467 0.812,-0.84567 1.342,-1.113c0.53067,-0.26667 1.13467,-0.4 1.812,-0.4c0.11576,-0.00023 0.23149,0.00344 0.347,0.011c0.24019,0.01551 0.47868,0.05097 0.713,0.106c0.04084,0.00966 0.08151,0.01999 0.122,0.031c0.27281,0.07322 0.53524,0.18075 0.781,0.32c0.176,0.098 0.342,0.212 0.498,0.342c0.156,0.13067 0.30233,0.274 0.439,0.43l0.078,-1.045h1.661v14.629h-1.807v-5.02c-0.156,0.16333 -0.32033,0.31 -0.493,0.44c-0.17439,0.13124 -0.36289,0.2426 -0.562,0.332c-0.06373,0.03103 -0.12843,0.06005 -0.194,0.087c-0.20583,0.08391 -0.41865,0.14949 -0.636,0.196c-0.29933,0.06533 -0.62167,0.098 -0.967,0.098c-0.67,0 -1.26733,-0.13667 -1.792,-0.41c-0.52359,-0.27306 -0.97914,-0.66026 -1.333,-1.133c-0.15003,-0.19912 -0.28412,-0.40978 -0.401,-0.63c-0.181,-0.34222 -0.32643,-0.7021 -0.434,-1.074c-0.06366,-0.21756 -0.1164,-0.43817 -0.158,-0.661c-0.08829,-0.47959 -0.13181,-0.96635 -0.13,-1.454v-0.205c-0.00032,-0.28681 0.01303,-0.57346 0.04,-0.859zM241.75002,174.95049c0.00646,0.45623 0.06348,0.91033 0.17,1.354c0.03209,0.13264 0.07013,0.26378 0.114,0.393c0.09986,0.29836 0.23694,0.58294 0.408,0.847c0.2269,0.3511 0.53313,0.64397 0.894,0.855c0.36133,0.21133 0.79267,0.317 1.294,0.317c0.10183,0.00004 0.2036,-0.00463 0.305,-0.014c0.15752,-0.01408 0.31347,-0.04219 0.466,-0.084c0.04361,-0.01207 0.08695,-0.02507 0.13,-0.039c0.17878,-0.0571 0.35133,-0.13215 0.515,-0.224c0.20729,-0.12268 0.39503,-0.27571 0.557,-0.454c0.16505,-0.18238 0.31207,-0.3803 0.439,-0.591v-5.215c-0.12134,-0.19879 -0.26383,-0.38387 -0.425,-0.552c-0.1592,-0.16558 -0.33783,-0.3113 -0.532,-0.434c-0.202,-0.124 -0.42167,-0.22 -0.659,-0.288c-0.238,-0.06867 -0.497,-0.103 -0.777,-0.103c-0.16848,-0.00054 -0.33672,0.01284 -0.503,0.04c-0.28015,0.04405 -0.54971,0.13967 -0.795,0.282c-0.36255,0.21275 -0.67039,0.50724 -0.899,0.86c-0.08354,0.12645 -0.15903,0.25804 -0.226,0.394c-0.13308,0.27325 -0.2357,0.56031 -0.306,0.856c-0.01426,0.05879 -0.02759,0.11779 -0.04,0.177c-0.08843,0.42664 -0.13233,0.8613 -0.131,1.297v0.205c-0.00002,0.04034 0.00031,0.08067 0.001,0.121z" fill="#ff0000" fill-rule="evenodd" stroke="#ff0000" stroke-linecap="round"/><path d="M235.25738,183.99159v-23.99999h17.52941v23.99999z" fill="none" fill-rule="nonzero" stroke="#000000" stroke-linecap="butt"/></g></g></svg>