<svg version="1.1" xmlns="http://www.w3.org/2000/svg" xmlns:xlink="http://www.w3.org/1999/xlink" width="17.52941" height="23.99999" viewBox="0,0,17.52941,23.99999"><g transform="translate(-235.25737,-159.99159)"><g data-paper-data="{&quot;isPaintingLayer&quot;:true}" stroke-width="0" stroke-linejoin="miter" stroke-miterlimit="10" stroke-dasharray="" stroke-dashoffset="0" style="mix-blend-mode: normal"><path d="M244.25723,165.8278c0.586,0.006 1.15867,0.08233 1.718,0.229c0.56,0.14667 1.05833,0.373 1.495,0.679c0.436,0.306 0.784,0.69667 1.044,1.172c0.26067,0.47533 0.38767,1.045 0.381,1.709c-0.00191,0.11295 -0.00925,0.22575 -0.022,0.338c-0.02501,0.23124 -0.07807,0.45858 -0.158,0.677c-0.114,0.306 -0.26867,0.57967 -0.464,0.821c-0.02517,0.03075 -0.05084,0.06109 -0.077,0.091c-0.17444,0.20185 -0.37329,0.38123 -0.592,0.534c-0.02184,0.0149 -0.04384,0.02957 -0.066,0.044c-0.12,0.07933 -0.25133,0.15667 -0.394,0.232c-0.13877,0.07259 -0.2802,0.13997 -0.424,0.202v0.03c0.10113,0.02373 0.20093,0.05277 0.299,0.087c0.25992,0.09233 0.50719,0.21697 0.736,0.371c0.12109,0.08055 0.23791,0.16733 0.35,0.26c0.17217,0.14147 0.32963,0.29994 0.47,0.473c0.2305,0.29724 0.41057,0.63035 0.533,0.986c0.03981,0.11506 0.0732,0.23224 0.1,0.351c0.06103,0.27275 0.09122,0.5515 0.09,0.831c0.002,0.22333 -0.011,0.438 -0.039,0.644c-0.0498,0.38808 -0.16546,0.76483 -0.342,1.114c-0.25016,0.4951 -0.60707,0.92852 -1.045,1.269c-0.436,0.34533 -0.93867,0.609 -1.508,0.791c-0.57013,0.18231 -1.16446,0.27772 -1.763,0.283h-4.551v-14.218zM244.62823,178.5128c0.36597,-0.00435 0.72876,-0.06853 1.074,-0.19c0.02108,-0.00745 0.04208,-0.01512 0.063,-0.023c0.30287,-0.11291 0.58501,-0.2751 0.835,-0.48c0.26122,-0.21594 0.47271,-0.48576 0.62,-0.791c0.07267,-0.14885 0.12803,-0.30554 0.165,-0.467c0.04429,-0.19622 0.0661,-0.39685 0.065,-0.598c0.00014,-0.01767 0.00014,-0.03533 0,-0.053c0,-0.382 -0.06667,-0.72233 -0.2,-1.021c-0.14,-0.31267 -0.33367,-0.57967 -0.581,-0.801c-0.0581,-0.05043 -0.1185,-0.09814 -0.181,-0.143c-0.21129,-0.15044 -0.44296,-0.26998 -0.688,-0.355c-0.09431,-0.03302 -0.19008,-0.06171 -0.287,-0.086c-0.258,-0.06447 -0.52219,-0.10101 -0.788,-0.109h-2.88v5.117zM245.36023,171.7308c0.32533,-0.10067 0.615,-0.24867 0.869,-0.444c0.25323,-0.1876 0.46329,-0.42732 0.616,-0.703c0.156,-0.28 0.234,-0.60567 0.234,-0.977c0,-0.17533 -0.015,-0.33933 -0.045,-0.492c-0.03431,-0.18315 -0.09671,-0.3599 -0.185,-0.524c-0.15267,-0.28 -0.356,-0.511 -0.61,-0.693c-0.08608,-0.05801 -0.17557,-0.11077 -0.268,-0.158c-0.19918,-0.10109 -0.40919,-0.17926 -0.626,-0.233c-0.337,-0.08461 -0.68259,-0.13024 -1.03,-0.136h-2.47v4.521h2.519c0.33867,-0.00667 0.67067,-0.06033 0.996,-0.161z" fill="#ff0000" fill-rule="evenodd" stroke="#ff0000" stroke-linecap="round"/><path d="M235.25738,183.99159v-23.99999h17.52941v23.99999z" fill="none" fill-rule="nonzero" stroke="#000000" stroke-linecap="butt"/></g></g></svg>