<svg version="1.1" xmlns="http://www.w3.org/2000/svg" xmlns:xlink="http://www.w3.org/1999/xlink" width="17.52941" height="23.99999" viewBox="0,0,17.52941,23.99999"><g transform="translate(-235.25737,-159.99159)"><g data-paper-data="{&quot;isPaintingLayer&quot;:true}" stroke-width="0" stroke-linejoin="miter" stroke-miterlimit="10" stroke-dasharray="" stroke-dashoffset="0" style="mix-blend-mode: normal"><path d="M240.00759,174.11449c0.03436,-0.55243 0.14059,-1.09803 0.316,-1.623c0.0342,-0.10134 0.07121,-0.20172 0.111,-0.301c0.20184,-0.51185 0.48778,-0.98638 0.846,-1.404c0.41296,-0.48357 0.92615,-0.87154 1.504,-1.137c0.26788,-0.12485 0.54807,-0.22137 0.836,-0.288c0.38253,-0.08677 0.77376,-0.12938 1.166,-0.127c0.21585,-0.00052 0.43155,0.0115 0.646,0.036c0.474,0.05223 0.93655,0.18019 1.37,0.379c0.58185,0.26596 1.09984,0.65369 1.519,1.137c0.12884,0.15139 0.24807,0.31071 0.357,0.477c0.24811,0.38257 0.44638,0.79523 0.59,1.228c0.22133,0.654 0.332,1.362 0.332,2.124v0.214c0.00004,0.1872 -0.00696,0.37433 -0.021,0.561c-0.03733,0.53073 -0.14183,1.05457 -0.311,1.559c-0.03429,0.10065 -0.07131,0.20035 -0.111,0.299c-0.20078,0.50897 -0.48315,0.98184 -0.836,1.4c-0.41722,0.48226 -0.93365,0.86873 -1.514,1.133c-0.27283,0.12523 -0.55806,0.22142 -0.851,0.287c-0.37789,0.08373 -0.76395,0.12498 -1.151,0.123c-0.22693,0.0004 -0.45368,-0.01295 -0.679,-0.04c-0.46216,-0.05326 -0.91321,-0.17809 -1.337,-0.37c-0.58035,-0.26185 -1.09564,-0.64875 -1.509,-1.133c-0.11113,-0.12831 -0.21528,-0.2625 -0.312,-0.402c-0.27434,-0.40019 -0.49144,-0.83674 -0.645,-1.297c-0.07678,-0.22634 -0.13989,-0.45709 -0.189,-0.691c-0.09717,-0.47007 -0.1451,-0.94899 -0.143,-1.429v-0.214c-0.00024,-0.16713 0.0051,-0.33422 0.016,-0.501zM241.79959,174.97549c0.00851,0.45366 0.07026,0.90475 0.184,1.344c0.12333,0.472 0.312,0.887 0.566,1.245c0.24179,0.35262 0.5631,0.64345 0.938,0.849c0.19572,0.10739 0.40538,0.18715 0.623,0.237c0.228,0.0518 0.46119,0.0773 0.695,0.076c0.49467,0 0.92933,-0.10433 1.304,-0.313c0.374,-0.208 0.688,-0.491 0.942,-0.849c0.09593,-0.13904 0.18181,-0.28474 0.257,-0.436c0.12755,-0.25864 0.22808,-0.52974 0.3,-0.809c0.12333,-0.472 0.185,-0.96867 0.185,-1.49v-0.214c0.00212,-0.49955 -0.06177,-0.99719 -0.19,-1.48c-0.03468,-0.13004 -0.07505,-0.2585 -0.121,-0.385c-0.10982,-0.30426 -0.25801,-0.59326 -0.441,-0.86c-0.25333,-0.358 -0.56733,-0.643 -0.942,-0.855c-0.19733,-0.11042 -0.40949,-0.19192 -0.63,-0.242c-0.22405,-0.05101 -0.45322,-0.07618 -0.683,-0.075c-0.50133,0 -0.93767,0.10567 -1.309,0.317c-0.37133,0.212 -0.68067,0.497 -0.928,0.855c-0.09614,0.13595 -0.18237,0.27866 -0.258,0.427c-0.13204,0.26103 -0.23531,0.53565 -0.308,0.819c-0.12522,0.48297 -0.18773,0.98006 -0.186,1.479v0.214c0.00012,0.04867 0.00079,0.09734 0.002,0.146z" fill="#ff0000" fill-rule="evenodd" stroke="#ff0000" stroke-linecap="round"/><path d="M235.25738,183.99159v-23.99999h17.52941v23.99999z" fill="none" fill-rule="nonzero" stroke="#000000" stroke-linecap="butt"/></g></g></svg>