<svg version="1.1" xmlns="http://www.w3.org/2000/svg" xmlns:xlink="http://www.w3.org/1999/xlink" width="17.52941" height="23.99999" viewBox="0,0,17.52941,23.99999"><g transform="translate(-235.25737,-159.99159)"><g data-paper-data="{&quot;isPaintingLayer&quot;:true}" stroke-width="0" stroke-linejoin="miter" stroke-miterlimit="10" stroke-dasharray="" stroke-dashoffset="0" style="mix-blend-mode: normal"><path d="M245.77102,183.5045c-0.35799,-0.06407 -0.70191,-0.19066 -1.016,-0.374c-0.45976,-0.27127 -0.85329,-0.64158 -1.152,-1.084c-0.02764,-0.04024 -0.05464,-0.08091 -0.081,-0.122c-0.25813,-0.40838 -0.4549,-0.85245 -0.584,-1.318c-0.0044,-0.01665 -0.00873,-0.03332 -0.013,-0.05c-0.13833,-0.49727 -0.20929,-1.01085 -0.211,-1.527v-1.651c0.00075,-0.21096 -0.01228,-0.42174 -0.039,-0.631c-0.03267,-0.25133 -0.087,-0.478 -0.163,-0.68c-0.09758,-0.27595 -0.25737,-0.52573 -0.467,-0.73c-0.17021,-0.15908 -0.36681,-0.28733 -0.581,-0.379c-0.39267,-0.17267 -0.881,-0.261 -1.465,-0.265v-1.416c0.19883,0.00042 0.39751,-0.01094 0.595,-0.034c0.624,-0.074 1.10767,-0.27267 1.451,-0.596c0.18734,-0.17985 0.33456,-0.39727 0.432,-0.638c0.158,-0.37667 0.237,-0.846 0.237,-1.408v-1.66c-0.00012,-0.09938 0.00222,-0.19874 0.007,-0.298c0.0235,-0.44501 0.09151,-0.88654 0.203,-1.318c0.00895,-0.03543 0.01828,-0.07077 0.028,-0.106c0.13327,-0.49138 0.3501,-0.95616 0.641,-1.374c0.29165,-0.42119 0.67578,-0.77009 1.123,-1.02c0.27449,-0.15432 0.57089,-0.26594 0.879,-0.331c0.26351,-0.0561 0.53166,-0.08757 0.801,-0.094l0.205,1.123c-0.0651,0.00156 -0.13014,0.00523 -0.195,0.011c-0.37867,0.03533 -0.68667,0.14233 -0.924,0.321c-0.2732,0.20397 -0.48719,0.47699 -0.62,0.791c-0.06029,0.13759 -0.11075,0.27928 -0.151,0.424c-0.06031,0.21931 -0.10114,0.44351 -0.122,0.67c-0.03933,0.40333 -0.059,0.80367 -0.059,1.201v1.66c0.00029,0.18985 -0.01106,0.37954 -0.034,0.568c-0.05975,0.5269 -0.23307,1.03456 -0.508,1.488c-0.2102,0.34013 -0.48546,0.63544 -0.81,0.869c-0.26782,0.19258 -0.55834,0.35144 -0.865,0.473c0.22025,0.08634 0.43269,0.19139 0.635,0.314c0.42224,0.25108 0.77737,0.60072 1.035,1.019c0.16938,0.2791 0.30023,0.57983 0.389,0.894c0.10427,0.37514 0.15742,0.76264 0.158,1.152v1.651c0.00015,0.40398 0.03292,0.80729 0.098,1.206c0.01964,0.12205 0.04466,0.24316 0.075,0.363c0.06212,0.24784 0.15168,0.48799 0.267,0.716c0.01442,0.03029 0.02942,0.06029 0.045,0.09c0.14284,0.27549 0.34218,0.51776 0.585,0.711c0.26333,0.208 0.597,0.31867 1.001,0.332l-0.205,1.123c-0.20972,-0.00588 -0.41868,-0.02795 -0.625,-0.066z" fill="#ff0000" fill-rule="evenodd" stroke="#ff0000" stroke-linecap="round"/><path d="M235.25738,183.99159v-23.99999h17.52941v23.99999z" fill="none" fill-rule="nonzero" stroke="#000000" stroke-linecap="butt"/></g></g></svg>