<svg version="1.1" xmlns="http://www.w3.org/2000/svg" xmlns:xlink="http://www.w3.org/1999/xlink" width="17.52941" height="23.99999" viewBox="0,0,17.52941,23.99999"><g transform="translate(-235.25737,-159.99159)"><g data-paper-data="{&quot;isPaintingLayer&quot;:true}" stroke-width="0" stroke-linejoin="miter" stroke-miterlimit="10" stroke-dasharray="" stroke-dashoffset="0" style="mix-blend-mode: normal"><path d="M246.99459,179.48349c-0.00272,-0.01299 -0.00538,-0.02599 -0.008,-0.039c-0.03912,-0.19866 -0.06749,-0.39928 -0.085,-0.601c-0.03446,0.03455 -0.06947,0.06855 -0.105,0.102c-0.15937,0.14921 -0.32804,0.28815 -0.505,0.416c-0.01427,0.01009 -0.0286,0.02009 -0.043,0.03c-0.21917,0.15367 -0.45178,0.28721 -0.695,0.399c-0.27333,0.124 -0.563,0.22167 -0.869,0.293c-0.08704,0.02035 -0.17476,0.0377 -0.263,0.052c-0.23578,0.03777 -0.47422,0.0565 -0.713,0.056c-0.20318,0.00021 -0.40619,-0.01147 -0.608,-0.035c-0.31065,-0.03468 -0.6163,-0.1048 -0.911,-0.209c-0.14432,-0.05188 -0.28555,-0.11198 -0.423,-0.18c-0.26251,-0.12769 -0.50641,-0.29052 -0.725,-0.484c-0.31532,-0.26875 -0.56704,-0.60416 -0.737,-0.982c-0.02673,-0.05947 -0.05141,-0.11984 -0.074,-0.181c-0.12444,-0.33738 -0.18711,-0.69441 -0.185,-1.054c-0.00041,-0.19278 0.01362,-0.38532 0.042,-0.576c0.04717,-0.33101 0.15031,-0.65158 0.305,-0.948c0.23374,-0.43866 0.57078,-0.8138 0.982,-1.093c0.42267,-0.28667 0.932,-0.50167 1.528,-0.645c0.59533,-0.14333 1.261,-0.215 1.997,-0.215h1.973v-0.83c-0.00004,-0.0919 -0.00538,-0.18372 -0.016,-0.275c-0.02192,-0.20194 -0.07594,-0.39909 -0.16,-0.584c-0.11571,-0.25236 -0.28577,-0.47603 -0.498,-0.655c-0.10573,-0.08562 -0.21961,-0.16064 -0.34,-0.224c-0.14265,-0.07555 -0.29194,-0.13781 -0.446,-0.186c-0.15294,-0.04768 -0.30944,-0.08313 -0.468,-0.106c-0.18943,-0.02733 -0.38061,-0.0407 -0.572,-0.04c-0.15006,-0.00048 -0.3,0.00821 -0.449,0.026c-0.17412,0.02071 -0.34589,0.05788 -0.513,0.111c-0.11857,0.03754 -0.2345,0.08297 -0.347,0.136c-0.13117,0.06186 -0.25552,0.13727 -0.371,0.225c-0.01212,0.00918 -0.02412,0.01852 -0.036,0.028c-0.17269,0.13728 -0.31502,0.3089 -0.418,0.504c-0.10536,0.19689 -0.16065,0.41669 -0.161,0.64h-1.817c0.00226,-0.13289 0.01564,-0.26535 0.04,-0.396c0.04923,-0.25703 0.13617,-0.50538 0.258,-0.737c0.08234,-0.15886 0.17908,-0.30982 0.289,-0.451c0.16079,-0.20474 0.34392,-0.39089 0.546,-0.555c0.18603,-0.15116 0.38592,-0.28442 0.597,-0.398c0.23029,-0.12381 0.47004,-0.22914 0.717,-0.315c0.26909,-0.0937 0.54627,-0.16232 0.828,-0.205c0.30913,-0.04659 0.62138,-0.06933 0.934,-0.068c0.18321,-0.0003 0.36635,0.0067 0.549,0.021c0.37929,0.02882 0.75479,0.09514 1.121,0.198c0.12985,0.0369 0.25798,0.07961 0.384,0.128c0.3424,0.12952 0.66385,0.30878 0.954,0.532c0.37133,0.29933 0.66433,0.67033 0.879,1.113c0.11737,0.24452 0.20209,0.5034 0.252,0.77c0.04812,0.25819 0.07156,0.52037 0.07,0.783v4.912c0.0002,0.13478 0.00487,0.26952 0.014,0.404c0.01639,0.23922 0.04442,0.47751 0.084,0.714c0.03333,0.20333 0.07367,0.393 0.121,0.569c0.04159,0.15651 0.09235,0.31044 0.152,0.461v0.156h-1.884c-0.072,-0.13667 -0.129,-0.30733 -0.171,-0.512zM244.93359,174.87249c-0.518,0.01267 -0.977,0.06533 -1.377,0.158c-0.25467,0.05867 -0.48033,0.13433 -0.677,0.227c-0.15383,0.07103 -0.29854,0.16034 -0.431,0.266c-0.00167,0.001 -0.00333,0.002 -0.005,0.003c-0.18724,0.14804 -0.33781,0.33728 -0.44,0.553c-0.04837,0.10392 -0.08493,0.21293 -0.109,0.325c-0.02867,0.13409 -0.04276,0.27088 -0.042,0.408c0.00011,0.04804 0.00178,0.09607 0.005,0.144c0.0116,0.19848 0.05446,0.39389 0.127,0.579c0.088,0.22133 0.21967,0.41 0.395,0.566c0.0908,0.08338 0.19078,0.15618 0.298,0.217c0.11647,0.06625 0.23904,0.12116 0.366,0.164c0.00931,0.00306 0.01865,0.00606 0.028,0.009c0.136,0.04467 0.283,0.07733 0.441,0.098c0.15218,0.01987 0.30553,0.02955 0.459,0.029c0.08673,0.00024 0.17345,-0.00243 0.26,-0.008c0.24634,-0.01547 0.49019,-0.0584 0.727,-0.128c0.05672,-0.01713 0.11306,-0.03547 0.169,-0.055c0.23307,-0.0796 0.45753,-0.18245 0.67,-0.307c0.04805,-0.02885 0.0954,-0.05886 0.142,-0.09c0.1826,-0.12185 0.35127,-0.26336 0.503,-0.422c0.05848,-0.0615 0.1142,-0.12556 0.167,-0.192c0.10159,-0.12686 0.18973,-0.26393 0.263,-0.409v-2.139h-1.68c-0.08635,0.00025 -0.17269,0.00158 -0.259,0.004z" fill="#ff0000" fill-rule="evenodd" stroke="#ff0000" stroke-linecap="round"/><path d="M235.25738,183.99159v-23.99999h17.52941v23.99999z" fill="none" fill-rule="nonzero" stroke="#000000" stroke-linecap="butt"/></g></g></svg>