<svg version="1.1" xmlns="http://www.w3.org/2000/svg" xmlns:xlink="http://www.w3.org/1999/xlink" width="17.52941" height="23.99999" viewBox="0,0,17.52941,23.99999"><g transform="translate(-235.25737,-159.99159)"><g data-paper-data="{&quot;isPaintingLayer&quot;:true}" stroke-width="0" stroke-linejoin="miter" stroke-miterlimit="10" stroke-dasharray="" stroke-dashoffset="0" style="mix-blend-mode: normal"><path d="M240.03032,170.22617c0.00383,-0.34148 0.12774,-0.67072 0.35,-0.93c0.06282,-0.07363 0.13551,-0.13824 0.216,-0.192c0.21867,-0.146 0.50167,-0.219 0.849,-0.219c0.17933,0 0.34233,0.02 0.489,0.06c0.22303,0.05609 0.42469,0.17639 0.58,0.346c0.12168,0.13306 0.21612,0.28865 0.278,0.458c0.06027,0.17116 0.09005,0.35156 0.088,0.533c0.00003,0.02067 -0.0003,0.04134 -0.001,0.062c-0.00465,0.33756 -0.13683,0.66086 -0.37,0.905c-0.05027,0.05287 -0.10552,0.10076 -0.165,0.143c-0.136,0.09667 -0.29567,0.165 -0.479,0.205c-0.1381,0.02898 -0.2789,0.04306 -0.42,0.042c-0.194,0 -0.36833,-0.02267 -0.523,-0.068c-0.20626,-0.05616 -0.39243,-0.16952 -0.537,-0.327c-0.11429,-0.12581 -0.20385,-0.27203 -0.264,-0.431c-0.06262,-0.16995 -0.0938,-0.34988 -0.092,-0.531c0.00005,-0.01867 0.00038,-0.03734 0.001,-0.056zM240.03032,178.78117c0.0036,-0.34183 0.12752,-0.67146 0.35,-0.931c0.06289,-0.07328 0.13557,-0.13755 0.216,-0.191c0.21867,-0.146 0.50167,-0.219 0.849,-0.219c0.17933,0 0.34233,0.01967 0.489,0.059c0.22303,0.05609 0.42469,0.17639 0.58,0.346c0.12179,0.13335 0.21624,0.28929 0.278,0.459c0.06027,0.17116 0.09005,0.35156 0.088,0.533c0.00003,0.02067 -0.0003,0.04134 -0.001,0.062c-0.00491,0.33721 -0.13707,0.66012 -0.37,0.904c-0.05022,0.05322 -0.10548,0.10144 -0.165,0.144c-0.136,0.09667 -0.29567,0.165 -0.479,0.205c-0.1381,0.02898 -0.2789,0.04306 -0.42,0.042c-0.194,0 -0.36833,-0.02267 -0.523,-0.068c-0.20638,-0.05644 -0.39256,-0.17016 -0.537,-0.328c-0.11418,-0.12551 -0.20374,-0.27138 -0.264,-0.43c-0.06262,-0.16995 -0.0938,-0.34988 -0.092,-0.531c0.00005,-0.01867 0.00038,-0.03734 0.001,-0.056z" fill="#ff0000" fill-rule="evenodd" stroke="#ff0000" stroke-linecap="round"/><path d="M235.25738,183.99159v-23.99999h17.52941v23.99999z" fill="none" fill-rule="nonzero" stroke="#000000" stroke-linecap="butt"/></g></g></svg>