<svg version="1.1" xmlns="http://www.w3.org/2000/svg" xmlns:xlink="http://www.w3.org/1999/xlink" width="17.52941" height="23.99999" viewBox="0,0,17.52941,23.99999"><g transform="translate(-235.25737,-159.99159)"><g data-paper-data="{&quot;isPaintingLayer&quot;:true}" stroke-width="0" stroke-linejoin="miter" stroke-miterlimit="10" stroke-dasharray="" stroke-dashoffset="0" style="mix-blend-mode: normal"><path d="M241.97652,176.3838c0.06214,0.25659 0.15586,0.50448 0.279,0.738c0.17438,0.33199 0.4134,0.62576 0.703,0.864c0.29169,0.24377 0.62839,0.42791 0.991,0.542c0.37467,0.12067 0.78333,0.181 1.226,0.181c0.35085,0.00003 0.70029,-0.04432 1.04,-0.132c0.04292,-0.01109 0.08559,-0.0231 0.128,-0.036c0.28042,-0.08311 0.54552,-0.2111 0.785,-0.379c0.26662,-0.18222 0.48989,-0.42086 0.654,-0.699c0.09423,-0.15879 0.16242,-0.33165 0.202,-0.512c0.03563,-0.16358 0.05307,-0.33059 0.052,-0.498c0.00078,-0.15669 -0.01362,-0.31309 -0.043,-0.467c-0.04206,-0.2271 -0.12873,-0.44361 -0.255,-0.637c-0.20164,-0.30281 -0.46214,-0.56195 -0.766,-0.762c-0.0491,-0.03158 -0.09877,-0.06225 -0.149,-0.092c-0.28011,-0.16545 -0.57506,-0.30439 -0.881,-0.415c-0.09284,-0.0341 -0.18584,-0.06777 -0.279,-0.101c-0.26561,-0.09406 -0.53264,-0.18408 -0.801,-0.27c-0.07856,-0.02565 -0.1569,-0.05198 -0.235,-0.079c-0.43834,-0.15152 -0.86976,-0.32236 -1.293,-0.512c-0.0321,-0.01445 -0.0641,-0.02911 -0.096,-0.044c-0.46634,-0.21403 -0.90739,-0.47933 -1.315,-0.791c-0.43,-0.332 -0.78,-0.72433 -1.05,-1.177c-0.14535,-0.24515 -0.25194,-0.51129 -0.316,-0.789c-0.06082,-0.26498 -0.09069,-0.53613 -0.089,-0.808c-0.00025,-0.11717 0.00475,-0.23428 0.015,-0.351c0.03673,-0.45254 0.1697,-0.89201 0.39,-1.289c0.26507,-0.47594 0.62601,-0.8917 1.06,-1.221c0.03071,-0.02339 0.06171,-0.0464 0.093,-0.069c0.42326,-0.30329 0.89307,-0.53567 1.391,-0.688c0.5403,-0.17059 1.10341,-0.25792 1.67,-0.259c0.60934,-0.00161 1.21432,0.1026 1.788,0.308c0.57267,0.20533 1.08033,0.49333 1.523,0.864c0.44267,0.37133 0.79733,0.82067 1.064,1.348c0.10269,0.20295 0.1867,0.41482 0.251,0.633c0.10677,0.36875 0.16361,0.75014 0.169,1.134h-1.856c-0.01495,-0.11907 -0.03463,-0.2375 -0.059,-0.355c-0.05348,-0.26229 -0.13494,-0.51809 -0.243,-0.763c-0.00944,-0.02077 -0.01911,-0.04144 -0.029,-0.062c-0.13928,-0.29923 -0.33135,-0.5709 -0.567,-0.802c-0.04069,-0.03942 -0.08272,-0.07744 -0.126,-0.114c-0.22598,-0.19022 -0.48218,-0.3413 -0.758,-0.447c-0.16758,-0.06517 -0.34105,-0.11406 -0.518,-0.146c-0.21091,-0.03751 -0.42478,-0.05591 -0.639,-0.055c-0.34234,-0.00027 -0.68291,0.04925 -1.011,0.147c-0.03048,0.00919 -0.06082,0.01885 -0.091,0.029c-0.28225,0.09155 -0.54698,0.23017 -0.783,0.41c-0.26,0.19533 -0.46667,0.43633 -0.62,0.723c-0.07828,0.14759 -0.13646,0.30498 -0.173,0.468c-0.03839,0.17335 -0.05718,0.35046 -0.056,0.528c0.0014,0.12579 0.01344,0.25124 0.036,0.375c0.04205,0.23924 0.13628,0.46629 0.276,0.665c0.02512,0.03532 0.05112,0.07 0.078,0.104c0.19424,0.24312 0.42902,0.45084 0.694,0.614c0.01891,0.01214 0.03791,0.02414 0.057,0.036c0.29811,0.18305 0.61449,0.33454 0.944,0.452c0.17464,0.06298 0.34998,0.12399 0.526,0.183c0.16397,0.05515 0.32865,0.10815 0.494,0.159c0.53811,0.16684 1.0663,0.36416 1.582,0.591c0.52004,0.2268 1.00629,0.52427 1.445,0.884c0.42822,0.32969 0.7828,0.74524 1.041,1.22c0.13323,0.24518 0.2328,0.50721 0.296,0.779c0.06751,0.29214 0.10074,0.59116 0.099,0.891c0,0.638 -0.14167,1.19467 -0.425,1.67c-0.2766,0.46848 -0.65114,0.87168 -1.098,1.182c-0.07737,0.05475 -0.15641,0.10711 -0.237,0.157c-0.40043,0.24645 -0.83373,0.43499 -1.287,0.56c-0.55259,0.15782 -1.12432,0.23858 -1.699,0.24c-0.68019,-0.00061 -1.35537,-0.11624 -1.997,-0.342c-0.06341,-0.02222 -0.12642,-0.04556 -0.189,-0.07c-0.55606,-0.21157 -1.06931,-0.52189 -1.515,-0.916c-0.42333,-0.36276 -0.77039,-0.806 -1.021,-1.304c-0.09428,-0.18762 -0.17223,-0.38301 -0.233,-0.584c-0.10461,-0.35121 -0.16244,-0.71467 -0.172,-1.081h1.846c0.01916,0.14774 0.04653,0.2943 0.082,0.439z" fill="#ff0000" fill-rule="evenodd" stroke="#ff0000" stroke-linecap="round"/><path d="M235.25738,183.99159v-23.99999h17.52941v23.99999z" fill="none" fill-rule="nonzero" stroke="#000000" stroke-linecap="butt"/></g></g></svg>