<svg version="1.1" xmlns="http://www.w3.org/2000/svg" xmlns:xlink="http://www.w3.org/1999/xlink" width="17.52941" height="23.99999" viewBox="0,0,17.52941,23.99999"><g transform="translate(-235.25737,-159.99159)"><g data-paper-data="{&quot;isPaintingLayer&quot;:true}" stroke-width="0" stroke-linejoin="miter" stroke-miterlimit="10" stroke-dasharray="" stroke-dashoffset="0" style="mix-blend-mode: normal"><path d="M241.66145,169.42949l0.127,1.563c0.15293,-0.2179 0.32422,-0.42231 0.512,-0.611c0.17996,-0.18079 0.378,-0.34264 0.591,-0.483c0.31517,-0.20979 0.65908,-0.37282 1.021,-0.484c0.04608,-0.0142 0.09242,-0.02753 0.139,-0.04c0.33555,-0.08903 0.68086,-0.13606 1.028,-0.14c0.19273,-0.00041 0.38535,0.0096 0.577,0.03c0.317,0.0329 0.62929,0.10133 0.931,0.204c0.43929,0.14774 0.83651,0.39917 1.158,0.733c0.16295,0.17086 0.30495,0.36053 0.423,0.565c0.12799,0.22181 0.23319,0.456 0.314,0.699c0.1,0.29533 0.171,0.623 0.213,0.983c0.03155,0.27821 0.04691,0.55801 0.046,0.838v6.709h-1.807v-6.669c0.00009,-0.08269 -0.00157,-0.16538 -0.005,-0.248c-0.00733,-0.176 -0.023,-0.34067 -0.047,-0.494c-0.02302,-0.15246 -0.05779,-0.3029 -0.104,-0.45c-0.104,-0.32533 -0.257,-0.589 -0.459,-0.791c-0.05833,-0.05653 -0.12048,-0.10899 -0.186,-0.157c-0.17316,-0.12537 -0.36619,-0.22071 -0.571,-0.282c-0.00499,-0.00168 -0.00999,-0.00335 -0.015,-0.005c-0.15333,-0.046 -0.318,-0.08 -0.494,-0.102c-0.16955,-0.02053 -0.34021,-0.03055 -0.511,-0.03c-0.07172,0.00003 -0.14343,0.00237 -0.215,0.007c-0.24245,0.01446 -0.48205,0.05982 -0.713,0.135c-0.28667,0.094 -0.55033,0.22233 -0.791,0.385c-0.19819,0.14585 -0.37993,0.31284 -0.542,0.498c-0.16797,0.19137 -0.31388,0.40102 -0.435,0.625v7.578h-1.806v-10.566z" fill="#ff0000" fill-rule="evenodd" stroke="#ff0000" stroke-linecap="round"/><path d="M235.25738,183.99159v-23.99999h17.52941v23.99999z" fill="none" fill-rule="nonzero" stroke="#000000" stroke-linecap="butt"/></g></g></svg>