<svg version="1.1" xmlns="http://www.w3.org/2000/svg" xmlns:xlink="http://www.w3.org/1999/xlink" width="17.52941" height="23.99999" viewBox="0,0,17.52941,23.99999"><g transform="translate(-235.25737,-159.99159)"><g data-paper-data="{&quot;isPaintingLayer&quot;:true}" stroke-width="0" stroke-linejoin="miter" stroke-miterlimit="10" stroke-dasharray="" stroke-dashoffset="0" style="mix-blend-mode: normal"><path d="M250.93045,174.00949c-0.13622,0.38535 -0.3412,0.74281 -0.605,1.055c-0.25745,0.30342 -0.57297,0.55229 -0.928,0.732c-0.12334,0.06281 -0.2518,0.115 -0.384,0.156c-0.2615,0.07983 -0.53359,0.11962 -0.807,0.118c-0.09842,-0.00009 -0.1968,-0.00343 -0.295,-0.01c-0.18838,-0.01168 -0.3756,-0.03776 -0.56,-0.078c-0.26475,-0.05899 -0.52203,-0.14754 -0.767,-0.264c-0.01973,-0.00919 -0.0394,-0.01853 -0.059,-0.028c-0.23968,-0.11546 -0.46974,-0.24989 -0.688,-0.402c-0.09778,-0.06799 -0.19413,-0.138 -0.289,-0.21c-0.15918,-0.12091 -0.31491,-0.24629 -0.467,-0.376c-0.08482,-0.06916 -0.17083,-0.13683 -0.258,-0.203c-0.11841,-0.09022 -0.23947,-0.17693 -0.363,-0.26c-0.198,-0.134 -0.39467,-0.24 -0.59,-0.318c-0.13321,-0.05754 -0.2724,-0.10014 -0.415,-0.127c-0.14349,-0.02635 -0.28911,-0.03941 -0.435,-0.039c-0.228,0 -0.44133,0.04733 -0.64,0.142c-0.198,0.094 -0.36867,0.21933 -0.512,0.376c-0.03594,0.04074 -0.06997,0.08312 -0.102,0.127c-0.09893,0.13695 -0.17961,0.28621 -0.24,0.444c-0.00804,0.02053 -0.01571,0.0412 -0.023,0.062c-0.07014,0.20465 -0.1053,0.41966 -0.104,0.636l-1.309,-0.166c-0.00165,-0.41949 0.07114,-0.83594 0.215,-1.23c0.00685,-0.01839 0.01385,-0.03672 0.021,-0.055c0.1347,-0.35637 0.3329,-0.68536 0.585,-0.971c0.25465,-0.29342 0.56719,-0.53105 0.918,-0.698c0.13471,-0.06499 0.27492,-0.11786 0.419,-0.158c0.25154,-0.06861 0.51127,-0.10259 0.772,-0.101c0.04635,0.00024 0.09269,0.00124 0.139,0.003c0.24101,0.00691 0.48078,0.03705 0.716,0.09c0.27,0.062 0.532,0.15167 0.786,0.269c0.01973,0.00919 0.0394,0.01853 0.059,0.028c0.23964,0.11514 0.46971,0.24923 0.688,0.401c0.0696,0.04849 0.13861,0.09783 0.207,0.148c0.18391,0.13456 0.36398,0.27428 0.54,0.419c0.06169,0.05244 0.12403,0.10411 0.187,0.155c0.09849,0.07937 0.19886,0.15639 0.301,0.231c0.05697,0.04147 0.11499,0.08149 0.174,0.12c0.0922,0.06062 0.18731,0.11669 0.285,0.168c0.0136,0.00745 0.02727,0.01479 0.041,0.022c0.1573,0.08433 0.32371,0.15042 0.496,0.197c0.16243,0.04343 0.32987,0.06529 0.498,0.065c0.023,0.00005 0.04601,-0.00028 0.069,-0.001c0.22257,0.00119 0.44202,-0.05238 0.639,-0.156c0.1998,-0.10495 0.3774,-0.24757 0.523,-0.42c0.04485,-0.05356 0.08659,-0.10965 0.125,-0.168c0.08834,-0.13381 0.16083,-0.27745 0.216,-0.428c0.08471,-0.22814 0.12772,-0.46964 0.127,-0.713l1.309,0.176c0,0.42933 -0.07167,0.84267 -0.215,1.24z" fill="#ff0000" fill-rule="evenodd" stroke="#ff0000" stroke-linecap="round"/><path d="M235.25738,183.99159v-23.99999h17.52941v23.99999z" fill="none" fill-rule="nonzero" stroke="#000000" stroke-linecap="butt"/></g></g></svg>