<svg version="1.1" xmlns="http://www.w3.org/2000/svg" xmlns:xlink="http://www.w3.org/1999/xlink" width="17.52941" height="23.99999" viewBox="0,0,17.52941,23.99999"><g transform="translate(-235.25737,-159.99159)"><g data-paper-data="{&quot;isPaintingLayer&quot;:true}" stroke-width="0" stroke-linejoin="miter" stroke-miterlimit="10" stroke-dasharray="" stroke-dashoffset="0" style="mix-blend-mode: normal"><path d="M248.92045,175.00251c-0.00649,0.38855 -0.04024,0.77617 -0.101,1.16c-0.01682,0.10538 -0.03582,0.21041 -0.057,0.315c-0.06007,0.29916 -0.1406,0.59386 -0.241,0.882c-0.176,0.488 -0.40567,0.92567 -0.689,1.313c-0.28267,0.38733 -0.62267,0.708 -1.02,0.962c-0.01361,0.00843 -0.02728,0.01676 -0.041,0.025c-0.28271,0.16688 -0.58592,0.2963 -0.902,0.385c-0.12177,0.03477 -0.24527,0.06314 -0.37,0.085c-0.24374,0.04201 -0.49067,0.06276 -0.738,0.062c-0.172,0.00006 -0.34388,-0.00862 -0.515,-0.026c-0.24715,-0.02392 -0.49154,-0.07079 -0.73,-0.14c-0.37467,-0.11067 -0.71167,-0.27033 -1.011,-0.479c-0.144,-0.10491 -0.28096,-0.21916 -0.41,-0.342c-0.00804,-0.00763 -0.01604,-0.0153 -0.024,-0.023c-0.1244,-0.12089 -0.24034,-0.2502 -0.347,-0.387l-0.088,1.201h-1.66v-15h1.807v5.567c0.14824,-0.18739 0.31509,-0.35927 0.498,-0.513c0.18093,-0.15187 0.37734,-0.28427 0.586,-0.395c0.06651,-0.03501 0.13422,-0.0677 0.203,-0.098c0.21141,-0.09217 0.43105,-0.16416 0.656,-0.215c0.12224,-0.02773 0.24571,-0.04975 0.37,-0.066c0.21419,-0.0279 0.43,-0.0416 0.646,-0.041c0.13886,-0.00016 0.27767,0.00584 0.416,0.018c0.28668,0.02406 0.56976,0.08007 0.844,0.167c0.37244,0.11827 0.72453,0.29297 1.044,0.518c0.02186,0.01608 0.04353,0.03241 0.065,0.049c0.25952,0.20434 0.49057,0.44245 0.687,0.708c0.05574,0.07451 0.10943,0.15054 0.161,0.228c0.16084,0.24317 0.30292,0.49824 0.425,0.763c0.06722,0.1572 0.12728,0.31736 0.18,0.48c0.09284,0.28879 0.16633,0.58344 0.22,0.882c0.09133,0.498 0.137,1.02367 0.137,1.577v0.205c0.00021,0.05767 -0.00013,0.11534 -0.001,0.173zM247.05145,173.65351c-0.00836,-0.06381 -0.0177,-0.12748 -0.028,-0.191c-0.03871,-0.2376 -0.09282,-0.47243 -0.162,-0.703c-0.00751,-0.02139 -0.01517,-0.04272 -0.023,-0.064c-0.10928,-0.3108 -0.25568,-0.60728 -0.436,-0.883c-0.02064,-0.03115 -0.04198,-0.06182 -0.064,-0.092c-0.16785,-0.23516 -0.3823,-0.43327 -0.63,-0.582c-0.05333,-0.03331 -0.10804,-0.06433 -0.164,-0.093c-0.15028,-0.07551 -0.30773,-0.13581 -0.47,-0.18c-0.11389,-0.03164 -0.22983,-0.05536 -0.347,-0.071c-0.14424,-0.01863 -0.28956,-0.02765 -0.435,-0.027c-0.1045,-0.00028 -0.20895,0.0044 -0.313,0.014c-0.18526,0.01692 -0.36825,0.05311 -0.546,0.108c-0.26067,0.08133 -0.49167,0.19367 -0.693,0.337c-0.20685,0.14812 -0.39256,0.32374 -0.552,0.522c-0.15933,0.19867 -0.29433,0.41533 -0.405,0.65v4.619c0.11482,0.2305 0.25394,0.44807 0.415,0.649c0.15906,0.19855 0.34443,0.3745 0.551,0.523c0.02629,0.01856 0.05296,0.03656 0.08,0.054c0.19303,0.12591 0.40273,0.2242 0.623,0.292c0.11264,0.03522 0.22758,0.06262 0.344,0.082c0.17058,0.02786 0.34316,0.04157 0.516,0.041c0.29933,0 0.57267,-0.03767 0.82,-0.113c0.24733,-0.07467 0.46867,-0.18367 0.664,-0.327c0.26285,-0.18445 0.48565,-0.42018 0.655,-0.693c0.04687,-0.07498 0.0909,-0.1517 0.132,-0.23c0.11817,-0.22624 0.21428,-0.46333 0.287,-0.708c0.02689,-0.08256 0.05124,-0.16594 0.073,-0.25c0.04973,-0.19416 0.08747,-0.3912 0.113,-0.59c0.03933,-0.29933 0.059,-0.60533 0.059,-0.918v-0.205c0,-0.332 -0.02133,-0.65567 -0.064,-0.971z" fill="#ff0000" fill-rule="evenodd" stroke="#ff0000" stroke-linecap="round"/><path d="M235.25738,183.99159v-23.99999h17.52941v23.99999z" fill="none" fill-rule="nonzero" stroke="#000000" stroke-linecap="butt"/></g></g></svg>