<svg version="1.1" xmlns="http://www.w3.org/2000/svg" xmlns:xlink="http://www.w3.org/1999/xlink" width="17.52941" height="26.52941" viewBox="0,0,17.52941,26.52941"><g transform="translate(-235.25737,-159.99159)"><g data-paper-data="{&quot;isPaintingLayer&quot;:true}" stroke-width="0" stroke-linejoin="miter" stroke-miterlimit="10" stroke-dasharray="" stroke-dashoffset="0" style="mix-blend-mode: normal"><path d="M240.12133,173.83449c0.03958,-0.46815 0.12465,-0.93134 0.254,-1.383c0.06378,-0.22023 0.14024,-0.43659 0.229,-0.648c0.15592,-0.37651 0.35959,-0.73142 0.606,-1.056c0.35356,-0.46593 0.80744,-0.84633 1.328,-1.113c0.23234,-0.11856 0.47719,-0.2108 0.73,-0.275c0.33937,-0.08511 0.68812,-0.12711 1.038,-0.125c0.15389,-0.00038 0.30772,0.00629 0.461,0.02c0.23859,0.02108 0.47485,0.06324 0.706,0.126c0.03851,0.01072 0.07685,0.02206 0.115,0.034c0.29966,0.09123 0.58484,0.22456 0.847,0.396c0.156,0.09733 0.304,0.21133 0.444,0.342c0.14234,0.13279 0.27439,0.2762 0.395,0.429l0.088,-1.152h1.641v10.342c0.00066,0.27228 -0.01772,0.54428 -0.055,0.814c-0.0479,0.35679 -0.13924,0.70638 -0.272,1.041c-0.218,0.54067 -0.52233,0.99967 -0.913,1.377c-0.06206,0.05914 -0.12609,0.11618 -0.192,0.171c-0.36427,0.29991 -0.77863,0.53315 -1.224,0.689c-0.24486,0.08683 -0.49635,0.15372 -0.752,0.2c-0.35145,0.06322 -0.70791,0.09435 -1.065,0.093c-0.03901,-0.00007 -0.07801,-0.00074 -0.117,-0.002c-0.24467,-0.00733 -0.518,-0.03767 -0.82,-0.091c-0.06928,-0.01219 -0.1383,-0.02586 -0.207,-0.041c-0.29281,-0.06542 -0.57977,-0.15472 -0.858,-0.267c-0.36467,-0.13667 -0.71467,-0.322 -1.05,-0.556c-0.33467,-0.23467 -0.62267,-0.52467 -0.864,-0.87l0.938,-1.084c0.08365,0.10154 0.17105,0.19994 0.262,0.295c0.13157,0.13729 0.27222,0.26558 0.421,0.384c0.07178,0.05684 0.14549,0.11121 0.221,0.163c0.15571,0.10749 0.32031,0.20149 0.492,0.281c0.03738,0.0173 0.07506,0.03397 0.113,0.05c0.19658,0.08328 0.4009,0.14692 0.61,0.19c0.24067,0.04867 0.48167,0.073 0.723,0.073c0.15839,0.00036 0.31667,-0.00865 0.474,-0.027c0.2346,-0.02686 0.4654,-0.0802 0.688,-0.159c0.01605,-0.00552 0.03205,-0.01119 0.048,-0.017c0.31356,-0.11637 0.59958,-0.29649 0.84,-0.529c0.10066,-0.0982 0.19142,-0.20605 0.271,-0.322c0.11814,-0.17304 0.21421,-0.36016 0.286,-0.557c0.07134,-0.1959 0.12228,-0.39864 0.152,-0.605c0.02934,-0.20065 0.04371,-0.40321 0.043,-0.606v-0.908c-0.13397,0.15343 -0.27903,0.29682 -0.434,0.429c-0.15261,0.13004 -0.31775,0.2446 -0.493,0.342c-0.07777,0.04242 -0.15716,0.08178 -0.238,0.118c-0.21621,0.09665 -0.44081,0.17331 -0.671,0.229c-0.12673,0.03083 -0.25488,0.05553 -0.384,0.074c-0.22855,0.03252 -0.45915,0.04856 -0.69,0.048c-0.1041,0.00006 -0.20816,-0.00361 -0.312,-0.011c-0.50121,-0.03167 -0.9903,-0.16756 -1.436,-0.399c-0.51969,-0.27265 -0.97043,-0.66012 -1.318,-1.133c-0.36467,-0.482 -0.64467,-1.05 -0.84,-1.704c-0.06483,-0.21746 -0.11856,-0.43808 -0.161,-0.661c-0.0897,-0.47943 -0.1339,-0.96626 -0.132,-1.454v-0.205c-0.00033,-0.26371 0.01102,-0.5273 0.034,-0.79zM242.05531,176.29451c0.02919,0.12721 0.06422,0.25301 0.105,0.377c0.09724,0.2983 0.23413,0.58217 0.407,0.844c0.228,0.35133 0.521,0.62967 0.879,0.835c0.358,0.20533 0.78767,0.308 1.289,0.308c0.13131,0.00017 0.26253,-0.00718 0.393,-0.022c0.15304,-0.01701 0.3043,-0.04746 0.452,-0.091c0.02713,-0.00792 0.05413,-0.01625 0.081,-0.025c0.21181,-0.06937 0.41305,-0.16763 0.598,-0.292c0.19533,-0.13667 0.371,-0.29933 0.527,-0.488c0.15887,-0.19289 0.29634,-0.40245 0.41,-0.625v-4.844c-0.11375,-0.21659 -0.25127,-0.41984 -0.41,-0.606c-0.15683,-0.18262 -0.33744,-0.34338 -0.537,-0.478c-0.03963,-0.02549 -0.07998,-0.04983 -0.121,-0.073c-0.17505,-0.0986 -0.36052,-0.17741 -0.553,-0.235c-0.1114,-0.03354 -0.22501,-0.05927 -0.34,-0.077c-0.15886,-0.02401 -0.31934,-0.03571 -0.48,-0.035c-0.1955,-0.00119 -0.39068,0.01588 -0.583,0.051c-0.25335,0.04564 -0.49714,0.13389 -0.721,0.261c-0.35784,0.20496 -0.66105,0.49308 -0.884,0.84c-0.08895,0.13623 -0.16815,0.27859 -0.237,0.426c-0.12005,0.25952 -0.21223,0.53104 -0.275,0.81c-0.02031,0.08758 -0.03864,0.1756 -0.055,0.264c-0.07185,0.39762 -0.10733,0.80095 -0.106,1.205v0.205c0,0.51467 0.05367,1.003 0.161,1.465z" fill="#ff0000" fill-rule="evenodd" stroke="#ff0000" stroke-linecap="round"/><path d="M235.25738,186.52101v-26.52941h17.52941v26.52941z" fill="none" fill-rule="nonzero" stroke="#000000" stroke-linecap="butt"/></g></g></svg>