<svg version="1.1" xmlns="http://www.w3.org/2000/svg" xmlns:xlink="http://www.w3.org/1999/xlink" width="103.64214" height="134.15616" viewBox="0,0,103.64214,134.15616"><defs><linearGradient x1="239.33895" y1="206.79193" x2="239.33895" y2="247.95193" gradientUnits="userSpaceOnUse" id="color-1"><stop offset="0" stop-color="#008489"/><stop offset="0.46" stop-color="#00b59d"/><stop offset="0.81" stop-color="#00d4aa"/><stop offset="1" stop-color="#00e0af"/></linearGradient><linearGradient x1="239.33895" y1="205.42193" x2="239.33895" y2="246.59193" gradientUnits="userSpaceOnUse" id="color-2"><stop offset="0" stop-color="#008489"/><stop offset="0.2" stop-color="#0da393"/><stop offset="0.57" stop-color="#21d4a4"/><stop offset="0.85" stop-color="#2ef3ae"/><stop offset="1" stop-color="#33ffb2"/></linearGradient><linearGradient x1="239.33895" y1="218.60193" x2="239.33895" y2="246.13193" gradientUnits="userSpaceOnUse" id="color-3"><stop offset="0" stop-color="#000000"/><stop offset="0.14" stop-color="#003738"/><stop offset="0.28" stop-color="#006869"/><stop offset="0.39" stop-color="#008788"/><stop offset="0.45" stop-color="#009294"/><stop offset="0.92" stop-color="#000000"/></linearGradient><linearGradient x1="199.23954" y1="125.60887" x2="279.50847" y2="202.69615" gradientUnits="userSpaceOnUse" id="color-4"><stop offset="0.06" stop-color="#fffb74"/><stop offset="0.27" stop-color="#ffca00"/><stop offset="0.72" stop-color="#ff5500"/><stop offset="0.76" stop-color="#ff5c03"/><stop offset="0.81" stop-color="#ff700c"/><stop offset="0.87" stop-color="#ff911b"/><stop offset="0.94" stop-color="#ffbd2f"/><stop offset="0.96" stop-color="#ffc532"/></linearGradient><linearGradient x1="202.45234" y1="129.54018" x2="275.47639" y2="199.50962" gradientUnits="userSpaceOnUse" id="color-5"><stop offset="0.11" stop-color="#f67f00"/><stop offset="0.72" stop-color="#e42b00"/><stop offset="0.83" stop-color="#eb2d00"/><stop offset="1" stop-color="#ff3300"/></linearGradient><linearGradient x1="205.1988" y1="131.274" x2="273.05125" y2="196.46741" gradientUnits="userSpaceOnUse" id="color-6"><stop offset="0.29" stop-color="#ffca00"/><stop offset="0.78" stop-color="#ff6c00"/><stop offset="1" stop-color="#ff4000"/></linearGradient><linearGradient x1="226.96719" y1="158.19297" x2="226.96719" y2="170.69394" gradientUnits="userSpaceOnUse" id="color-7"><stop offset="0" stop-color="#fffe9c"/><stop offset="0.52" stop-color="#ffed57"/><stop offset="1" stop-color="#ffbf2c"/></linearGradient><linearGradient x1="1840.61908" y1="733.429" x2="1840.61908" y2="889.56691" gradientUnits="userSpaceOnUse" id="color-8"><stop offset="0" stop-color="#fffe9c"/><stop offset="0.52" stop-color="#ffed57"/><stop offset="1" stop-color="#ffbf2c"/></linearGradient></defs><g transform="translate(-187.69236,-112.42577)"><g data-paper-data="{&quot;isPaintingLayer&quot;:true}" fill-rule="nonzero" stroke="none" stroke-width="1" stroke-linecap="butt" stroke-linejoin="miter" stroke-miterlimit="10" stroke-dasharray="" stroke-dashoffset="0" style="mix-blend-mode: normal"><path d="M270.20894,246.58193l-31.12,-11.58l-30.62,11.58v-56.6h61.74z" fill="url(#color-1)"/><path d="M270.20894,245.21193l-31.12,-11.57l-30.62,11.57v-56.59h61.74z" fill="url(#color-2)"/><path d="M225.23895,188.62193h28.2v50.35l-14.35,-5.33l-13.85,5.23z" fill="#00d7f7" style="mix-blend-mode: multiply"/><path d="M270.20894,245.21193l-31.12,-11.57l-30.62,11.57v-37.86h61.74z" fill="url(#color-3)" style="mix-blend-mode: screen"/><path d="M239.08895,233.23193l31.12,11.58v0.4l-31.12,-11.57l-30.62,11.57v-0.4z" fill="#ffffff" style="mix-blend-mode: overlay"/><path d="M208.46895,188.62193h61.74v22.67c-2.27802,1.50201 -4.6608,2.83877 -7.13,4c-17.69508,8.17904 -38.36586,6.59684 -54.61,-4.18z" fill="#00d7f7" style="mix-blend-mode: multiply"/><path d="M286.55895,142.53193c8.78756,19.02829 5.24736,41.47645 -8.96978,56.87677c-14.21715,15.40032 -36.31136,20.71993 -55.98,13.47825c-19.66864,-7.24167 -33.03822,-25.61848 -33.87445,-46.56121c-0.83622,-20.94273 11.0256,-40.327 30.05423,-49.11382c25.98226,-11.99778 56.7712,-0.66179 68.77,25.32z" fill="url(#color-4)"/><path d="M204.73895,136.07193c-1.4813,-1.86522 -3.06368,-3.64789 -4.74,-5.34c4.8758,-5.75144 10.95127,-10.36607 17.8,-13.52c1.91085,-0.88397 3.87461,-1.64877 5.88,-2.29c1.26,1.72 2.49,3.5 3.72,5.19c-9.72,1.08 -17.31,7.59 -22.66,15.96z" fill="#ffffff"/><path d="M190.32894,180.64193c-3.51544,-10.56867 -3.51544,-21.99133 0,-32.56c1.56366,-0.08211 3.13126,-0.04868 4.69,0.1c0.64806,0.077 1.28973,0.20066 1.92,0.37c-0.72992,1.61918 -1.33827,3.29047 -1.82,5c-0.62617,3.35138 -0.82442,6.76869 -0.59,10.17c0.25076,4.99977 1.16889,9.94358 2.73,14.7c-2.17671,1.10512 -4.51632,1.8546 -6.93,2.22z" fill="#fff39c"/><path d="M198.62895,196.03193c-2.40905,-3.0891 -4.45577,-6.44436 -6.1,-10c-11.07544,-24.19771 -2.01753,-52.85101 20.9543,-66.28566c22.97183,-13.43465 52.38594,-7.281 68.0457,14.23566c-14.43,-18.68 -40.75,-26.62 -63,-16.09c-27.49,13.01 -37,43.53 -25,69.53c1.41792,3.02799 3.1259,5.91146 5.1,8.61z" fill="#ffcc00"/><path d="M219.14587,207.37827c-23.53085,-11.15314 -33.56496,-39.27007 -22.41182,-62.80092c11.15314,-23.53085 39.27007,-33.56496 62.80092,-22.41182c23.53085,11.15314 33.56496,39.27007 22.41182,62.80092c-11.15314,23.53085 -39.27007,33.56496 -62.80092,22.41182z" fill="#fff86b"/><path d="M220.4799,207.39567c-23.82576,-10.50841 -34.6216,-38.34175 -24.11319,-62.16751c10.50841,-23.82576 38.34175,-34.6216 62.16751,-24.11319c23.82576,10.50841 34.6216,38.34175 24.11319,62.16751c-10.50841,23.82576 -38.34175,34.6216 -62.16751,24.11319z" fill="url(#color-5)"/><path d="M282.31895,144.45192c4.79656,10.40274 5.62175,22.20084 2.32,33.17c-3.79,-0.84 -7.63,-1.49 -11.51,-2.38c1.58,-9.13 0.28,-18.5 -2.42,-27.4c-0.38053,-1.35578 -0.83114,-2.69091 -1.35,-4c-0.78667,-1.41333 -0.71333,-1.67 0.22,-0.77c1.19,-1.4 6,-1.81 8,-2.3l2.47,-0.59c0.82853,1.38395 1.58617,2.80912 2.27,4.27z" fill="#ffb900"/><path d="M223.74553,205.57344c-22.81669,-8.70828 -34.25382,-34.26433 -25.54553,-57.08102c8.70828,-22.81669 34.26433,-34.25382 57.08102,-25.54553c22.81669,8.70828 34.25382,34.26433 25.54553,57.08102c-8.70828,22.81669 -34.26433,34.25382 -57.08102,25.54553z" fill="url(#color-6)"/><path d="M202.29894,188.12193c-1.09084,-1.69933 -2.06636,-3.46998 -2.92,-5.3c-6.87943,-14.38297 -5.48562,-31.3553 3.64814,-44.42323c9.13376,-13.06792 24.59374,-20.20878 40.46481,-18.69041c15.87107,1.51837 29.69669,11.46096 36.18705,26.02364v0c-11.92924,-18.58594 -35.72788,-25.54339 -55.79,-16.31c-22.14327,10.27364 -31.79931,36.527 -21.59,58.7z" fill="#ffe7a6" style="mix-blend-mode: multiply"/><path d="M247.15797,167.1208c0.04315,0.19852 0.06675,0.40079 0.07046,0.60391c0,0.2315 0,0.45293 0,0.71463c0,0.2617 0,0.49319 0,0.71463c-0.01603,0.18594 -0.04292,0.37078 -0.08052,0.55359c-0.15098,0.73476 -0.64417,0.80522 -0.84548,0.80522h-3.6738h-1.73121h-0.18117c-0.1572,0.0027 -0.31372,-0.02113 -0.463,-0.07046c-0.17823,-0.05919 -0.34021,-0.15914 -0.47306,-0.29189l-0.06039,-0.07046c-0.17504,0.30346 -0.49528,0.49407 -0.84548,0.50326h-2.39552h-2.39552h-0.90587h-0.55359c-0.25779,-0.01209 -0.51228,-0.06299 -0.75489,-0.15098c-0.42814,-0.14392 -0.70798,-0.55545 -0.68443,-1.00652v-6.45179l-1.45945,6.72355v0c-0.1507,0.35555 -0.48175,0.60193 -0.86561,0.64417c-0.24955,0.04556 -0.50165,0.07581 -0.75489,0.09059c-0.30173,0.01618 -0.60413,0.01618 -0.90587,0c-0.30511,0.01572 -0.61083,0.01572 -0.91593,0c-0.26079,-0.01704 -0.51989,-0.05406 -0.77502,-0.11072c-0.41232,-0.04327 -0.75594,-0.33494 -0.86561,-0.73476l-2.2848,-8.17294c0.00401,0.03343 0.00401,0.06723 0,0.10065c-0.13435,0.36214 -0.47935,0.60283 -0.86561,0.60391h-0.08052h-0.48313h-0.75489h-2.40558c0.00471,0.01986 0.00471,0.04053 0,0.06039c0.01057,0.10374 0.01057,0.20828 0,0.31202c0.00569,0.0468 0.00569,0.09411 0,0.14091h0.05033h1.00652h1.24808c0.181,0.01123 0.36252,0.01123 0.54352,0h0.08052c0.39945,0.00587 0.75115,0.26459 0.87567,0.64417c0.08205,0.20033 0.13951,0.40987 0.17111,0.62404c0.05364,0.46818 0.05364,0.94094 0,1.40913c-0.03353,0.22139 -0.09438,0.43777 -0.18117,0.64417c-0.09746,0.23547 -0.27598,0.42826 -0.50326,0.54352h0.50326c0.39145,0.03058 0.72937,0.28599 0.86561,0.65424c0.08653,0.20578 0.14411,0.42258 0.17111,0.64417c0.03798,0.23624 0.05482,0.4754 0.05033,0.71463c0.00438,0.23589 -0.01246,0.4717 -0.05033,0.70456c-0.0289,0.22884 -0.08988,0.45247 -0.18117,0.6643c-0.15125,0.37981 -0.5172,0.6304 -0.926,0.63411h-2.40558h-2.39552h-0.91593h-0.55359c-0.25439,-0.01308 -0.50541,-0.06397 -0.74482,-0.15098c-0.13522,-0.05644 -0.25825,-0.13846 -0.36235,-0.24156c-0.13875,0.2404 -0.39683,0.38678 -0.67437,0.38248h-3.70399h-1.72115h-0.19124c-0.15385,0.00195 -0.30695,-0.02186 -0.45293,-0.07046c-0.18009,-0.06157 -0.34485,-0.16111 -0.48313,-0.29189c-0.19481,-0.21028 -0.29958,-0.48846 -0.29189,-0.77502l-0.05033,-10.17591c0.00945,-0.43008 0.31383,-0.797 0.73476,-0.88574c0.21347,-0.06212 0.43265,-0.10258 0.65424,-0.12078c0.22143,0 0.45293,0 0.71463,0c0.2617,0 0.50326,0 0.73476,0c0.22643,0.01922 0.44957,0.06655 0.6643,0.14091c0.41294,0.09675 0.70737,0.46167 0.71463,0.88574v1.50978c0,0.44287 0,0.86561 0,1.25815c0,0 0.05033,4.0764 0.05033,4.3381h0.94613h1.63056c0.10316,0.00452 0.205,0.02489 0.30196,0.06039v-6.86446c0.00214,-0.48374 0.30237,-0.91606 0.75489,-1.08704c0.31021,-0.0912 0.63305,-0.13197 0.95619,-0.12078c0.21137,0 0.42274,0 0.63411,0h0.926h4.55953c0.34657,0.01262 0.66224,0.20278 0.83541,0.50326l0.16104,-0.10065c0.20698,-0.09721 0.42266,-0.17472 0.64417,-0.2315c0.24533,-0.06388 0.49398,-0.11428 0.74482,-0.15098c0.25928,-0.04833 0.52161,-0.0786 0.78509,-0.09059h0.2315h0.4328c0.40519,0.02064 0.75838,0.28256 0.8958,0.6643l0.86561,3.78451c0.10065,-0.57372 0.19124,-1.1575 0.29189,-1.76141c0.10065,-0.60391 0.2013,-1.25815 0.30196,-1.95265c0.0754,-0.4428 0.46707,-0.76129 0.91593,-0.74482h0.65424l0.75489,0.09059c0.27176,0.05033 0.51333,0.10065 0.74482,0.16104c0.22514,0.05994 0.44417,0.14081 0.65424,0.24156l0.12078,0.09059c0.1287,-0.14266 0.28662,-0.25595 0.463,-0.33215c0.28922,-0.11683 0.5948,-0.18813 0.90587,-0.21137c0.21137,0 0.42274,0 0.64417,0h0.91593h4.54947c0.28363,0.00861 0.55045,0.13653 0.73476,0.35228c0.13631,-0.14777 0.31029,-0.25564 0.50326,-0.31202c0.21693,-0.06199 0.43944,-0.10245 0.6643,-0.12078c0.22143,0 0.45293,0 0.71463,0c0.2617,0 0.50326,0 0.73476,0c0.22627,0.02031 0.44928,0.06762 0.6643,0.14091c0.40895,0.10067 0.69846,0.46462 0.70456,0.88574v1.52991c0,0.44287 0,0.86561 0,1.25815c0,0 0.05033,4.0764 0.05033,4.3381h0.95619h1.68089c0.38603,0.07413 0.67702,0.39381 0.71463,0.78509z" fill="url(#color-7)"/><path d="M272.32097,168.30849c0.00213,0.28965 -0.05258,0.5769 -0.16104,0.84548c-0.1033,0.27061 -0.26086,0.51723 -0.463,0.72469c-0.34917,0.38359 -0.81705,0.6388 -1.32861,0.72469h-0.30196c-0.18354,0.0014 -0.3664,-0.0223 -0.54352,-0.07046c-0.29563,-0.08421 -0.57239,-0.22429 -0.81528,-0.41267c-0.24368,-0.18812 -0.44585,-0.42456 -0.59385,-0.6945c-0.14722,-0.25834 -0.23008,-0.54834 -0.24156,-0.84548c-0.00749,-0.26769 0.03694,-0.53429 0.13085,-0.78509c0.06976,-0.18644 0.16458,-0.36252 0.28183,-0.52339c-0.20507,-0.14557 -0.32549,-0.38265 -0.32209,-0.63411c0,-0.35228 0,-0.68443 0,-1.00652c-0.02946,0.05439 -0.05308,0.11174 -0.07046,0.17111c-0.24592,0.47522 -0.58881,0.89355 -1.00652,1.22795c-0.30722,0.25051 -0.64552,0.46027 -1.00652,0.62404c-0.35693,0.16545 -0.72733,0.30014 -1.10717,0.40261c-0.38781,0.09953 -0.781,0.17684 -1.17763,0.2315h-0.39254v0.24156c-0.01544,0.2984 -0.01544,0.5974 0,0.8958c0.00582,0.4329 -0.29226,0.81075 -0.71463,0.90587c-0.20533,0.05555 -0.41369,0.09923 -0.62404,0.13085c-0.22143,0.06039 -0.45293,0.06039 -0.70456,0.06039h-0.71463c-0.22826,-0.01126 -0.45449,-0.04841 -0.67437,-0.11072c-0.42006,-0.11237 -0.72046,-0.48179 -0.74482,-0.91593v-1.29841c-0.18819,0.44769 -0.46167,0.85451 -0.80522,1.19776c-0.37392,0.36567 -0.81941,0.65009 -1.30848,0.83541c-0.51482,0.19149 -1.06127,0.28371 -1.61043,0.27176h-0.2013c-0.61073,-0.0094 -1.21585,-0.11819 -1.79161,-0.32209c-0.57787,-0.22535 -1.07548,-0.61783 -1.42926,-1.1273c-0.3843,-0.57628 -0.6511,-1.22274 -0.78509,-1.90232c-0.19011,-0.90069 -0.29459,-1.81736 -0.31202,-2.73773c0,-0.83541 0,-1.71108 0,-2.58676c0,-0.87567 0.04026,-1.76141 0.12078,-2.76793c-0.01007,-0.10065 0.05033,-0.64417 0.82535,-0.77502c0.19287,-0.0343 0.38797,-0.05449 0.58378,-0.06039h0.6643h0.68443c0.21881,0.01412 0.43511,0.05468 0.64417,0.12078c0.40981,0.0884 0.70542,0.44647 0.71463,0.86561c0,0.87567 0,1.77147 0,2.60689c0,0.83541 0,1.71108 0,2.60689c0.00874,0.33671 0.03561,0.67271 0.08052,1.00652c0.02539,0.23716 0.07947,0.47037 0.16104,0.6945c0.03284,0.09724 0.08036,0.18888 0.14091,0.27176c0.04043,-0.0763 0.07088,-0.15749 0.09059,-0.24156c0.06587,-0.25067 0.10965,-0.50664 0.13085,-0.76495c0,-0.32209 0,-0.65759 0,-1.00652c0,-0.82535 0.01007,-1.66076 0,-2.49617c-0.01007,-0.83541 -0.04026,-1.68089 -0.09059,-2.5163c-0.02578,-0.42928 0.25057,-0.81869 0.6643,-0.93606c0.20866,-0.07132 0.42479,-0.1186 0.64417,-0.14091h0.54352h0.14091c0.22787,-0.01608 0.45657,-0.01608 0.68443,0c0.20839,0.03369 0.41372,0.08419 0.61398,0.15098c0.15595,0.04912 0.2976,0.13548 0.41267,0.25163c0.1323,-0.14993 0.30273,-0.26123 0.49319,-0.32209c0.20213,-0.07001 0.41144,-0.11727 0.62404,-0.14091c0.21137,-0.06039 0.44287,-0.06039 0.68443,-0.06039h0.70456c0.21723,0.01486 0.43276,0.04853 0.64417,0.10065l0.19124,0.07046c0.49299,-0.1066 0.99538,-0.16392 1.49971,-0.17111h0.4328c0.64817,0.04162 1.27822,0.23098 1.84193,0.55359c0.44024,0.27704 0.8202,0.63989 1.11724,1.06691c0.17134,0.25113 0.31957,0.51727 0.44287,0.79515v-1.5903c0.00666,-0.45239 0.3461,-0.83049 0.79515,-0.88574c0.211,-0.05104 0.4271,-0.07806 0.64417,-0.08052h0.71463c0.25163,0 0.49319,0 0.71463,0c0.20594,0.0159 0.41089,0.04278 0.61398,0.08052c0.72469,0.17111 0.79515,0.65424 0.79515,0.85554l0.06039,7.66968c0.00256,0.22572 -0.09739,0.44042 -0.27176,0.58378c0.03935,0.04982 0.07311,0.10383 0.10065,0.16104c0.16114,0.28181 0.24451,0.60139 0.24156,0.926z" fill="url(#color-8)"/><path d="M207.57894,159.17192c0,-0.06 0.06,-0.11 0.19,-0.15c0.16341,-0.04588 0.33084,-0.07602 0.5,-0.09c0.2,0 0.42,0 0.64,0c0.21638,-0.01585 0.43362,-0.01585 0.65,0c0.17025,0.01186 0.33828,0.04547 0.5,0.1c0.13,0 0.19,0.09 0.19,0.16v1.49c0,0.44 0,0.87 0,1.26c0,0.39 0,0.78 0,1.15c0,0.37 0,0.75 0,1.14c0,0.39 0,0.82 0,1.27c0,0.45 0,0.95 0,1.5h1.68h1.69c0,0 0.09,0.06 0.12,0.19c0.03,0.13 0,0.3 0.05,0.49c0.05,0.19 0,0.41 0,0.65c-0.00553,0.21406 -0.02222,0.42768 -0.05,0.64c-0.0134,0.1646 -0.03677,0.32823 -0.07,0.49c0,0.13 -0.06,0.2 -0.09,0.2h-3.59h-1.7h-0.2c-0.06968,0.00947 -0.14032,0.00947 -0.21,0c-0.06652,-0.01855 -0.12582,-0.05692 -0.17,-0.11c-0.05912,-0.06121 -0.08837,-0.14531 -0.08,-0.23z" fill="#e43800"/><path d="M214.67895,159.52193c-0.00139,-0.17801 0.11794,-0.33436 0.29,-0.38c0.21375,-0.0859 0.44002,-0.13656 0.67,-0.15c0.26978,-0.01524 0.54022,-0.01524 0.81,0h0.68h4.53c0.09,0 0.16,0.06 0.22,0.18c0.06485,0.13873 0.10544,0.28755 0.12,0.44c0.01551,0.19302 0.01551,0.38698 0,0.58c-0.00854,0.19435 -0.02857,0.38802 -0.06,0.58c-0.02089,0.14918 -0.06474,0.29423 -0.13,0.43c0,0.12 -0.11,0.17 -0.19,0.17h-0.55h-0.77h-3.1v0.59c0,0.13 0,0.22 0,0.28c0.0102,0.04273 0.0102,0.08727 0,0.13v0.12c0.00623,0.09323 0.00623,0.18677 0,0.28v0.65h0.8h1h1c0.32,0 0.59,0 0.81,0c0.22,0 0.13,0.05 0.18,0.17c0.05765,0.14408 0.09468,0.29557 0.11,0.45c0.01596,0.193 0.01596,0.387 0,0.58c0.01628,0.19299 0.01628,0.38701 0,0.58c-0.01343,0.15585 -0.05404,0.30815 -0.12,0.45c0,0.13 -0.12,0.19 -0.21,0.19h-3.55v0.45c0.00353,0.05995 0.00353,0.12005 0,0.18v0.12c-0.00361,0.06328 -0.00361,0.12672 0,0.19v0.47h3.46h1c0.08,0 0.14,0.06 0.19,0.19c0.06469,0.14581 0.10522,0.30117 0.12,0.46c0.01628,0.19633 0.01628,0.39367 0,0.59c0.01592,0.19634 0.01592,0.39366 0,0.59c-0.01812,0.155 -0.05853,0.30656 -0.12,0.45c-0.06,0.13 -0.14,0.19 -0.23,0.19h-1h-4.48c-0.25,0 -0.48,0 -0.69,0c-0.17455,-0.0032 -0.34717,-0.03705 -0.51,-0.1c-0.11266,-0.02656 -0.19419,-0.1244 -0.2,-0.24z" fill="#e43800"/><path d="M229.18895,169.42193c0,0.05 -0.11,0.1 -0.29,0.13c-0.21765,0.04525 -0.43818,0.07532 -0.66,0.09c-0.26,0 -0.54,0 -0.84,0c-0.3,0 -0.58,0 -0.84,0c-0.22211,-0.01748 -0.44268,-0.0509 -0.66,-0.1c-0.19,-0.05 -0.29,-0.1 -0.3,-0.18l-2.76,-9.84c0,-0.06 0,-0.13 0.17,-0.19c0.16113,-0.07181 0.32849,-0.12871 0.5,-0.17c0.22367,-0.06018 0.45075,-0.10693 0.68,-0.14c0.22494,-0.03972 0.45198,-0.06643 0.68,-0.08c0.17962,-0.01662 0.36038,-0.01662 0.54,0c0.15,0 0.23,0.05 0.25,0.12l1.71,7.45c0.1,-0.69 0.21,-1.34 0.31,-1.94c0.1,-0.6 0.21,-1.2 0.31,-1.8c0.1,-0.6 0.21,-1.19 0.3,-1.79c0.09,-0.6 0.2,-1.27 0.3,-2c0,0 0.08,-0.08 0.23,-0.09h0.53c0.22797,0.01414 0.45498,0.04085 0.68,0.08c0.24,0 0.46,0.09 0.66,0.14c0.17015,0.03949 0.33475,0.09995 0.49,0.18c0.13,0.07 0.18,0.14 0.16,0.21z" fill="#e43800"/><path d="M232.11895,159.52193c0.00519,-0.17574 0.12185,-0.32862 0.29,-0.38c0.21727,-0.08578 0.44681,-0.13642 0.68,-0.15c0.26645,-0.01525 0.53355,-0.01525 0.8,0h0.69h4.52c0.09,0 0.16,0.06 0.22,0.18c0.06485,0.13873 0.10544,0.28755 0.12,0.44c0.01551,0.19302 0.01551,0.38698 0,0.58c-0.00854,0.19435 -0.02857,0.38802 -0.06,0.58c-0.02089,0.14918 -0.06474,0.29423 -0.13,0.43c-0.05,0.12 -0.11,0.17 -0.18,0.17h-0.55h-0.78h-3.12v0.87c0.0102,0.04273 0.0102,0.08727 0,0.13v0.12c0.00623,0.09323 0.00623,0.18677 0,0.28v0.65h0.81h1h1c0.33,0 0.6,0 0.81,0c0.21,0 0.13,0.05 0.18,0.17c0.0568,0.14501 0.09706,0.29596 0.12,0.45c0.01098,0.19318 0.01098,0.38682 0,0.58c0.01122,0.19317 0.01122,0.38683 0,0.58c-0.02294,0.15404 -0.0632,0.30499 -0.12,0.45c-0.06,0.13 -0.13,0.19 -0.22,0.19h-3.52c0,0.21 0,0.36 0,0.45v0.3c0,0 0,0.1 0,0.19c0,0.09 0,0.25 0,0.47h3.43h1c0.07,0 0.13,0.06 0.18,0.19c0.0637,0.14683 0.10743,0.30154 0.13,0.46c0.0113,0.1965 0.0113,0.3935 0,0.59c0.01096,0.19651 0.01096,0.39349 0,0.59c-0.02117,0.15554 -0.06496,0.30714 -0.13,0.45c-0.06,0.13 -0.13,0.19 -0.22,0.19h-1h-4.5c-0.25,0 -0.48,0 -0.69,0c-0.17455,-0.0032 -0.34717,-0.03705 -0.51,-0.1c-0.11266,-0.02656 -0.19419,-0.1244 -0.2,-0.24z" fill="#e43800"/><path d="M240.35894,159.17192c0,-0.06 0.07,-0.11 0.2,-0.15c0.15999,-0.04598 0.32411,-0.07613 0.49,-0.09c0.2,0 0.42,0 0.65,0c0.21304,-0.01586 0.42696,-0.01586 0.64,0c0.17025,0.01186 0.33828,0.04547 0.5,0.1c0.13,0 0.19,0.09 0.19,0.16v1.49c0,0.44 0,0.87 0,1.26c0,0.39 0,0.78 0,1.15c0,0.37 0,0.75 0,1.14c0,0.39 0,0.82 0,1.27c0,0.45 0,0.95 0,1.5h1.69h1.68c0.05,0 0.09,0.06 0.12,0.19c0.03343,0.16141 0.0535,0.3253 0.06,0.49v0.74c0,0.23 0,0.44 0,0.64c-0.0161,0.16488 -0.04282,0.32856 -0.08,0.49c0,0.13 -0.05,0.2 -0.09,0.2h-3.63h-1.71h-0.19c-0.07297,0.01039 -0.14703,0.01039 -0.22,0c-0.06429,-0.02328 -0.12243,-0.06089 -0.17,-0.11c-0.05551,-0.06293 -0.08104,-0.14682 -0.07,-0.23z" fill="#e43800"/><path d="M255.36895,167.08193c0.19014,0.01489 0.37479,-0.06801 0.49,-0.22c0.14307,-0.17916 0.24544,-0.38731 0.3,-0.61c0.08554,-0.29639 0.13589,-0.60183 0.15,-0.91c0,-0.35 0,-0.71 0,-1.08c0,-0.82 0,-1.64 0,-2.49c0,-0.85 0,-1.68 -0.09,-2.53c0,-0.07 0,-0.13 0.17,-0.18c0.14651,-0.0454 0.2973,-0.07556 0.45,-0.09c0.38862,-0.04644 0.78138,-0.04644 1.17,0c0.15637,0.01737 0.31053,0.05088 0.46,0.1c0.13,0 0.2,0.1 0.2,0.15c0.1,0.85 0.17,1.71 0.2,2.58c0.03,0.87 0,1.77 0,2.67c0,0.3 0,0.64 0,1c-0.03647,0.40049 -0.09994,0.79806 -0.19,1.19c-0.07901,0.38529 -0.19972,0.76083 -0.36,1.12c-0.14398,0.37531 -0.36546,0.71605 -0.65,1c-0.28341,0.27798 -0.62018,0.49569 -0.99,0.64c-0.48418,0.17048 -0.99768,0.2419 -1.51,0.21c-0.52205,0.00233 -1.04028,-0.08913 -1.53,-0.27c-0.43209,-0.17265 -0.80409,-0.46816 -1.07,-0.85c-0.32512,-0.49206 -0.55258,-1.04204 -0.67,-1.62c-0.1724,-0.8462 -0.26613,-1.70653 -0.28,-2.57c0,-0.84 -0.06,-1.69 0,-2.55c0.06,-0.86 0,-1.75 0.11,-2.69c0,0 0.07,-0.06 0.2,-0.08c0.1584,-0.02953 0.31892,-0.04625 0.48,-0.05h0.62h0.62c0.1595,0.00594 0.31752,0.03284 0.47,0.08c0.13,0 0.19,0.09 0.19,0.14c0,0.86 0,1.72 0,2.57c0,0.85 0,1.73 0,2.63c0,0.37 0,0.71 0.08,1c0.04034,0.28985 0.11072,0.57471 0.21,0.85c0.07091,0.21749 0.19063,0.41588 0.35,0.58c0.10509,0.13731 0.25283,0.2358 0.42,0.28z" fill="#e43800"/><path d="M259.73895,159.18193c0,0 0.06,-0.1 0.18,-0.14c0.15277,-0.05168 0.31016,-0.08852 0.47,-0.11c0.20205,-0.03136 0.40571,-0.0514 0.61,-0.06h0.62c0.16593,0.0071 0.33043,0.03396 0.49,0.08c0.14,0 0.21,0.08 0.23,0.14c0.65283,-0.1673 1.32666,-0.23805 2,-0.21c0.5277,0.03409 1.04068,0.18798 1.5,0.45c0.34762,0.21696 0.64711,0.50284 0.88,0.84c0.24654,0.36487 0.44171,0.76192 0.58,1.18c0.14225,0.44138 0.23286,0.89776 0.27,1.36c0.03059,0.46746 0.01047,0.93687 -0.06,1.4c-0.0654,0.45459 -0.20031,0.89642 -0.4,1.31c-0.18577,0.38511 -0.45171,0.72606 -0.78,1c-0.26329,0.20933 -0.55231,0.38409 -0.86,0.52c-0.32022,0.1512 -0.65538,0.26851 -1,0.35c-0.32819,0.09019 -0.66236,0.15702 -1,0.2c-0.35125,0.04819 -0.70546,0.07158 -1.06,0.07c0,0.31 0,0.63 0,1c0,0.37 0,0.64 0,0.95c0,0 -0.06,0.08 -0.19,0.12c-0.15658,0.05026 -0.31716,0.08706 -0.48,0.11h-0.63c-0.20972,0.01533 -0.42028,0.01533 -0.63,0c-0.16929,-0.0063 -0.33719,-0.03317 -0.5,-0.08c-0.13,0 -0.2,-0.1 -0.2,-0.18zM262.38894,165.18193c0.33624,0.0096 0.67232,-0.02401 1,-0.1c0.31626,-0.07448 0.61962,-0.19582 0.9,-0.36c0.26056,-0.16447 0.47959,-0.38693 0.64,-0.65c0.1836,-0.29994 0.27086,-0.64895 0.25,-1c0.02826,-0.43104 -0.07645,-0.86037 -0.3,-1.23c-0.16823,-0.26195 -0.42303,-0.45658 -0.72,-0.55c-0.29781,-0.09137 -0.61285,-0.11192 -0.92,-0.06c-0.30457,0.05207 -0.60286,0.13586 -0.89,0.25z" fill="#e43800"/><path d="M269.08894,169.42193c-0.16265,-0.12515 -0.29865,-0.28155 -0.4,-0.46c-0.0882,-0.1485 -0.13643,-0.31732 -0.14,-0.49c-0.00933,-0.16721 0.01797,-0.33444 0.08,-0.49c0.05694,-0.16231 0.14529,-0.31183 0.26,-0.44c0.22394,-0.25361 0.52084,-0.43175 0.85,-0.51c0.36432,-0.08894 0.74926,-0.01994 1.06,0.19c0.19688,0.11314 0.36466,0.27065 0.49,0.46c0.09405,0.16535 0.14879,0.35011 0.16,0.54c0.00088,0.18468 -0.03304,0.36788 -0.1,0.54c-0.07433,0.17997 -0.17921,0.34575 -0.31,0.49c-0.11732,0.12249 -0.25211,0.22695 -0.4,0.31c-0.15231,0.0845 -0.31808,0.14202 -0.49,0.17c-0.17501,0.03424 -0.35499,0.03424 -0.53,0c-0.19502,-0.06815 -0.375,-0.17342 -0.53,-0.31zM271.34895,166.56193c0,0 -0.07,0 -0.2,0.05h-0.51h-1.3h-0.5c-0.14,0 -0.2,0 -0.2,0c0,-0.79 0,-1.49 0,-2.11c0,-0.62 0,-1.21 0,-1.79c0,-0.58 0,-1.16 0,-1.75v-2c0,-0.07 0.06,-0.11 0.2,-0.15c0.16797,-0.03454 0.3386,-0.05461 0.51,-0.06h0.66c0.23,0 0.45,0 0.65,0c0.17127,0.01288 0.34159,0.03626 0.51,0.07c0.14,0 0.2,0.07 0.2,0.11z" fill="#e43800"/><text transform="translate(258.43749,239.14268) rotate(20.93221) scale(0.05253,0.05253)" font-size="40" xml:space="preserve" fill-opacity="0.30196" fill="#000000" fill-rule="nonzero" stroke="none" stroke-width="1" stroke-linecap="butt" stroke-linejoin="miter" stroke-miterlimit="10" stroke-dasharray="" stroke-dashoffset="0" font-family="Sans Serif" font-weight="normal" text-anchor="start" style="mix-blend-mode: normal"><tspan x="0" dy="0">Codekitten</tspan></text></g></g></svg>