<svg version="1.1" xmlns="http://www.w3.org/2000/svg" xmlns:xlink="http://www.w3.org/1999/xlink" width="17.52941" height="26.52941" viewBox="0,0,17.52941,26.52941"><g transform="translate(-235.25737,-159.99159)"><g data-paper-data="{&quot;isPaintingLayer&quot;:true}" stroke-width="0" stroke-linejoin="miter" stroke-miterlimit="10" stroke-dasharray="" stroke-dashoffset="0" style="mix-blend-mode: normal"><path d="M240.15504,173.38017c0.02919,-0.59359 0.09565,-1.18475 0.199,-1.77c0.04481,-0.25181 0.09549,-0.50255 0.152,-0.752c0.11684,-0.51899 0.26342,-1.03083 0.439,-1.533c0.07556,-0.21391 0.15625,-0.42597 0.242,-0.636c0.17864,-0.43769 0.38299,-0.86443 0.612,-1.278c0.11984,-0.21593 0.24589,-0.42835 0.378,-0.637c0.19793,-0.31331 0.41257,-0.61575 0.643,-0.906c0.35133,-0.44933 0.706,-0.83367 1.064,-1.153c0.02948,-0.02621 0.05915,-0.05221 0.089,-0.078c0.326,-0.282 0.638,-0.50633 0.936,-0.673l0.381,1.191c-0.09423,0.07105 -0.18563,0.14578 -0.274,0.224c-0.1235,0.10886 -0.24228,0.22296 -0.356,0.342c-0.06718,0.07026 -0.13287,0.14194 -0.197,0.215c-0.14837,0.16996 -0.2895,0.34612 -0.423,0.528c-0.15685,0.22279 -0.30334,0.4527 -0.439,0.689c-0.15006,0.26127 -0.29016,0.52812 -0.42,0.8c-0.08665,0.18079 -0.16769,0.36421 -0.243,0.55c-0.17387,0.43056 -0.32114,0.87139 -0.441,1.32c-0.07913,0.27715 -0.14851,0.55699 -0.208,0.839c-0.08255,0.39125 -0.14994,0.78554 -0.202,1.182c-0.03726,0.28282 -0.06694,0.56659 -0.089,0.851c-0.03886,0.50639 -0.05787,1.01412 -0.057,1.522v0.137c-0.00024,0.2981 0.0061,0.59618 0.019,0.894c0.01961,0.46509 0.05865,0.92917 0.117,1.391c0.03455,0.26989 0.07522,0.53896 0.122,0.807c0.06719,0.38857 0.15026,0.77423 0.249,1.156c0.05214,0.18604 0.10782,0.37108 0.167,0.555c0.12199,0.38299 0.2618,0.76007 0.419,1.13c0.09323,0.21844 0.19192,0.43451 0.296,0.648c0.12314,0.25265 0.25591,0.5005 0.398,0.743c0.24733,0.39067 0.50267,0.73733 0.766,1.04c0.11125,0.12837 0.22699,0.25278 0.347,0.373c0.14242,0.14251 0.2923,0.27737 0.449,0.404l-0.381,1.103c-0.0346,-0.01953 -0.06894,-0.03954 -0.103,-0.06c-0.15067,-0.08933 -0.305,-0.193 -0.463,-0.311c-0.1595,-0.11925 -0.31428,-0.24468 -0.464,-0.376c-0.18855,-0.16566 -0.36813,-0.34124 -0.538,-0.526c-0.18625,-0.20237 -0.36342,-0.41291 -0.531,-0.631c-0.14954,-0.18782 -0.2923,-0.38094 -0.428,-0.579c-0.21214,-0.31049 -0.41001,-0.63049 -0.593,-0.959c-0.12312,-0.22076 -0.23819,-0.44591 -0.345,-0.675c-0.18848,-0.40544 -0.35505,-0.8207 -0.499,-1.244c-0.09494,-0.26707 -0.18099,-0.53722 -0.258,-0.81c-0.13489,-0.48259 -0.24602,-0.97152 -0.333,-1.465c-0.04891,-0.27401 -0.08926,-0.54948 -0.121,-0.826c-0.0673,-0.59796 -0.10035,-1.19927 -0.099,-1.801v-0.098c-0.00029,-0.2858 0.00671,-0.57156 0.021,-0.857z" fill="#ff0000" fill-rule="evenodd" stroke="#ff0000" stroke-linecap="round"/><path d="M235.25738,186.52101v-26.52941h17.52941v26.52941z" fill="none" fill-rule="nonzero" stroke="#000000" stroke-linecap="butt"/></g></g></svg>