<svg version="1.1" xmlns="http://www.w3.org/2000/svg" xmlns:xlink="http://www.w3.org/1999/xlink" width="17.52941" height="23.99999" viewBox="0,0,17.52941,23.99999"><g transform="translate(-235.25737,-159.99159)"><g data-paper-data="{&quot;isPaintingLayer&quot;:true}" stroke-width="0" stroke-linejoin="miter" stroke-miterlimit="10" stroke-dasharray="" stroke-dashoffset="0" style="mix-blend-mode: normal"><path d="M243.30009,165.79923c0.13642,0.00145 0.2728,0.00612 0.409,0.014c0.3895,0.02207 0.77668,0.07456 1.158,0.157c0.492,0.10733 0.94633,0.25867 1.363,0.454c0.56871,0.25944 1.08888,0.61422 1.538,1.049c0.44435,0.43103 0.80658,0.93931 1.069,1.5c0.06065,0.12112 0.11735,0.24419 0.17,0.369c0.16363,0.39199 0.29149,0.79798 0.382,1.213c0.04001,0.18144 0.0737,0.36422 0.101,0.548c0.06266,0.4262 0.09574,0.85623 0.099,1.287v1.045c0.00018,0.1257 -0.00215,0.25139 -0.007,0.377c-0.01767,0.47113 -0.07588,0.93986 -0.174,1.401c-0.02951,0.1379 -0.06286,0.27496 -0.1,0.411c-0.10542,0.38955 -0.24669,0.7685 -0.422,1.132c-0.23101,0.48307 -0.53042,0.93033 -0.889,1.328c-0.35196,0.39174 -0.75607,0.73327 -1.201,1.015c-0.14894,0.09331 -0.30246,0.17908 -0.46,0.257c-0.36086,0.17614 -0.7384,0.31583 -1.127,0.417c-0.22511,0.0594 -0.45307,0.10746 -0.683,0.144c-0.40561,0.06382 -0.81541,0.09725 -1.226,0.1h-3.291v-14.218zM243.30009,178.54323c0.20415,-0.00223 0.40807,-0.01458 0.611,-0.037c0.27401,-0.0295 0.54499,-0.08236 0.81,-0.158c0.09363,-0.0273 0.18635,-0.05765 0.278,-0.091c0.30408,-0.10852 0.59307,-0.25537 0.86,-0.437c0.35121,-0.23403 0.65997,-0.52622 0.913,-0.864c0.26092,-0.34917 0.46665,-0.73635 0.61,-1.148c0.03695,-0.09796 0.07097,-0.197 0.102,-0.297c0.08273,-0.26888 0.14655,-0.54322 0.191,-0.821c0.06533,-0.4 0.101,-0.81833 0.107,-1.255v-1.064c-0.00051,-0.05501 -0.00151,-0.11001 -0.003,-0.165c-0.01152,-0.37169 -0.04793,-0.74218 -0.109,-1.109c-0.01483,-0.08834 -0.0315,-0.17636 -0.05,-0.264c-0.06178,-0.29783 -0.14774,-0.59013 -0.257,-0.874c-0.1702,-0.44635 -0.40908,-0.86338 -0.708,-1.236c-0.29804,-0.36908 -0.6687,-0.67302 -1.089,-0.893c-0.10703,-0.05889 -0.21682,-0.11262 -0.329,-0.161c-0.22548,-0.09735 -0.45861,-0.17595 -0.697,-0.235c-0.17009,-0.04201 -0.34235,-0.07473 -0.516,-0.098c-0.24004,-0.03231 -0.48182,-0.05001 -0.724,-0.053h-1.455v11.26z" fill="#ff0000" fill-rule="evenodd" stroke="#ff0000" stroke-linecap="round"/><path d="M235.25738,183.99159v-23.99999h17.52941v23.99999z" fill="none" fill-rule="nonzero" stroke="#000000" stroke-linecap="butt"/></g></g></svg>