<svg version="1.1" xmlns="http://www.w3.org/2000/svg" xmlns:xlink="http://www.w3.org/1999/xlink" width="337" height="337" viewBox="0,0,337,337"><g transform="translate(-71.5,-11.5)"><g data-paper-data="{&quot;isPaintingLayer&quot;:true}" stroke="none" stroke-linecap="butt" stroke-linejoin="miter" stroke-miterlimit="10" stroke-dasharray="" stroke-dashoffset="0" style="mix-blend-mode: normal"><path d="M71.5,180c0,-93.05995 75.44005,-168.5 168.5,-168.5c93.05995,0 168.5,75.44005 168.5,168.5c0,93.05995 -75.44005,168.5 -168.5,168.5c-93.05995,0 -168.5,-75.44005 -168.5,-168.5z" fill="#ffffff" fill-rule="nonzero" stroke-width="0"/><path d="M305.97537,93.26238c1.58536,-0.56675 5.37416,-0.53948 7.04958,0.05072c2.22213,0.78252 3.53555,1.8836 6.53737,5.48097c16.92095,20.27774 26.91402,44.1542 29.39288,70.22864c0.55087,5.7929 0.62439,17.28293 0.14643,22.84852c-2.14227,24.93694 -11.42411,48.4786 -26.98091,68.43182c-4.24522,5.44485 -6.44516,6.84356 -10.76457,6.84356c-3.07406,0 -5.24047,-0.89663 -7.67933,-3.17833c-2.80085,-2.61994 -3.77233,-4.54033 -3.9432,-7.79471c-0.19015,-3.62336 0.38351,-5.13552 3.38816,-8.92848c13.86685,-17.50444 21.27239,-36.08622 23.20954,-58.23817c0.44086,-5.04264 0.17526,-16.00339 -0.51058,-21.0654c-2.75683,-20.34969 -10.71064,-38.58034 -23.58069,-54.04777c-3.69562,-4.44141 -4.27122,-5.59828 -4.41288,-8.86667c-0.1477,-3.40596 0.64182,-5.52789 3.00658,-8.08222c1.84531,-1.99264 3.27151,-3.01447 5.14155,-3.68266M227.17896,104.04154c0.83898,-0.27477 2.14414,-0.38634 3.49184,-0.29861c4.02052,0.2621 7.35385,2.52639 9.05272,6.15005c0.83928,1.79012 0.83928,1.79012 0.83928,71.04348c0,69.25337 0,69.25337 -0.73247,71.06665c-0.92806,2.29758 -3.02907,4.47657 -5.37833,5.57765c-2.53592,1.18852 -6.09553,1.19493 -8.62735,0.01519c-1.66872,-0.77715 -5.51494,-3.91623 -45.32373,-36.98954c-10.93476,-9.08438 -10.93476,-9.08438 -26.78218,-9.24288c-15.84743,-0.1585 -15.84743,-0.1585 -17.52225,-1.04082c-2.13147,-1.12327 -3.86961,-2.86141 -4.84713,-4.84713c-0.768,-1.56034 -0.768,-1.56034 -0.768,-24.3807c0,-22.82036 0,-22.82036 0.73276,-24.30779c0.96895,-1.96731 2.82148,-3.83415 4.88228,-4.91997c1.67474,-0.8824 1.67474,-0.8824 17.52225,-1.04082c15.84743,-0.1585 15.84743,-0.1585 25.19749,-7.93638c5.14252,-4.27755 15.26899,-12.68429 22.50336,-18.68127c7.23438,-5.99699 15.18028,-12.58954 17.65788,-14.65004c4.85502,-4.03764 6.03088,-4.83855 8.1015,-5.51709M272.22471,127.169c0.77842,-0.2548 2.27315,-0.38508 3.72191,-0.32423c4.70545,0.19745 7.09077,2.13118 12.37943,10.0359c8.66601,12.95243 13.24782,28.24332 13.24909,44.21632c0.00067,9.85901 -1.6098,18.96975 -4.9517,28.01354c-2.5923,7.01569 -8.71323,17.82017 -11.90147,21.00834c-2.00501,2.00501 -4.34347,2.93619 -7.3998,2.94699c-2.23515,0.00789 -2.79392,-0.11507 -4.62397,-1.01617c-2.54158,-1.25102 -5.05091,-3.80116 -6.24167,-6.34311c-0.70461,-1.50359 -0.85447,-2.26807 -0.85447,-4.35903c-0.0003,-3.11532 0.24788,-3.74001 3.39009,-8.53194c4.26743,-6.50794 6.73675,-12.23202 8.29427,-19.22612c3.70068,-16.61765 0.07352,-33.34048 -10.17436,-46.91036c-2.7768,-3.67662 -3.34443,-5.0664 -3.35709,-8.22008c-0.0076,-1.8979 0.15403,-2.73688 0.79488,-4.12031c1.44087,-3.10959 4.76788,-6.2179 7.67494,-7.16972" fill="#141213" fill-rule="evenodd" stroke-width="1"/></g></g></svg>