<svg version="1.1" xmlns="http://www.w3.org/2000/svg" xmlns:xlink="http://www.w3.org/1999/xlink" width="509" height="99" viewBox="0,0,509,99"><g transform="translate(15.5,-276.5)"><g data-paper-data="{&quot;isPaintingLayer&quot;:true}" fill-rule="nonzero" stroke-linecap="butt" stroke-linejoin="miter" stroke-miterlimit="10" stroke-dasharray="" stroke-dashoffset="0" style="mix-blend-mode: normal"><path d="M-15.5,375.5v-99h509v99z" fill="#ff5252" stroke="none" stroke-width="0"/><text transform="translate(97.56607,307.71256) scale(0.52865,0.52865)" font-size="40" xml:space="preserve" fill="#000000" fill-rule="nonzero" stroke="none" stroke-width="1" stroke-linecap="butt" stroke-linejoin="miter" stroke-miterlimit="10" stroke-dasharray="" stroke-dashoffset="0" font-family="Sans Serif" font-weight="normal" text-anchor="start" style="mix-blend-mode: normal"><tspan x="0" dy="0">The answer of the question is:</tspan></text><g><path d="M15.48998,318.21978c0,-17.26167 13.99335,-31.25501 31.25502,-31.25501c17.26168,0 31.25501,13.99333 31.25501,31.25501c0,17.26167 -13.99334,31.25502 -31.25501,31.25502c-17.26168,0 -31.25502,-13.99334 -31.25502,-31.25502z" fill="#ffffff" stroke="none" stroke-width="0"/><path d="M59.17656,324.18063c1.58607,1.64253 1.54083,4.26934 -0.1017,5.85542c-0.77578,0.74965 -1.79787,1.1625 -2.8764,1.1625v0c-1.13358,0 -2.19065,-0.44877 -2.97809,-1.26419l-6.77534,-7.01512l-6.8775,6.91482c-0.78231,0.78698 -1.82586,1.22081 -2.93564,1.22081c-1.10186,0 -2.13887,-0.42823 -2.91977,-1.20494c-1.61873,-1.61033 -1.62573,-4.23669 -0.01539,-5.85542l6.99412,-7.03284l-6.89056,-7.13453c-1.58607,-1.64205 -1.54036,-4.26888 0.1017,-5.85495c0.77624,-0.74919 1.79739,-1.16204 2.87592,-1.16204c1.13358,0 2.19158,0.44877 2.97902,1.2642l6.77488,7.01418l6.8775,-6.91435c0.78278,-0.78744 1.82585,-1.22082 2.9361,-1.22082c1.1014,0 2.1384,0.42731 2.91885,1.20449c1.61919,1.60986 1.62619,4.23715 0.01632,5.85588l-6.99459,7.03285z" fill="#be2026" stroke="#be2026" stroke-width="1"/><path d="M58.56172,324.77541c1.26093,1.30525 1.22501,3.38487 -0.08024,4.64674c-1.30525,1.26 -3.3858,1.22407 -4.64673,-0.08117l-7.38085,-7.64208l-7.49187,7.53292c-1.27959,1.28659 -3.35968,1.29218 -4.6472,0.01213c-1.28611,-1.27958 -1.29218,-3.35968 -0.01213,-4.6472l7.58471,-7.62669l-7.47275,-7.73678c-1.26046,-1.30525 -1.22455,-3.38533 0.08116,-4.64673c1.30478,-1.26046 3.38534,-1.22408 4.64627,0.08117l7.38038,7.64162l7.49234,-7.53245c1.28006,-1.28659 3.36061,-1.29265 4.6472,-0.01306c1.28705,1.28006 1.29218,3.36061 0.01259,4.64766l-7.58563,7.62623z" fill="#dd2726" stroke="#bc192d" stroke-width="1"/></g></g></g></svg>