<svg version="1.1" xmlns="http://www.w3.org/2000/svg" xmlns:xlink="http://www.w3.org/1999/xlink" width="17.52941" height="23.99999" viewBox="0,0,17.52941,23.99999"><g transform="translate(-235.25737,-159.99159)"><g data-paper-data="{&quot;isPaintingLayer&quot;:true}" stroke-width="0" stroke-linejoin="miter" stroke-miterlimit="10" stroke-dasharray="" stroke-dashoffset="0" style="mix-blend-mode: normal"><path d="M249.29609,178.88879c-0.24009,0.20654 -0.49811,0.39128 -0.771,0.552c-0.456,0.27333 -0.94767,0.47667 -1.475,0.61c-0.52733,0.134 -1.08067,0.19767 -1.66,0.191c-0.16564,-0.00188 -0.33113,-0.01089 -0.496,-0.027c-0.38171,-0.03534 -0.75775,-0.11659 -1.12,-0.242c-0.47746,-0.16502 -0.92445,-0.4076 -1.323,-0.718c-0.39067,-0.29933 -0.73267,-0.654 -1.026,-1.064c-0.2958,-0.41564 -0.5415,-0.86475 -0.732,-1.338c-0.202,-0.47533 -0.35333,-0.975 -0.454,-1.499c-0.10077,-0.52316 -0.15465,-1.05426 -0.161,-1.587v-1.65c0.00667,-0.52733 0.05367,-1.053 0.141,-1.577c0.08566,-0.51507 0.22164,-1.02049 0.406,-1.509c0.17693,-0.47171 0.40602,-0.92217 0.683,-1.343c0.27333,-0.41333 0.60233,-0.773 0.987,-1.079c0.04852,-0.03872 0.09786,-0.0764 0.148,-0.113c0.35056,-0.25212 0.7346,-0.45407 1.141,-0.6c0.23259,-0.0841 0.4722,-0.14735 0.716,-0.189c0.29895,-0.05096 0.60174,-0.07605 0.905,-0.075c0.16287,0.00014 0.32567,0.00682 0.488,0.02c0.46032,0.03436 0.91382,0.13125 1.348,0.288c0.02172,0.00785 0.04339,0.01585 0.065,0.024c0.5154,0.19333 0.98994,0.48165 1.399,0.85c0.41667,0.384 0.752,0.84467 1.006,1.382c0.10042,0.2128 0.18499,0.43273 0.253,0.658c0.11119,0.37288 0.18357,0.75625 0.216,1.144h-1.787c-0.01761,-0.1012 -0.03795,-0.2019 -0.061,-0.302c-0.06515,-0.28621 -0.15585,-0.566 -0.271,-0.836c-0.02998,-0.06975 -0.06233,-0.13846 -0.097,-0.206c-0.12769,-0.25249 -0.29252,-0.4844 -0.489,-0.688c-0.25152,-0.25011 -0.55033,-0.44762 -0.879,-0.581c-0.19161,-0.07787 -0.39162,-0.13324 -0.596,-0.165c-0.19381,-0.03067 -0.38978,-0.04572 -0.586,-0.045c-0.15792,-0.00019 -0.31565,0.01084 -0.472,0.033c-0.23084,0.03139 -0.45627,0.09431 -0.67,0.187c-0.332,0.14667 -0.62167,0.34367 -0.869,0.591c-0.25091,0.2524 -0.45867,0.54428 -0.615,0.864c-0.16333,0.32867 -0.297,0.67533 -0.401,1.04c-0.104,0.36467 -0.17867,0.73567 -0.224,1.113c-0.00874,0.07025 -0.01674,0.14058 -0.024,0.211c-0.02957,0.29341 -0.04459,0.5881 -0.045,0.883v1.67c0.00108,0.05635 0.00274,0.11269 0.005,0.169c0.01282,0.31466 0.0422,0.62843 0.088,0.94c0.05505,0.37923 0.14169,0.7532 0.259,1.118c0.11478,0.35911 0.2652,0.70584 0.449,1.035c0.17674,0.31819 0.40061,0.6078 0.664,0.859c0.25756,0.24988 0.55891,0.45022 0.889,0.591c0.16574,0.07129 0.33829,0.12557 0.515,0.162c0.20969,0.04288 0.42299,0.06565 0.637,0.068c0.04999,0.00133 0.09999,0.00199 0.15,0.002c0.20133,0 0.41,-0.01067 0.626,-0.032c0.27067,-0.026 0.533,-0.078 0.787,-0.156c0.25333,-0.078 0.49067,-0.18367 0.712,-0.317c0.22133,-0.134 0.407,-0.30833 0.557,-0.523l0.02,-3.193h-2.891v-1.524h4.609l0.03,5.215c-0.22133,0.26067 -0.456,0.49667 -0.704,0.708z" fill="#ff0000" fill-rule="evenodd" stroke="#ff0000" stroke-linecap="round"/><path d="M235.25738,183.99159v-23.99999h17.52941v23.99999z" fill="none" fill-rule="nonzero" stroke="#000000" stroke-linecap="butt"/></g></g></svg>