<svg version="1.1" xmlns="http://www.w3.org/2000/svg" xmlns:xlink="http://www.w3.org/1999/xlink" width="17.52941" height="23.99999" viewBox="0,0,17.52941,23.99999"><g transform="translate(-235.25737,-159.99159)"><g data-paper-data="{&quot;isPaintingLayer&quot;:true}" stroke-width="0" stroke-linejoin="miter" stroke-miterlimit="10" stroke-dasharray="" stroke-dashoffset="0" style="mix-blend-mode: normal"><path d="M240.03802,170.82649v-1.397h2.91v-0.742c0,-0.67733 0.09933,-1.27133 0.298,-1.782c0.03229,-0.0828 0.06731,-0.16451 0.105,-0.245c0.17846,-0.39047 0.4296,-0.74341 0.74,-1.04c0.358,-0.34467 0.791,-0.605 1.299,-0.781c0.23655,-0.08137 0.47936,-0.14325 0.726,-0.185c0.32154,-0.0535 0.64704,-0.0796 0.973,-0.078c0.25761,-0.00045 0.51504,0.01391 0.771,0.043c0.25186,0.02922 0.50267,0.06691 0.752,0.113c0.16267,0.03267 0.32567,0.06667 0.489,0.102c0.16692,0.03681 0.33297,0.07749 0.498,0.122l-0.215,1.495c-0.15,-0.05133 -0.314,-0.099 -0.492,-0.143c-0.14613,-0.03618 -0.29318,-0.06852 -0.441,-0.097c-0.11834,-0.02265 -0.23741,-0.04133 -0.357,-0.056c-0.25914,-0.03137 -0.51997,-0.04673 -0.781,-0.046c-0.003,0 -0.006,0 -0.009,0c-0.192,0 -0.37367,0.01133 -0.545,0.034c-0.18112,0.02305 -0.35983,0.06221 -0.534,0.117c-0.09102,0.02884 -0.18019,0.06324 -0.267,0.103c-0.19201,0.08661 -0.36786,0.20531 -0.52,0.351c-0.11223,0.10647 -0.21006,0.22716 -0.291,0.359c-0.08709,0.14226 -0.15787,0.29388 -0.211,0.452c-0.00834,0.02355 -0.01634,0.04722 -0.024,0.071c-0.052,0.16667 -0.09033,0.34733 -0.115,0.542c-0.02215,0.18215 -0.03283,0.36551 -0.032,0.549v0.742h4.072v1.397h-4.072v9.169h-1.817v-9.169z" fill="#ff0000" fill-rule="evenodd" stroke="#ff0000" stroke-linecap="round"/><path d="M235.25738,183.99159v-23.99999h17.52941v23.99999z" fill="none" fill-rule="nonzero" stroke="#000000" stroke-linecap="butt"/></g></g></svg>